<?xml version="1.0" encoding="UTF-8"?>
<svg width="1200px" height="800px" viewBox="0 0 1200 800" version="1.1" xmlns="http://www.w3.org/2000/svg" xmlns:xlink="http://www.w3.org/1999/xlink">
    <title>Array of Lockers </title>
    <g id="Array-of-Lockers-" stroke="none" stroke-width="1" fill="none" fill-rule="evenodd">
        <rect id="Rectangle" fill="#AEE938" x="180" y="391" width="840" height="273"></rect>
        <path d="M787,140 L787,371 L623,371 L623,140 L787,140 Z M786,141 L624,141 L624,370 L786,370 L786,141 Z" id="Rectangle-Copy-100" fill="#0F1931" fill-rule="nonzero"></path>
        <rect id="Rectangle-Copy-30" fill="#F5FFE3" x="833" y="414" width="164" height="227"></rect>
        <rect id="Rectangle-Copy-45" fill="#AEE938" x="180" y="117" width="840" height="273"></rect>
        <rect id="Rectangle-Copy-102" fill="#008A27" x="833" y="140" width="164" height="231"></rect>
        <rect id="Rectangle-Copy-99" fill="#008A27" x="413" y="140" width="164" height="231"></rect>
        <rect id="Rectangle-Copy-99" fill="#008A27" x="623" y="140" width="164" height="231"></rect>
        <rect id="Rectangle-Copy-4" fill="#008A27" x="290" y="444" width="60" height="8"></rect>
        <rect id="Rectangle-Copy-16" fill="#008A27" x="920" y="444" width="60" height="8"></rect>
        <rect id="Rectangle-Copy-10" fill="#008A27" x="290" y="585" width="60" height="8"></rect>
        <rect id="Rectangle-Copy-19" fill="#008A27" x="920" y="585" width="60" height="8"></rect>
        <rect id="Rectangle-Copy-6" fill="#008A27" x="290" y="458" width="60" height="8"></rect>
        <rect id="Rectangle-Copy-20" fill="#008A27" x="920" y="458" width="60" height="8"></rect>
        <rect id="Rectangle-Copy-11" fill="#008A27" x="290" y="599" width="60" height="8"></rect>
        <rect id="Rectangle-Copy-21" fill="#008A27" x="920" y="599" width="60" height="8"></rect>
        <rect id="Rectangle-Copy-8" fill="#008A27" x="290" y="472" width="60" height="8"></rect>
        <rect id="Rectangle-Copy-22" fill="#008A27" x="920" y="472" width="60" height="8"></rect>
        <rect id="Rectangle-Copy-12" fill="#008A27" x="290" y="613" width="60" height="8"></rect>
        <rect id="Rectangle-Copy-23" fill="#008A27" x="920" y="613" width="60" height="8"></rect>
        <rect id="Rectangle-Copy-5" fill="#008A27" x="220" y="444" width="60" height="8"></rect>
        <rect id="Rectangle-Copy-24" fill="#008A27" x="850" y="444" width="60" height="8"></rect>
        <rect id="Rectangle-Copy-13" fill="#008A27" x="220" y="585" width="60" height="8"></rect>
        <rect id="Rectangle-Copy-25" fill="#008A27" x="850" y="585" width="60" height="8"></rect>
        <rect id="Rectangle-Copy-7" fill="#008A27" x="220" y="458" width="60" height="8"></rect>
        <rect id="Rectangle-Copy-26" fill="#008A27" x="850" y="458" width="60" height="8"></rect>
        <rect id="Rectangle-Copy-14" fill="#008A27" x="220" y="599" width="60" height="8"></rect>
        <rect id="Rectangle-Copy-27" fill="#008A27" x="850" y="599" width="60" height="8"></rect>
        <rect id="Rectangle-Copy-9" fill="#008A27" x="220" y="472" width="60" height="8"></rect>
        <rect id="Rectangle-Copy-28" fill="#008A27" x="850" y="472" width="60" height="8"></rect>
        <circle id="Oval" fill="#008A27" cx="239" cy="529" r="19"></circle>
        <circle id="Oval-Copy" fill="#008A27" cx="869" cy="529" r="19"></circle>
        <circle id="Oval" fill="#AEE938" cx="239" cy="529" r="12"></circle>
        <circle id="Oval-Copy-2" fill="#AEE938" cx="869" cy="529" r="12"></circle>
        <rect id="Rectangle-Copy-15" fill="#008A27" x="220" y="613" width="60" height="8"></rect>
        <rect id="Rectangle-Copy-29" fill="#008A27" x="850" y="613" width="60" height="8"></rect>
        <polygon id="Rectangle-Copy-55" fill="#008A27" points="587 616 633 632 633 640 587 624"></polygon>
        <polygon id="Rectangle-Copy-63" fill="#008A27" points="797 616 843 632 843 640 797 624"></polygon>
        <polygon id="Rectangle-Copy-96" fill="#008A27" points="797 342 843 358 843 366 797 350"></polygon>
        <polygon id="Rectangle-Copy-95" fill="#008A27" points="587 342 633 358 633 366 587 350"></polygon>
        <polygon id="Rectangle-Copy-98" fill="#008A27" points="1007 342 1053 358 1053 366 1007 350"></polygon>
        <line x1="390.5" y1="116.5" x2="390" y2="662.5" id="Line" fill="#D8D8D8"></line>
        <line x1="810.5" y1="116.5" x2="810" y2="662.5" id="Line-Copy-2" fill="#D8D8D8"></line>
        <line x1="600.5" y1="116.5" x2="600" y2="662.5" id="Line-Copy" fill="#D8D8D8"></line>
        <rect id="Rectangle" fill="#F5FFE3" x="203" y="414" width="164" height="227"></rect>
        <rect id="Rectangle-Copy" fill="#008A27" x="413" y="414" width="164" height="231"></rect>
        <rect id="Rectangle-Copy-101" fill="#008A27" x="203" y="140" width="164" height="231"></rect>
        <rect id="Rectangle-Copy-2" fill="#008A27" x="623" y="414" width="164" height="231"></rect>
        <rect id="Rectangle-Copy-4" fill="#008A27" x="290" y="444" width="60" height="8"></rect>
        <rect id="Rectangle-Copy-31" fill="#008A27" x="920" y="444" width="60" height="8"></rect>
        <rect id="Rectangle-Copy-10" fill="#008A27" x="290" y="585" width="60" height="8"></rect>
        <rect id="Rectangle-Copy-32" fill="#008A27" x="920" y="585" width="60" height="8"></rect>
        <rect id="Rectangle-Copy-6" fill="#008A27" x="290" y="458" width="60" height="8"></rect>
        <rect id="Rectangle-Copy-33" fill="#008A27" x="920" y="458" width="60" height="8"></rect>
        <rect id="Rectangle-Copy-11" fill="#008A27" x="290" y="599" width="60" height="8"></rect>
        <rect id="Rectangle-Copy-34" fill="#008A27" x="920" y="599" width="60" height="8"></rect>
        <rect id="Rectangle-Copy-8" fill="#008A27" x="290" y="472" width="60" height="8"></rect>
        <rect id="Rectangle-Copy-35" fill="#008A27" x="920" y="472" width="60" height="8"></rect>
        <rect id="Rectangle-Copy-12" fill="#008A27" x="290" y="613" width="60" height="8"></rect>
        <rect id="Rectangle-Copy-36" fill="#008A27" x="920" y="613" width="60" height="8"></rect>
        <rect id="Rectangle-Copy-5" fill="#008A27" x="220" y="444" width="60" height="8"></rect>
        <rect id="Rectangle-Copy-37" fill="#008A27" x="850" y="444" width="60" height="8"></rect>
        <rect id="Rectangle-Copy-13" fill="#008A27" x="220" y="585" width="60" height="8"></rect>
        <rect id="Rectangle-Copy-38" fill="#008A27" x="850" y="585" width="60" height="8"></rect>
        <rect id="Rectangle-Copy-7" fill="#008A27" x="220" y="458" width="60" height="8"></rect>
        <rect id="Rectangle-Copy-39" fill="#008A27" x="850" y="458" width="60" height="8"></rect>
        <rect id="Rectangle-Copy-14" fill="#008A27" x="220" y="599" width="60" height="8"></rect>
        <rect id="Rectangle-Copy-40" fill="#008A27" x="850" y="599" width="60" height="8"></rect>
        <rect id="Rectangle-Copy-9" fill="#008A27" x="220" y="472" width="60" height="8"></rect>
        <path d="M910,585 L910,593 L850,593 L850,585 L910,585 Z M909,586 L851,586 L851,592 L909,592 L909,586 Z" id="Rectangle-Copy-25" fill="#0F1931" fill-rule="nonzero"></path>
        <rect id="Rectangle-Copy-41" fill="#008A27" x="850" y="472" width="60" height="8"></rect>
        <circle id="Oval" fill="#008A27" cx="239" cy="529" r="19"></circle>
        <circle id="Oval-Copy-3" fill="#008A27" cx="869" cy="529" r="19"></circle>
        <path d="M910,599 L910,607 L850,607 L850,599 L910,599 Z M909,600 L851,600 L851,606 L909,606 L909,600 Z" id="Rectangle-Copy-27" fill="#0F1931" fill-rule="nonzero"></path>
        <circle id="Oval" fill="#AEE938" cx="239" cy="529" r="12"></circle>
        <circle id="Oval-Copy-4" fill="#AEE938" cx="869" cy="529" r="12"></circle>
        <rect id="Rectangle-Copy-46" stroke="#0F1931" x="180.5" y="391.5" width="839" height="272"></rect>
        <path d="M910,444 L910,452 L850,452 L850,444 L910,444 Z M909,445 L851,445 L851,451 L909,451 L909,445 Z" id="Rectangle-Copy-24" fill="#0F1931" fill-rule="nonzero"></path>
        <rect id="Rectangle-Copy-15" fill="#008A27" x="220" y="613" width="60" height="8"></rect>
        <polygon id="Line" fill="#0F1931" fill-rule="nonzero" points="390.000458 115.999542 391.000458 116.000458 390.499542 663.000458 389.499542 662.999542"></polygon>
        <path d="M787,414 L787,645 L623,645 L623,414 L787,414 Z M786,415 L624,415 L624,644 L786,644 L786,415 Z" id="Rectangle-Copy-2" fill="#0F1931" fill-rule="nonzero"></path>
        <polygon id="Line-Copy-2" fill="#0F1931" fill-rule="nonzero" points="810.000458 115.999542 811.000458 116.000458 810.499542 663.000458 809.499542 662.999542"></polygon>
        <path d="M910,458 L910,466 L850,466 L850,458 L910,458 Z M909,459 L851,459 L851,465 L909,465 L909,459 Z" id="Rectangle-Copy-26" fill="#0F1931" fill-rule="nonzero"></path>
        <rect id="Rectangle-Copy-44" fill="#008A27" x="850" y="613" width="60" height="8"></rect>
        <path d="M997,414 L997,641 L833,641 L833,414 L997,414 Z M996,415 L834,415 L834,640 L996,640 L996,415 Z" id="Rectangle-Copy-30" fill="#0F1931" fill-rule="nonzero"></path>
        <polygon id="Line-Copy" fill="#0F1931" fill-rule="nonzero" points="600.000458 115.999542 601.000458 116.000458 600.499542 663.000458 599.499542 662.999542"></polygon>
        <path d="M997,140 L997,371 L833,371 L833,140 L997,140 Z M996,141 L834,141 L834,370 L996,370 L996,141 Z" id="Rectangle-Copy-102" fill="#0F1931" fill-rule="nonzero"></path>
        <polygon id="Rectangle-Copy" fill="#F5FFE3" points="576 413.332031 680 451.332031 680 683 576 645"></polygon>
        <path d="M910,613 L910,621 L850,621 L850,613 L910,613 Z M909,614 L851,614 L851,620 L909,620 L909,614 Z" id="Rectangle-Copy-29" fill="#0F1931" fill-rule="nonzero"></path>
        <path d="M577,140 L577,371 L413,371 L413,140 L577,140 Z M576,141 L413.999,141 L413.999,370 L576,370 L576,141 Z" id="Rectangle-Copy-99" fill="#0F1931" fill-rule="nonzero"></path>
        <rect id="Rectangle-Copy-45" stroke="#0F1931" x="180.5" y="117.5" width="839" height="272"></rect>
        <path d="M910,472 L910,480 L850,480 L850,472 L910,472 Z M909,473 L851,473 L851,479 L909,479 L909,473 Z" id="Rectangle-Copy-28" fill="#0F1931" fill-rule="nonzero"></path>
        <polygon id="Rectangle-Copy-3" fill="#F5FFE3" points="786 413.332031 890 451.332031 890 683 786 645"></polygon>
        <polygon id="Rectangle-Copy-130" fill="#F5FFE3" points="786 139.332031 890 177.332031 890 409 786 371"></polygon>
        <polygon id="Rectangle-Copy-97" fill="#008A27" points="377 342 423 358 423 366 377 350"></polygon>
        <polygon id="Rectangle-Copy-168" fill="#F5FFE3" points="996 139.332031 1100 177.332031 1100 409 996 371"></polygon>
        <polygon id="Rectangle-Copy-51" fill="#008A27" points="587 435 624.26 449 624.26 457 587 443"></polygon>
        <polygon id="Rectangle-Copy-155" fill="#F5FFE3" points="366 139.332031 470 177.332031 470 409 366 371"></polygon>
        <path d="M787,140 L787,371 L623,371 L623,140 L787,140 Z M786,141 L624,141 L624,370 L786,370 L786,141 Z" id="Rectangle-Copy-100" fill="#0F1931" fill-rule="nonzero"></path>
        <polygon id="Rectangle-Copy-64" fill="#008A27" points="797 435 834.26 449 834.26 457 797 443"></polygon>
        <polygon id="Rectangle-Copy-132" fill="#008A27" points="797 161 834.26 175 834.26 183 797 169"></polygon>
        <polygon id="Rectangle-Copy-169" fill="#008A27" points="1007 161 1044.26 175 1044.26 183 1007 169"></polygon>
        <polygon id="Rectangle-Copy-52" fill="#008A27" points="587 596 624.26 610 624.26 618 587 604"></polygon>
        <polygon id="Rectangle-Copy-65" fill="#008A27" points="797 596 834.26 610 834.26 618 797 604"></polygon>
        <polygon id="Rectangle-Copy-134" fill="#008A27" points="797 322 834.26 336 834.26 344 797 330"></polygon>
        <polygon id="Rectangle-Copy-129" fill="#F5FFE3" points="576 139.332031 680 177.332031 680 409 576 371"></polygon>
        <polygon id="Rectangle-Copy-133" fill="#008A27" points="587 322 624.26 336 624.26 344 587 330"></polygon>
        <polygon id="Rectangle-Copy-170" fill="#008A27" points="1007 322 1044.26 336 1044.26 344 1007 330"></polygon>
        <polygon id="Rectangle-Copy-57" fill="#008A27" points="630.74 451 668 465 668 473 630.74 459"></polygon>
        <polygon id="Rectangle-Copy-66" fill="#008A27" points="840.74 451 878 465 878 473 840.74 459"></polygon>
        <polygon id="Rectangle-Copy-136" fill="#008A27" points="840.74 177 878 191 878 199 840.74 185"></polygon>
        <polygon id="Rectangle-Copy-135" fill="#008A27" points="630.74 177 668 191 668 199 630.74 185"></polygon>
        <polygon id="Rectangle-Copy-171" fill="#008A27" points="1050.74 177 1088 191 1088 199 1050.74 185"></polygon>
        <polygon id="Rectangle-Copy-60" fill="#008A27" points="630.74 612 668 626 668 634 630.74 620"></polygon>
        <polygon id="Rectangle-Copy-67" fill="#008A27" points="840.74 612 878 626 878 634 840.74 620"></polygon>
        <polygon id="Rectangle-Copy-131" fill="#008A27" points="587 161 624.26 175 624.26 183 587 169"></polygon>
        <polygon id="Rectangle-Copy-138" fill="#008A27" points="840.74 338 878 352 878 360 840.74 346"></polygon>
        <polygon id="Rectangle-Copy-137" fill="#008A27" points="630.74 338 668 352 668 360 630.74 346"></polygon>
        <polygon id="Rectangle-Copy-172" fill="#008A27" points="1050.74 338 1088 352 1088 360 1050.74 346"></polygon>
        <polygon id="Rectangle-Copy-53" fill="#008A27" points="587 449 624.26 463 624.26 471 587 457"></polygon>
        <polygon id="Rectangle-Copy-68" fill="#008A27" points="797 449 834.26 463 834.26 471 797 457"></polygon>
        <polygon id="Rectangle-Copy-140" fill="#008A27" points="797 175 834.26 189 834.26 197 797 183"></polygon>
        <polygon id="Rectangle-Copy-139" fill="#008A27" points="587 175 624.26 189 624.26 197 587 183"></polygon>
        <polygon id="Rectangle-Copy-173" fill="#008A27" points="1007 175 1044.26 189 1044.26 197 1007 183"></polygon>
        <polygon id="Rectangle-Copy-54" fill="#008A27" points="587 610 624.26 624 624.26 632 587 618"></polygon>
        <polygon id="Rectangle-Copy-69" fill="#008A27" points="797 610 834.26 624 834.26 632 797 618"></polygon>
        <polygon id="Rectangle-Copy-142" fill="#008A27" points="797 336 834.26 350 834.26 358 797 344"></polygon>
        <polygon id="Rectangle-Copy-141" fill="#008A27" points="587 336 624.26 350 624.26 358 587 344"></polygon>
        <polygon id="Rectangle-Copy-174" fill="#008A27" points="1007 336 1044.26 350 1044.26 358 1007 344"></polygon>
        <polygon id="Rectangle-Copy-58" fill="#008A27" points="630.74 465 668 479 668 487 630.74 473"></polygon>
        <polygon id="Rectangle-Copy-70" fill="#008A27" points="840.74 465 878 479 878 487 840.74 473"></polygon>
        <polygon id="Rectangle-Copy-144" fill="#008A27" points="840.74 191 878 205 878 213 840.74 199"></polygon>
        <polygon id="Rectangle-Copy-143" fill="#008A27" points="630.74 191 668 205 668 213 630.74 199"></polygon>
        <polygon id="Rectangle-Copy-175" fill="#008A27" points="1050.74 191 1088 205 1088 213 1050.74 199"></polygon>
        <polygon id="Rectangle-Copy-61" fill="#008A27" points="630.74 626 668 640 668 648 630.74 634"></polygon>
        <polygon id="Rectangle-Copy-71" fill="#008A27" points="840.74 626 878 640 878 648 840.74 634"></polygon>
        <polygon id="Rectangle-Copy-146" fill="#008A27" points="840.74 352 878 366 878 374 840.74 360"></polygon>
        <polygon id="Rectangle-Copy-145" fill="#008A27" points="630.74 352 668 366 668 374 630.74 360"></polygon>
        <polygon id="Rectangle-Copy-176" fill="#008A27" points="1050.74 352 1088 366 1088 374 1050.74 360"></polygon>
        <polygon id="Rectangle-Copy-55" fill="#008A27" points="587 463 624.26 477 624.26 485 587 471"></polygon>
        <polygon id="Rectangle-Copy-72" fill="#008A27" points="797 463 834.26 477 834.26 485 797 471"></polygon>
        <polygon id="Rectangle-Copy-148" fill="#008A27" points="797 189 834.26 203 834.26 211 797 197"></polygon>
        <polygon id="Rectangle-Copy-147" fill="#008A27" points="587 189 624.26 203 624.26 211 587 197"></polygon>
        <polygon id="Rectangle-Copy-177" fill="#008A27" points="1007 189 1044.26 203 1044.26 211 1007 197"></polygon>
        <polygon id="Rectangle-Copy-56" fill="#008A27" points="587 624 624.26 638 624.26 646 587 632"></polygon>
        <polygon id="Rectangle-Copy-73" fill="#008A27" points="797 624 834.26 638 834.26 646 797 632"></polygon>
        <polygon id="Rectangle-Copy-150" fill="#008A27" points="797 350 834.26 364 834.26 372 797 358"></polygon>
        <polygon id="Rectangle-Copy-149" fill="#008A27" points="587 350 624.26 364 624.26 372 587 358"></polygon>
        <polygon id="Rectangle-Copy-178" fill="#008A27" points="1007 350 1044.26 364 1044.26 372 1007 358"></polygon>
        <polygon id="Rectangle-Copy-59" fill="#008A27" points="630.74 479 668 493 668 501 630.74 487"></polygon>
        <polygon id="Rectangle-Copy-74" fill="#008A27" points="840.74 479 878 493 878 501 840.74 487"></polygon>
        <polygon id="Rectangle-Copy-156" fill="#008A27" points="377 161 414.26 175 414.26 183 377 169"></polygon>
        <polygon id="Rectangle-Copy-151" fill="#008A27" points="630.74 205 668 219 668 227 630.74 213"></polygon>
        <polygon id="Rectangle-Copy-152" fill="#008A27" points="840.74 205 878 219 878 227 840.74 213"></polygon>
        <polygon id="Rectangle-Copy-179" fill="#008A27" points="1050.74 205 1088 219 1088 227 1050.74 213"></polygon>
        <polygon id="Rectangle-Copy-62" fill="#008A27" points="630.74 640 668 654 668 662 630.74 648"></polygon>
        <polygon id="Rectangle-Copy-75" fill="#008A27" points="840.74 640 878 654 878 662 840.74 648"></polygon>
        <polygon id="Rectangle-Copy-157" fill="#008A27" points="377 322 414.26 336 414.26 344 377 330"></polygon>
        <polygon id="Rectangle-Copy-153" fill="#008A27" points="630.74 366 668 380 668 388 630.74 374"></polygon>
        <polygon id="Rectangle-Copy-154" fill="#008A27" points="840.74 366 878 380 878 388 840.74 374"></polygon>
        <polygon id="Rectangle-Copy-180" fill="#008A27" points="1050.74 366 1088 380 1088 388 1050.74 374"></polygon>
        <path d="M350,444 L350,452 L290,452 L290,444 L350,444 Z M349,445 L291,445 L291,451 L349,451 L349,445 Z" id="Rectangle-Copy-4" fill="#0F1931" fill-rule="nonzero"></path>
        <polygon id="Rectangle-Copy-158" fill="#008A27" points="420.74 177 458 191 458 199 420.74 185"></polygon>
        <path d="M980,444 L980,452 L920,452 L920,444 L980,444 Z M979,445 L921,445 L921,451 L979,451 L979,445 Z" id="Rectangle-Copy-16" fill="#0F1931" fill-rule="nonzero"></path>
        <path d="M350,585 L350,593 L290,593 L290,585 L350,585 Z M349,586 L291,586 L291,592 L349,592 L349,586 Z" id="Rectangle-Copy-10" fill="#0F1931" fill-rule="nonzero"></path>
        <path d="M980,585 L980,593 L920,593 L920,585 L980,585 Z M979,586 L921,586 L921,592 L979,592 L979,586 Z" id="Rectangle-Copy-19" fill="#0F1931" fill-rule="nonzero"></path>
        <path d="M350,458 L350,466 L290,466 L290,458 L350,458 Z M349,459 L291,459 L291,465 L349,465 L349,459 Z" id="Rectangle-Copy-6" fill="#0F1931" fill-rule="nonzero"></path>
        <path d="M980,458 L980,466 L920,466 L920,458 L980,458 Z M979,459 L921,459 L921,465 L979,465 L979,459 Z" id="Rectangle-Copy-20" fill="#0F1931" fill-rule="nonzero"></path>
        <polygon id="Rectangle-Copy-159" fill="#008A27" points="420.74 338 458 352 458 360 420.74 346"></polygon>
        <path d="M350,599 L350,607 L290,607 L290,599 L350,599 Z M349,600 L291,600 L291,606 L349,606 L349,600 Z" id="Rectangle-Copy-11" fill="#0F1931" fill-rule="nonzero"></path>
        <path d="M980,599 L980,607 L920,607 L920,599 L980,599 Z M979,600 L921,600 L921,606 L979,606 L979,600 Z" id="Rectangle-Copy-21" fill="#0F1931" fill-rule="nonzero"></path>
        <path d="M350,472 L350,480 L290,480 L290,472 L350,472 Z M349,473 L291,473 L291,479 L349,479 L349,473 Z" id="Rectangle-Copy-8" fill="#0F1931" fill-rule="nonzero"></path>
        <path d="M980,472 L980,480 L920,480 L920,472 L980,472 Z M979,473 L921,473 L921,479 L979,479 L979,473 Z" id="Rectangle-Copy-22" fill="#0F1931" fill-rule="nonzero"></path>
        <path d="M350,613 L350,621 L290,621 L290,613 L350,613 Z M349,614 L291,614 L291,620 L349,620 L349,614 Z" id="Rectangle-Copy-12" fill="#0F1931" fill-rule="nonzero"></path>
        <polygon id="Rectangle-Copy-160" fill="#008A27" points="377 175 414.26 189 414.26 197 377 183"></polygon>
        <path d="M980,613 L980,621 L920,621 L920,613 L980,613 Z M979,614 L921,614 L921,620 L979,620 L979,614 Z" id="Rectangle-Copy-23" fill="#0F1931" fill-rule="nonzero"></path>
        <path d="M280,444 L280,452 L220,452 L220,444 L280,444 Z M279,445 L221,445 L221,451 L279,451 L279,445 Z" id="Rectangle-Copy-5" fill="#0F1931" fill-rule="nonzero"></path>
        <path d="M280,585 L280,593 L220,593 L220,585 L280,585 Z M279,586 L221,586 L221,592 L279,592 L279,586 Z" id="Rectangle-Copy-13" fill="#0F1931" fill-rule="nonzero"></path>
        <polygon id="Rectangle-Copy-161" fill="#008A27" points="377 336 414.26 350 414.26 358 377 344"></polygon>
        <path d="M280,458 L280,466 L220,466 L220,458 L280,458 Z M279,459 L221,459 L221,465 L279,465 L279,459 Z" id="Rectangle-Copy-7" fill="#0F1931" fill-rule="nonzero"></path>
        <path d="M367,414 L367,641 L203,641 L203,414 L367,414 Z M366,415 L204,415 L204,640 L366,640 L366,415 Z" id="Rectangle" fill="#0F1931" fill-rule="nonzero"></path>
        <path d="M280,599 L280,607 L220,607 L220,599 L280,599 Z M279,600 L221,600 L221,606 L279,606 L279,600 Z" id="Rectangle-Copy-14" fill="#0F1931" fill-rule="nonzero"></path>
        <polygon id="Rectangle-Copy-162" fill="#008A27" points="420.74 191 458 205 458 213 420.74 199"></polygon>
        <rect id="Rectangle-Copy-17" fill="#F5FFE3" transform="translate(366.000000, 591.500000) rotate(-90.000000) translate(-366.000000, -591.500000) " x="336.5" y="585.5" width="59" height="12" rx="6"></rect>
        <path d="M280,472 L280,480 L220,480 L220,472 L280,472 Z M279,473 L221,473 L221,479 L279,479 L279,473 Z" id="Rectangle-Copy-9" fill="#0F1931" fill-rule="nonzero"></path>
        <path d="M239,510 C249.49341,510 258,518.50659 258,529 C258,539.49341 249.49341,548 239,548 C228.50659,548 220,539.49341 220,529 C220,518.50659 228.50659,510 239,510 Z M239,511 C229.058875,511 221,519.058875 221,529 C221,538.941125 229.058875,547 239,547 C248.941125,547 257,538.941125 257,529 C257,519.058875 248.941125,511 239,511 Z" id="Oval" fill="#0F1931" fill-rule="nonzero"></path>
        <polygon id="Rectangle-Copy-163" fill="#008A27" points="420.74 352 458 366 458 374 420.74 360"></polygon>
        <path d="M239,517 C245.627417,517 251,522.372583 251,529 C251,535.627417 245.627417,541 239,541 C232.372583,541 227,535.627417 227,529 C227,522.372583 232.372583,517 239,517 Z M239,518 C232.924868,518 228,522.924868 228,529 C228,535.075132 232.924868,540 239,540 C245.075132,540 250,535.075132 250,529 C250,522.924868 245.075132,518 239,518 Z" id="Oval" fill="#0F1931" fill-rule="nonzero"></path>
        <path d="M280,613 L280,621 L220,621 L220,613 L280,613 Z M279,614 L221,614 L221,620 L279,620 L279,614 Z" id="Rectangle-Copy-15" fill="#0F1931" fill-rule="nonzero"></path>
        <polygon id="Rectangle-Copy-164" fill="#008A27" points="377 189 414.26 203 414.26 211 377 197"></polygon>
        <path d="M577,414 L577,645 L413,645 L413,414 L577,414 Z M576,415 L413.999,415 L413.999,644 L576,644 L576,415 Z" id="Rectangle-Copy" fill="#0F1931" fill-rule="nonzero"></path>
        <path d="M367,140 L367,371 L203,371 L203,140 L367,140 Z M365.999,141 L203.999,141 L203.999,370 L365.999,370 L365.999,141 Z" id="Rectangle-Copy-101" fill="#0F1931" fill-rule="nonzero"></path>
        <polygon id="Rectangle-Copy-165" fill="#008A27" points="377 350 414.26 364 414.26 372 377 358"></polygon>
        <rect id="Rectangle-Copy-17" fill="#F5FFE3" transform="translate(996.000000, 591.500000) rotate(-90.000000) translate(-996.000000, -591.500000) " x="966.5" y="585.5" width="59" height="12" rx="6"></rect>
        <rect id="Rectangle-Copy-18" fill="#F5FFE3" transform="translate(996.000000, 464.500000) rotate(-90.000000) translate(-996.000000, -464.500000) " x="966.5" y="458.5" width="59" height="12" rx="6"></rect>
        <path d="M350,444 L350,452 L290,452 L290,444 L350,444 Z M349,445 L291,445 L291,451 L349,451 L349,445 Z" id="Rectangle-Copy-4" fill="#0F1931" fill-rule="nonzero"></path>
        <path d="M980,444 L980,452 L920,452 L920,444 L980,444 Z M979,445 L921,445 L921,451 L979,451 L979,445 Z" id="Rectangle-Copy-31" fill="#0F1931" fill-rule="nonzero"></path>
        <path d="M1019.5,585.5 C1022.81371,585.5 1025.5,588.186292 1025.5,591.5 C1025.5,594.813708 1022.81371,597.5 1019.5,597.5 L972.5,597.5 C969.186292,597.5 966.5,594.813708 966.5,591.5 C966.5,588.186292 969.186292,585.5 972.5,585.5 L1019.5,585.5 Z M1019.5,586.5 L972.5,586.5 C969.738576,586.5 967.5,588.738576 967.5,591.5 C967.5,594.188755 969.622307,596.381818 972.28311,596.49538 L972.5,596.5 L1019.5,596.5 C1022.26142,596.5 1024.5,594.261424 1024.5,591.5 C1024.5,588.811245 1022.37769,586.618182 1019.71689,586.50462 L1019.5,586.5 Z" id="Rectangle-Copy-42" fill="#0F1931" fill-rule="nonzero" transform="translate(996.000000, 591.500000) rotate(-90.000000) translate(-996.000000, -591.500000) "></path>
        <path d="M1019.5,458.5 C1022.81371,458.5 1025.5,461.186292 1025.5,464.5 C1025.5,467.813708 1022.81371,470.5 1019.5,470.5 L972.5,470.5 C969.186292,470.5 966.5,467.813708 966.5,464.5 C966.5,461.186292 969.186292,458.5 972.5,458.5 L1019.5,458.5 Z M1019.5,459.5 L972.5,459.5 C969.738576,459.5 967.5,461.738576 967.5,464.5 C967.5,467.188755 969.622307,469.381818 972.28311,469.49538 L972.5,469.5 L1019.5,469.5 C1022.26142,469.5 1024.5,467.261424 1024.5,464.5 C1024.5,461.811245 1022.37769,459.618182 1019.71689,459.50462 L1019.5,459.5 Z" id="Rectangle-Copy-43" fill="#0F1931" fill-rule="nonzero" transform="translate(996.000000, 464.500000) rotate(-90.000000) translate(-996.000000, -464.500000) "></path>
        <path d="M1019.5,585.5 C1022.81371,585.5 1025.5,588.186292 1025.5,591.5 C1025.5,594.813708 1022.81371,597.5 1019.5,597.5 L972.5,597.5 C969.186292,597.5 966.5,594.813708 966.5,591.5 C966.5,588.186292 969.186292,585.5 972.5,585.5 L1019.5,585.5 Z M1019.5,586.5 L972.5,586.5 C969.738576,586.5 967.5,588.738576 967.5,591.5 C967.5,594.188755 969.622307,596.381818 972.28311,596.49538 L972.5,596.5 L1019.5,596.5 C1022.26142,596.5 1024.5,594.261424 1024.5,591.5 C1024.5,588.811245 1022.37769,586.618182 1019.71689,586.50462 L1019.5,586.5 Z" id="Rectangle-Copy-42" fill="#0F1931" fill-rule="nonzero" transform="translate(996.000000, 591.500000) rotate(-90.000000) translate(-996.000000, -591.500000) "></path>
        <path d="M1019.5,458.5 C1022.81371,458.5 1025.5,461.186292 1025.5,464.5 C1025.5,467.813708 1022.81371,470.5 1019.5,470.5 L972.5,470.5 C969.186292,470.5 966.5,467.813708 966.5,464.5 C966.5,461.186292 969.186292,458.5 972.5,458.5 L1019.5,458.5 Z M1019.5,459.5 L972.5,459.5 C969.738576,459.5 967.5,461.738576 967.5,464.5 C967.5,467.188755 969.622307,469.381818 972.28311,469.49538 L972.5,469.5 L1019.5,469.5 C1022.26142,469.5 1024.5,467.261424 1024.5,464.5 C1024.5,461.811245 1022.37769,459.618182 1019.71689,459.50462 L1019.5,459.5 Z" id="Rectangle-Copy-43" fill="#0F1931" fill-rule="nonzero" transform="translate(996.000000, 464.500000) rotate(-90.000000) translate(-996.000000, -464.500000) "></path>
        <path d="M350,585 L350,593 L290,593 L290,585 L350,585 Z M349,586 L291,586 L291,592 L349,592 L349,586 Z" id="Rectangle-Copy-10" fill="#0F1931" fill-rule="nonzero"></path>
        <path d="M980,585 L980,593 L920,593 L920,585 L980,585 Z M979,586 L921,586 L921,592 L979,592 L979,586 Z" id="Rectangle-Copy-32" fill="#0F1931" fill-rule="nonzero"></path>
        <polygon id="Rectangle-Copy-166" fill="#008A27" points="420.74 205 458 219 458 227 420.74 213"></polygon>
        <path d="M350,458 L350,466 L290,466 L290,458 L350,458 Z M349,459 L291,459 L291,465 L349,465 L349,459 Z" id="Rectangle-Copy-6" fill="#0F1931" fill-rule="nonzero"></path>
        <path d="M980,458 L980,466 L920,466 L920,458 L980,458 Z M979,459 L921,459 L921,465 L979,465 L979,459 Z" id="Rectangle-Copy-33" fill="#0F1931" fill-rule="nonzero"></path>
        <path d="M350,599 L350,607 L290,607 L290,599 L350,599 Z M349,600 L291,600 L291,606 L349,606 L349,600 Z" id="Rectangle-Copy-11" fill="#0F1931" fill-rule="nonzero"></path>
        <path d="M980,599 L980,607 L920,607 L920,599 L980,599 Z M979,600 L921,600 L921,606 L979,606 L979,600 Z" id="Rectangle-Copy-34" fill="#0F1931" fill-rule="nonzero"></path>
        <path d="M350,472 L350,480 L290,480 L290,472 L350,472 Z M349,473 L291,473 L291,479 L349,479 L349,473 Z" id="Rectangle-Copy-8" fill="#0F1931" fill-rule="nonzero"></path>
        <polygon id="Rectangle-Copy-167" fill="#008A27" points="420.74 366 458 380 458 388 420.74 374"></polygon>
        <path d="M980,472 L980,480 L920,480 L920,472 L980,472 Z M979,473 L921,473 L921,479 L979,479 L979,473 Z" id="Rectangle-Copy-35" fill="#0F1931" fill-rule="nonzero"></path>
        <path d="M350,613 L350,621 L290,621 L290,613 L350,613 Z M349,614 L291,614 L291,620 L349,620 L349,614 Z" id="Rectangle-Copy-12" fill="#0F1931" fill-rule="nonzero"></path>
        <path d="M980,613 L980,621 L920,621 L920,613 L980,613 Z M979,614 L921,614 L921,620 L979,620 L979,614 Z" id="Rectangle-Copy-36" fill="#0F1931" fill-rule="nonzero"></path>
        <path d="M280,444 L280,452 L220,452 L220,444 L280,444 Z M279,445 L221,445 L221,451 L279,451 L279,445 Z" id="Rectangle-Copy-5" fill="#0F1931" fill-rule="nonzero"></path>
        <rect id="Rectangle-Copy-18" fill="#F5FFE3" transform="translate(366.000000, 464.500000) rotate(-90.000000) translate(-366.000000, -464.500000) " x="336.5" y="458.5" width="59" height="12" rx="6"></rect>
        <path d="M280,585 L280,593 L220,593 L220,585 L280,585 Z M279,586 L221,586 L221,592 L279,592 L279,586 Z" id="Rectangle-Copy-13" fill="#0F1931" fill-rule="nonzero"></path>
        <path d="M280,458 L280,466 L220,466 L220,458 L280,458 Z M279,459 L221,459 L221,465 L279,465 L279,459 Z" id="Rectangle-Copy-7" fill="#0F1931" fill-rule="nonzero"></path>
        <path d="M280,599 L280,607 L220,607 L220,599 L280,599 Z M279,600 L221,600 L221,606 L279,606 L279,600 Z" id="Rectangle-Copy-14" fill="#0F1931" fill-rule="nonzero"></path>
        <path d="M280,472 L280,480 L220,480 L220,472 L280,472 Z M279,473 L221,473 L221,479 L279,479 L279,473 Z" id="Rectangle-Copy-9" fill="#0F1931" fill-rule="nonzero"></path>
        <path d="M239,510 C249.49341,510 258,518.50659 258,529 C258,539.49341 249.49341,548 239,548 C228.50659,548 220,539.49341 220,529 C220,518.50659 228.50659,510 239,510 Z M239,511 C229.058875,511 221,519.058875 221,529 C221,538.941125 229.058875,547 239,547 C248.941125,547 257,538.941125 257,529 C257,519.058875 248.941125,511 239,511 Z" id="Oval" fill="#0F1931" fill-rule="nonzero"></path>
        <path d="M239,517 C245.627417,517 251,522.372583 251,529 C251,535.627417 245.627417,541 239,541 C232.372583,541 227,535.627417 227,529 C227,522.372583 232.372583,517 239,517 Z M239,518 C232.924868,518 228,522.924868 228,529 C228,535.075132 232.924868,540 239,540 C245.075132,540 250,535.075132 250,529 C250,522.924868 245.075132,518 239,518 Z" id="Oval" fill="#0F1931" fill-rule="nonzero"></path>
        <path d="M280,613 L280,621 L220,621 L220,613 L280,613 Z M279,614 L221,614 L221,620 L279,620 L279,614 Z" id="Rectangle-Copy-15" fill="#0F1931" fill-rule="nonzero"></path>
        <path d="M576,413.332031 L680,451.332031 L680,683 L576,645 L576,413.332031 Z M577,414.762 L577,644.3 L679,681.569 L679,452.031 L577,414.762 Z" id="Rectangle-Copy" fill="#0F1931" fill-rule="nonzero"></path>
        <path d="M786,413.332031 L890,451.332031 L890,683 L786,645 L786,413.332031 Z M787,414.762 L787,644.3 L889,681.569 L889,452.031 L787,414.762 Z" id="Rectangle-Copy-3" fill="#0F1931" fill-rule="nonzero"></path>
        <path d="M996,139.332031 L1100,177.332031 L1100,409 L996,371 L996,139.332031 Z M997,140.762 L997,370.3 L1099,407.569 L1099,178.031 L997,140.762 Z" id="Rectangle-Copy-168" fill="#0F1931" fill-rule="nonzero"></path>
        <path d="M587,435 L624.26,449 L624.26,457 L587,443 L587,435 Z M588,436.444 L588,442.307 L623.26,455.555 L623.26,449.693 L588,436.444 Z" id="Rectangle-Copy-51" fill="#0F1931" fill-rule="nonzero"></path>
        <path d="M366,139.332031 L470,177.332031 L470,409 L366,371 L366,139.332031 Z M367,140.762 L367,370.3 L469,407.569 L469,178.031 L367,140.762 Z" id="Rectangle-Copy-155" fill="#0F1931" fill-rule="nonzero"></path>
        <path d="M797,435 L834.26,449 L834.26,457 L797,443 L797,435 Z M798,436.444 L798,442.307 L833.26,455.555 L833.26,449.693 L798,436.444 Z" id="Rectangle-Copy-64" fill="#0F1931" fill-rule="nonzero"></path>
        <path d="M797,161 L834.26,175 L834.26,183 L797,169 L797,161 Z M798,162.444 L798,168.307 L833.26,181.555 L833.26,175.693 L798,162.444 Z" id="Rectangle-Copy-132" fill="#0F1931" fill-rule="nonzero"></path>
        <path d="M1007,161 L1044.26,175 L1044.26,183 L1007,169 L1007,161 Z M1008,162.444 L1008,168.307 L1043.26,181.555 L1043.26,175.693 L1008,162.444 Z" id="Rectangle-Copy-169" fill="#0F1931" fill-rule="nonzero"></path>
        <path d="M587,596 L624.26,610 L624.26,618 L587,604 L587,596 Z M588,597.444 L588,603.307 L623.26,616.555 L623.26,610.693 L588,597.444 Z" id="Rectangle-Copy-52" fill="#0F1931" fill-rule="nonzero"></path>
        <path d="M797,596 L834.26,610 L834.26,618 L797,604 L797,596 Z M798,597.444 L798,603.307 L833.26,616.555 L833.26,610.693 L798,597.444 Z" id="Rectangle-Copy-65" fill="#0F1931" fill-rule="nonzero"></path>
        <path d="M797,322 L834.26,336 L834.26,344 L797,330 L797,322 Z M798,323.444 L798,329.307 L833.26,342.555 L833.26,336.693 L798,323.444 Z" id="Rectangle-Copy-134" fill="#0F1931" fill-rule="nonzero"></path>
        <path d="M587,322 L624.26,336 L624.26,344 L587,330 L587,322 Z M588,323.444 L588,329.307 L623.26,342.555 L623.26,336.693 L588,323.444 Z" id="Rectangle-Copy-133" fill="#0F1931" fill-rule="nonzero"></path>
        <path d="M1007,322 L1044.26,336 L1044.26,344 L1007,330 L1007,322 Z M1008,323.444 L1008,329.307 L1043.26,342.555 L1043.26,336.693 L1008,323.444 Z" id="Rectangle-Copy-170" fill="#0F1931" fill-rule="nonzero"></path>
        <path d="M576,139.332031 L680,177.332031 L680,409 L576,371 L576,139.332031 Z M577,140.762 L577,370.3 L679,407.569 L679,178.031 L577,140.762 Z" id="Rectangle-Copy-129" fill="#0F1931" fill-rule="nonzero"></path>
        <path d="M630.74,451 L668,465 L668,473 L630.74,459 L630.74,451 Z M631.739,452.444 L631.739,458.306 L666.999,471.555 L666.999,465.692 L631.739,452.444 Z" id="Rectangle-Copy-57" fill="#0F1931" fill-rule="nonzero"></path>
        <path d="M840.74,451 L878,465 L878,473 L840.74,459 L840.74,451 Z M841.739,452.444 L841.739,458.306 L876.999,471.555 L876.999,465.692 L841.739,452.444 Z" id="Rectangle-Copy-66" fill="#0F1931" fill-rule="nonzero"></path>
        <path d="M840.74,177 L878,191 L878,199 L840.74,185 L840.74,177 Z M841.739,178.444 L841.739,184.306 L876.999,197.555 L876.999,191.692 L841.739,178.444 Z" id="Rectangle-Copy-136" fill="#0F1931" fill-rule="nonzero"></path>
        <path d="M630.74,177 L668,191 L668,199 L630.74,185 L630.74,177 Z M631.739,178.444 L631.739,184.306 L666.999,197.555 L666.999,191.692 L631.739,178.444 Z" id="Rectangle-Copy-135" fill="#0F1931" fill-rule="nonzero"></path>
        <path d="M1050.74,177 L1088,191 L1088,199 L1050.74,185 L1050.74,177 Z M1051.739,178.444 L1051.739,184.306 L1086.999,197.555 L1086.999,191.692 L1051.739,178.444 Z" id="Rectangle-Copy-171" fill="#0F1931" fill-rule="nonzero"></path>
        <path d="M630.74,612 L668,626 L668,634 L630.74,620 L630.74,612 Z M631.739,613.444 L631.739,619.306 L666.999,632.555 L666.999,626.692 L631.739,613.444 Z" id="Rectangle-Copy-60" fill="#0F1931" fill-rule="nonzero"></path>
        <path d="M840.74,612 L878,626 L878,634 L840.74,620 L840.74,612 Z M841.739,613.444 L841.739,619.306 L876.999,632.555 L876.999,626.692 L841.739,613.444 Z" id="Rectangle-Copy-67" fill="#0F1931" fill-rule="nonzero"></path>
        <path d="M587,161 L624.26,175 L624.26,183 L587,169 L587,161 Z M588,162.444 L588,168.307 L623.26,181.555 L623.26,175.693 L588,162.444 Z" id="Rectangle-Copy-131" fill="#0F1931" fill-rule="nonzero"></path>
        <path d="M840.74,338 L878,352 L878,360 L840.74,346 L840.74,338 Z M841.739,339.444 L841.739,345.306 L876.999,358.555 L876.999,352.692 L841.739,339.444 Z" id="Rectangle-Copy-138" fill="#0F1931" fill-rule="nonzero"></path>
        <path d="M630.74,338 L668,352 L668,360 L630.74,346 L630.74,338 Z M631.739,339.444 L631.739,345.306 L666.999,358.555 L666.999,352.692 L631.739,339.444 Z" id="Rectangle-Copy-137" fill="#0F1931" fill-rule="nonzero"></path>
        <path d="M1050.74,338 L1088,352 L1088,360 L1050.74,346 L1050.74,338 Z M1051.739,339.444 L1051.739,345.306 L1086.999,358.555 L1086.999,352.692 L1051.739,339.444 Z" id="Rectangle-Copy-172" fill="#0F1931" fill-rule="nonzero"></path>
        <path d="M587,449 L624.26,463 L624.26,471 L587,457 L587,449 Z M588,450.444 L588,456.307 L623.26,469.555 L623.26,463.693 L588,450.444 Z" id="Rectangle-Copy-53" fill="#0F1931" fill-rule="nonzero"></path>
        <path d="M389.5,458.5 C392.813708,458.5 395.5,461.186292 395.5,464.5 C395.5,467.813708 392.813708,470.5 389.5,470.5 L342.5,470.5 C339.186292,470.5 336.5,467.813708 336.5,464.5 C336.5,461.186292 339.186292,458.5 342.5,458.5 L389.5,458.5 Z M389.5,459.5 L342.5,459.5 C339.738576,459.5 337.5,461.738576 337.5,464.5 C337.5,467.188755 339.622307,469.381818 342.28311,469.49538 L342.5,469.5 L389.5,469.5 C392.261424,469.5 394.5,467.261424 394.5,464.5 C394.5,461.811245 392.377693,459.618182 389.71689,459.50462 L389.5,459.5 Z" id="Rectangle-Copy-18" fill="#0F1931" fill-rule="nonzero" transform="translate(366.000000, 464.500000) rotate(-90.000000) translate(-366.000000, -464.500000) "></path>
        <path d="M797,449 L834.26,463 L834.26,471 L797,457 L797,449 Z M798,450.444 L798,456.307 L833.26,469.555 L833.26,463.693 L798,450.444 Z" id="Rectangle-Copy-68" fill="#0F1931" fill-rule="nonzero"></path>
        <path d="M587,175 L624.26,189 L624.26,197 L587,183 L587,175 Z M588,176.444 L588,182.307 L623.26,195.555 L623.26,189.693 L588,176.444 Z" id="Rectangle-Copy-139" fill="#0F1931" fill-rule="nonzero"></path>
        <path d="M797,175 L834.26,189 L834.26,197 L797,183 L797,175 Z M798,176.444 L798,182.307 L833.26,195.555 L833.26,189.693 L798,176.444 Z" id="Rectangle-Copy-140" fill="#0F1931" fill-rule="nonzero"></path>
        <path d="M1007,175 L1044.26,189 L1044.26,197 L1007,183 L1007,175 Z M1008,176.444 L1008,182.307 L1043.26,195.555 L1043.26,189.693 L1008,176.444 Z" id="Rectangle-Copy-173" fill="#0F1931" fill-rule="nonzero"></path>
        <path d="M587,610 L624.26,624 L624.26,632 L587,618 L587,610 Z M588,611.444 L588,617.307 L623.26,630.555 L623.26,624.693 L588,611.444 Z" id="Rectangle-Copy-54" fill="#0F1931" fill-rule="nonzero"></path>
        <path d="M797,610 L834.26,624 L834.26,632 L797,618 L797,610 Z M798,611.444 L798,617.307 L833.26,630.555 L833.26,624.693 L798,611.444 Z" id="Rectangle-Copy-69" fill="#0F1931" fill-rule="nonzero"></path>
        <path d="M797,336 L834.26,350 L834.26,358 L797,344 L797,336 Z M798,337.444 L798,343.307 L833.26,356.555 L833.26,350.693 L798,337.444 Z" id="Rectangle-Copy-142" fill="#0F1931" fill-rule="nonzero"></path>
        <path d="M587,336 L624.26,350 L624.26,358 L587,344 L587,336 Z M588,337.444 L588,343.307 L623.26,356.555 L623.26,350.693 L588,337.444 Z" id="Rectangle-Copy-141" fill="#0F1931" fill-rule="nonzero"></path>
        <path d="M1007,336 L1044.26,350 L1044.26,358 L1007,344 L1007,336 Z M1008,337.444 L1008,343.307 L1043.26,356.555 L1043.26,350.693 L1008,337.444 Z" id="Rectangle-Copy-174" fill="#0F1931" fill-rule="nonzero"></path>
        <path d="M630.74,465 L668,479 L668,487 L630.74,473 L630.74,465 Z M631.739,466.444 L631.739,472.306 L666.999,485.555 L666.999,479.692 L631.739,466.444 Z" id="Rectangle-Copy-58" fill="#0F1931" fill-rule="nonzero"></path>
        <path d="M840.74,465 L878,479 L878,487 L840.74,473 L840.74,465 Z M841.739,466.444 L841.739,472.306 L876.999,485.555 L876.999,479.692 L841.739,466.444 Z" id="Rectangle-Copy-70" fill="#0F1931" fill-rule="nonzero"></path>
        <path d="M840.74,191 L878,205 L878,213 L840.74,199 L840.74,191 Z M841.739,192.444 L841.739,198.306 L876.999,211.555 L876.999,205.692 L841.739,192.444 Z" id="Rectangle-Copy-144" fill="#0F1931" fill-rule="nonzero"></path>
        <path d="M630.74,191 L668,205 L668,213 L630.74,199 L630.74,191 Z M631.739,192.444 L631.739,198.306 L666.999,211.555 L666.999,205.692 L631.739,192.444 Z" id="Rectangle-Copy-143" fill="#0F1931" fill-rule="nonzero"></path>
        <path d="M1050.74,191 L1088,205 L1088,213 L1050.74,199 L1050.74,191 Z M1051.739,192.444 L1051.739,198.306 L1086.999,211.555 L1086.999,205.692 L1051.739,192.444 Z" id="Rectangle-Copy-175" fill="#0F1931" fill-rule="nonzero"></path>
        <path d="M786,139.332031 L890,177.332031 L890,409 L786,371 L786,139.332031 Z M787,140.762 L787,370.3 L889,407.569 L889,178.031 L787,140.762 Z" id="Rectangle-Copy-130" fill="#0F1931" fill-rule="nonzero"></path>
        <path d="M630.74,626 L668,640 L668,648 L630.74,634 L630.74,626 Z M631.739,627.444 L631.739,633.306 L666.999,646.555 L666.999,640.692 L631.739,627.444 Z" id="Rectangle-Copy-61" fill="#0F1931" fill-rule="nonzero"></path>
        <path d="M840.74,626 L878,640 L878,648 L840.74,634 L840.74,626 Z M841.739,627.444 L841.739,633.306 L876.999,646.555 L876.999,640.692 L841.739,627.444 Z" id="Rectangle-Copy-71" fill="#0F1931" fill-rule="nonzero"></path>
        <path d="M840.74,352 L878,366 L878,374 L840.74,360 L840.74,352 Z M841.739,353.444 L841.739,359.306 L876.999,372.555 L876.999,366.692 L841.739,353.444 Z" id="Rectangle-Copy-146" fill="#0F1931" fill-rule="nonzero"></path>
        <path d="M630.74,352 L668,366 L668,374 L630.74,360 L630.74,352 Z M631.739,353.444 L631.739,359.306 L666.999,372.555 L666.999,366.692 L631.739,353.444 Z" id="Rectangle-Copy-145" fill="#0F1931" fill-rule="nonzero"></path>
        <path d="M1050.74,352 L1088,366 L1088,374 L1050.74,360 L1050.74,352 Z M1051.739,353.444 L1051.739,359.306 L1086.999,372.555 L1086.999,366.692 L1051.739,353.444 Z" id="Rectangle-Copy-176" fill="#0F1931" fill-rule="nonzero"></path>
        <path d="M587,463 L624.26,477 L624.26,485 L587,471 L587,463 Z M588,464.444 L588,470.307 L623.26,483.555 L623.26,477.693 L588,464.444 Z" id="Rectangle-Copy-55" fill="#0F1931" fill-rule="nonzero"></path>
        <path d="M797,463 L834.26,477 L834.26,485 L797,471 L797,463 Z M798,464.444 L798,470.307 L833.26,483.555 L833.26,477.693 L798,464.444 Z" id="Rectangle-Copy-72" fill="#0F1931" fill-rule="nonzero"></path>
        <path d="M797,189 L834.26,203 L834.26,211 L797,197 L797,189 Z M798,190.444 L798,196.307 L833.26,209.555 L833.26,203.693 L798,190.444 Z" id="Rectangle-Copy-148" fill="#0F1931" fill-rule="nonzero"></path>
        <path d="M587,189 L624.26,203 L624.26,211 L587,197 L587,189 Z M588,190.444 L588,196.307 L623.26,209.555 L623.26,203.693 L588,190.444 Z" id="Rectangle-Copy-147" fill="#0F1931" fill-rule="nonzero"></path>
        <path d="M1007,189 L1044.26,203 L1044.26,211 L1007,197 L1007,189 Z M1008,190.444 L1008,196.307 L1043.26,209.555 L1043.26,203.693 L1008,190.444 Z" id="Rectangle-Copy-177" fill="#0F1931" fill-rule="nonzero"></path>
        <path d="M587,624 L624.26,638 L624.26,646 L587,632 L587,624 Z M588,625.444 L588,631.307 L623.26,644.555 L623.26,638.693 L588,625.444 Z" id="Rectangle-Copy-56" fill="#0F1931" fill-rule="nonzero"></path>
        <path d="M797,624 L834.26,638 L834.26,646 L797,632 L797,624 Z M798,625.444 L798,631.307 L833.26,644.555 L833.26,638.693 L798,625.444 Z" id="Rectangle-Copy-73" fill="#0F1931" fill-rule="nonzero"></path>
        <path d="M797,350 L834.26,364 L834.26,372 L797,358 L797,350 Z M798,351.444 L798,357.307 L833.26,370.555 L833.26,364.693 L798,351.444 Z" id="Rectangle-Copy-150" fill="#0F1931" fill-rule="nonzero"></path>
        <path d="M587,350 L624.26,364 L624.26,372 L587,358 L587,350 Z M588,351.444 L588,357.307 L623.26,370.555 L623.26,364.693 L588,351.444 Z" id="Rectangle-Copy-149" fill="#0F1931" fill-rule="nonzero"></path>
        <path d="M1007,350 L1044.26,364 L1044.26,372 L1007,358 L1007,350 Z M1008,351.444 L1008,357.307 L1043.26,370.555 L1043.26,364.693 L1008,351.444 Z" id="Rectangle-Copy-178" fill="#0F1931" fill-rule="nonzero"></path>
        <path d="M630.74,479 L668,493 L668,501 L630.74,487 L630.74,479 Z M631.739,480.444 L631.739,486.306 L666.999,499.555 L666.999,493.692 L631.739,480.444 Z" id="Rectangle-Copy-59" fill="#0F1931" fill-rule="nonzero"></path>
        <path d="M377,161 L414.26,175 L414.26,183 L377,169 L377,161 Z M378,162.444 L378,168.307 L413.26,181.555 L413.26,175.693 L378,162.444 Z" id="Rectangle-Copy-156" fill="#0F1931" fill-rule="nonzero"></path>
        <path d="M840.74,479 L878,493 L878,501 L840.74,487 L840.74,479 Z M841.739,480.444 L841.739,486.306 L876.999,499.555 L876.999,493.692 L841.739,480.444 Z" id="Rectangle-Copy-74" fill="#0F1931" fill-rule="nonzero"></path>
        <path d="M630.74,205 L668,219 L668,227 L630.74,213 L630.74,205 Z M631.739,206.444 L631.739,212.306 L666.999,225.555 L666.999,219.692 L631.739,206.444 Z" id="Rectangle-Copy-151" fill="#0F1931" fill-rule="nonzero"></path>
        <path d="M840.74,205 L878,219 L878,227 L840.74,213 L840.74,205 Z M841.739,206.444 L841.739,212.306 L876.999,225.555 L876.999,219.692 L841.739,206.444 Z" id="Rectangle-Copy-152" fill="#0F1931" fill-rule="nonzero"></path>
        <path d="M1050.74,205 L1088,219 L1088,227 L1050.74,213 L1050.74,205 Z M1051.739,206.444 L1051.739,212.306 L1086.999,225.555 L1086.999,219.692 L1051.739,206.444 Z" id="Rectangle-Copy-179" fill="#0F1931" fill-rule="nonzero"></path>
        <path d="M630.74,640 L668,654 L668,662 L630.74,648 L630.74,640 Z M631.739,641.444 L631.739,647.306 L666.999,660.555 L666.999,654.692 L631.739,641.444 Z" id="Rectangle-Copy-62" fill="#0F1931" fill-rule="nonzero"></path>
        <path d="M377,322 L414.26,336 L414.26,344 L377,330 L377,322 Z M378,323.444 L378,329.307 L413.26,342.555 L413.26,336.693 L378,323.444 Z" id="Rectangle-Copy-157" fill="#0F1931" fill-rule="nonzero"></path>
        <path d="M840.74,640 L878,654 L878,662 L840.74,648 L840.74,640 Z M841.739,641.444 L841.739,647.306 L876.999,660.555 L876.999,654.692 L841.739,641.444 Z" id="Rectangle-Copy-75" fill="#0F1931" fill-rule="nonzero"></path>
        <path d="M630.74,366 L668,380 L668,388 L630.74,374 L630.74,366 Z M631.739,367.444 L631.739,373.306 L666.999,386.555 L666.999,380.692 L631.739,367.444 Z" id="Rectangle-Copy-153" fill="#0F1931" fill-rule="nonzero"></path>
        <path d="M840.74,366 L878,380 L878,388 L840.74,374 L840.74,366 Z M841.739,367.444 L841.739,373.306 L876.999,386.555 L876.999,380.692 L841.739,367.444 Z" id="Rectangle-Copy-154" fill="#0F1931" fill-rule="nonzero"></path>
        <path d="M1050.74,366 L1088,380 L1088,388 L1050.74,374 L1050.74,366 Z M1051.739,367.444 L1051.739,373.306 L1086.999,386.555 L1086.999,380.692 L1051.739,367.444 Z" id="Rectangle-Copy-180" fill="#0F1931" fill-rule="nonzero"></path>
        <g id="1" transform="translate(482.859000, 505.675000)" fill="#F5FFE3" fill-rule="nonzero">
            <path d="M12.369,0 C10.26,4.503 6.897,5.244 0,5.415 L0,9.006 L10.545,9.006 L10.545,36.822 L0,36.822 L0,41.325 L24.453,41.325 L24.453,36.822 L15.789,36.822 L15.789,0 L12.369,0 Z" id="Path"></path>
        </g>
        <g id="3" transform="translate(480.579000, 230.934000)" fill="#F5FFE3" fill-rule="nonzero">
            <path d="M14.25,38.304 C8.721,38.304 5.871,34.77 5.301,29.754 L4.54747351e-13,29.754 C0.513,36.48 5.016,42.807 14.193,42.807 C21.489,42.807 28.671,38.646 28.671,30.438 C28.671,26.22 27.018,22.002 21.204,20.007 C25.365,18.297 27.645,14.649 27.645,10.431 C27.645,2.907 21.261,2.84217094e-14 14.592,2.84217094e-14 C6.498,2.84217094e-14 1.14,5.13 0.57,12.426 L5.928,12.426 C6.327,7.809 9.177,4.446 14.421,4.446 C18.639,4.446 22.059,6.783 22.059,10.944 C22.059,15.732 18.411,17.955 11.628,17.955 L11.001,17.955 L11.001,22.572 L11.799,22.572 C18.126,22.572 23.085,24.681 23.085,30.495 C23.085,35.397 19.494,38.304 14.25,38.304 Z" id="Path"></path>
        </g>
        <path d="M420.74,177 L458,191 L458,199 L420.74,185 L420.74,177 Z M421.739,178.444 L421.739,184.306 L456.999,197.555 L456.999,191.692 L421.739,178.444 Z" id="Rectangle-Copy-158" fill="#0F1931" fill-rule="nonzero"></path>
        <g id="6" transform="translate(270.636000, 230.934000)" fill="#F5FFE3" fill-rule="nonzero">
            <path d="M5.985,28.842 C5.985,23.313 9.462,19.266 14.592,19.266 C19.608,19.266 23.142,23.313 23.142,28.842 C23.142,34.428 19.551,38.304 14.535,38.304 C9.348,38.304 5.985,34.485 5.985,28.842 Z M15.333,4.446 C19.095,4.446 21.774,6.555 22.401,10.203 L28.044,10.203 C27.246,5.073 23.313,2.84217094e-14 15.618,2.84217094e-14 C4.275,2.84217094e-14 0,11.4 0,23.028 C0,35.568 4.788,42.807 14.592,42.807 C23.028,42.807 28.728,36.195 28.728,28.614 C28.728,20.406 23.085,14.592 15.789,14.592 C10.545,14.592 7.182,17.043 5.415,20.235 C5.643,10.83 9.006,4.446 15.333,4.446 Z" id="Shape"></path>
        </g>
        <g id="4" transform="translate(689.040000, 505.675000)" fill="#F5FFE3" fill-rule="nonzero">
            <path d="M19.494,7.068 L19.494,26.22 L5.472,26.22 L19.494,7.068 Z M31.635,26.22 L24.738,26.22 L24.738,0 L19.437,0 L0,26.22 L0,31.122 L19.494,31.122 L19.494,41.325 L24.738,41.325 L24.738,31.122 L31.635,31.122 L31.635,26.22 Z" id="Shape"></path>
        </g>
        <g id="7" transform="translate(691.263000, 231.675000)" fill="#F5FFE3" fill-rule="nonzero">
            <path d="M0,4.446 L22.629,4.446 C12.825,12.483 6.099,26.505 5.187,41.325 L11.172,41.325 C11.571,26.163 18.468,12.54 29.013,4.446 L29.013,0 L0,0 L0,4.446 Z" id="Path"></path>
        </g>
        <g id="9" transform="translate(900.636000, 230.934000)" fill="#F5FFE3" fill-rule="nonzero">
            <path d="M22.686,13.965 C22.686,19.494 19.266,23.484 14.079,23.484 C9.063,23.484 5.586,19.494 5.586,13.965 C5.586,8.379 9.063,4.446 14.193,4.446 C19.38,4.446 22.686,8.322 22.686,13.965 Z M13.452,38.304 C9.633,38.304 6.954,36.309 6.327,32.604 L0.627,32.604 C1.482,37.791 5.529,42.807 13.167,42.807 C24.51,42.807 28.728,31.35 28.728,19.779 C28.728,7.182 23.997,2.84217094e-14 14.079,2.84217094e-14 C5.472,2.84217094e-14 0,6.612 0,14.193 C0,22.344 5.643,28.158 12.939,28.158 C18.126,28.158 21.546,25.707 23.313,22.515 C23.085,31.977 19.665,38.304 13.452,38.304 Z" id="Shape"></path>
        </g>
        <path d="M389.5,585.5 C392.813708,585.5 395.5,588.186292 395.5,591.5 C395.5,594.813708 392.813708,597.5 389.5,597.5 L342.5,597.5 C339.186292,597.5 336.5,594.813708 336.5,591.5 C336.5,588.186292 339.186292,585.5 342.5,585.5 L389.5,585.5 Z M389.5,586.5 L342.5,586.5 C339.738576,586.5 337.5,588.738576 337.5,591.5 C337.5,594.188755 339.622307,596.381818 342.28311,596.49538 L342.5,596.5 L389.5,596.5 C392.261424,596.5 394.5,594.261424 394.5,591.5 C394.5,588.811245 392.377693,586.618182 389.71689,586.50462 L389.5,586.5 Z" id="Rectangle-Copy-17" fill="#0F1931" fill-rule="nonzero" transform="translate(366.000000, 591.500000) rotate(-90.000000) translate(-366.000000, -591.500000) "></path>
        <path d="M420.74,338 L458,352 L458,360 L420.74,346 L420.74,338 Z M421.739,339.444 L421.739,345.306 L456.999,358.555 L456.999,352.692 L421.739,339.444 Z" id="Rectangle-Copy-159" fill="#0F1931" fill-rule="nonzero"></path>
        <path d="M377,175 L414.26,189 L414.26,197 L377,183 L377,175 Z M378,176.444 L378,182.307 L413.26,195.555 L413.26,189.693 L378,176.444 Z" id="Rectangle-Copy-160" fill="#0F1931" fill-rule="nonzero"></path>
        <path d="M377,336 L414.26,350 L414.26,358 L377,344 L377,336 Z M378,337.444 L378,343.307 L413.26,356.555 L413.26,350.693 L378,337.444 Z" id="Rectangle-Copy-161" fill="#0F1931" fill-rule="nonzero"></path>
        <path d="M420.74,191 L458,205 L458,213 L420.74,199 L420.74,191 Z M421.739,192.444 L421.739,198.306 L456.999,211.555 L456.999,205.692 L421.739,192.444 Z" id="Rectangle-Copy-162" fill="#0F1931" fill-rule="nonzero"></path>
        <path d="M420.74,352 L458,366 L458,374 L420.74,360 L420.74,352 Z M421.739,353.444 L421.739,359.306 L456.999,372.555 L456.999,366.692 L421.739,353.444 Z" id="Rectangle-Copy-163" fill="#0F1931" fill-rule="nonzero"></path>
        <path d="M377,189 L414.26,203 L414.26,211 L377,197 L377,189 Z M378,190.444 L378,196.307 L413.26,209.555 L413.26,203.693 L378,190.444 Z" id="Rectangle-Copy-164" fill="#0F1931" fill-rule="nonzero"></path>
        <path d="M377,350 L414.26,364 L414.26,372 L377,358 L377,350 Z M378,351.444 L378,357.307 L413.26,370.555 L413.26,364.693 L378,351.444 Z" id="Rectangle-Copy-165" fill="#0F1931" fill-rule="nonzero"></path>
        <path d="M420.74,205 L458,219 L458,227 L420.74,213 L420.74,205 Z M421.739,206.444 L421.739,212.306 L456.999,225.555 L456.999,219.692 L421.739,206.444 Z" id="Rectangle-Copy-166" fill="#0F1931" fill-rule="nonzero"></path>
        <path d="M420.74,366 L458,380 L458,388 L420.74,374 L420.74,366 Z M421.739,367.444 L421.739,373.306 L456.999,386.555 L456.999,380.692 L421.739,367.444 Z" id="Rectangle-Copy-167" fill="#0F1931" fill-rule="nonzero"></path>
    </g>
</svg>