<?xml version="1.0" encoding="UTF-8"?>
<svg width="521px" height="114px" viewBox="0 0 521 114" version="1.1" xmlns="http://www.w3.org/2000/svg" xmlns:xlink="http://www.w3.org/1999/xlink">
    <title>Array of Characters</title>
    <g id="Array-of-Characters" stroke="none" stroke-width="1" fill="none" fill-rule="evenodd">
        <polygon id="Fill-7-Copy-7" fill="#FFF0E5" points="20 57 57 57 57 20 20 20"></polygon>
        <polygon id="Fill-7-Copy-9" fill="#FFF0E5" points="57 57 94 57 94 20 57 20"></polygon>
        <polygon id="Fill-7-Copy-13" fill="#FFF0E5" points="94 57 131 57 131 20 94 20"></polygon>
        <polygon id="Fill-7-Copy-8" fill="#F5FCFF" points="20 94 57 94 57 57 20 57"></polygon>
        <polygon id="Fill-7-Copy-10" fill="#F5FCFF" points="57 94 94 94 94 57 57 57"></polygon>
        <polygon id="Fill-7-Copy-14" fill="#F5FCFF" points="94 94 131 94 131 57 94 57"></polygon>
        <path d="M57.5,19.5 L19.5,19.5 L19.5,57.5 L57.5,57.5 L57.5,19.5 Z M56.5,20.5 L56.5,56.5 L20.5,56.5 L20.5,20.5 L56.5,20.5 Z" id="Fill-7-Copy-7" fill="#10162F" fill-rule="nonzero"></path>
        <path d="M94.5,19.5 L56.5,19.5 L56.5,57.5 L94.5,57.5 L94.5,19.5 Z M93.5,20.5 L93.5,56.5 L57.5,56.5 L57.5,20.5 L93.5,20.5 Z" id="Fill-7-Copy-11" fill="#10162F" fill-rule="nonzero"></path>
        <path d="M131.5,19.5 L93.5,19.5 L93.5,57.5 L131.5,57.5 L131.5,19.5 Z M130.5,20.5 L130.5,56.5 L94.5,56.5 L94.5,20.5 L130.5,20.5 Z" id="Fill-7-Copy-15" fill="#10162F" fill-rule="nonzero"></path>
        <path d="M57.5,56.5 L19.5,56.5 L19.5,94.5 L57.5,94.5 L57.5,56.5 Z M56.5,57.5 L56.5,93.5 L20.5,93.5 L20.5,57.5 L56.5,57.5 Z" id="Fill-7-Copy-7" fill="#10162F" fill-rule="nonzero"></path>
        <path d="M94.5,56.5 L56.5,56.5 L56.5,94.5 L94.5,94.5 L94.5,56.5 Z M93.5,57.5 L93.5,93.5 L57.5,93.5 L57.5,57.5 L93.5,57.5 Z" id="Fill-7-Copy-12" fill="#10162F" fill-rule="nonzero"></path>
        <path d="M131.5,56.5 L93.5,56.5 L93.5,94.5 L131.5,94.5 L131.5,56.5 Z M130.5,57.5 L130.5,93.5 L94.5,93.5 L94.5,57.5 L130.5,57.5 Z" id="Fill-7-Copy-16" fill="#10162F" fill-rule="nonzero"></path>
        <g id="str" transform="translate(28.996000, 71.597000)" fill="#10162F" fill-rule="nonzero">
            <path d="M4.675,3.102 C4.455,2.046 3.597,1.386 2.343,1.386 C1.353,1.386 0.11,1.881 0.11,3.025 C0.11,4.048 0.847,4.51 1.782,4.697 L2.519,4.84 C3.267,4.972 3.762,5.247 3.762,5.797 C3.762,6.49 3.069,6.71 2.442,6.71 C1.617,6.71 1.199,6.314 1.067,5.632 L0,5.632 C0.11,6.578 0.88,7.546 2.42,7.546 C3.707,7.546 4.785,6.93 4.785,5.676 C4.785,4.488 3.685,4.103 2.662,3.905 L2.002,3.773 C1.419,3.652 1.111,3.443 1.111,2.981 C1.111,2.453 1.705,2.222 2.299,2.222 C2.97,2.222 3.487,2.442 3.619,3.102 L4.675,3.102 Z" id="Path"></path>
            <path d="M8.118,1.485 L6.435,1.485 L6.435,2.354 L8.118,2.354 L8.118,5.918 C8.118,7.15 8.426,7.403 9.504,7.403 L11.55,7.403 L11.55,6.534 L9.724,6.534 C9.163,6.534 9.13,6.38 9.13,5.775 L9.13,2.354 L11.55,2.354 L11.55,1.485 L9.13,1.485 L9.13,0 L8.118,0 L8.118,1.485 Z" id="Path"></path>
            <path d="M14.003,1.485 L14.003,2.354 L15.686,2.354 L15.686,6.534 L14.014,6.534 L14.014,7.403 L18.722,7.403 L18.722,6.534 L16.698,6.534 L16.698,4.455 C16.698,3.157 17.138,2.409 18.271,2.409 L19.272,2.409 L19.272,1.485 L18.26,1.485 C17.534,1.485 16.962,1.881 16.676,2.541 L16.676,1.485 L14.003,1.485 Z" id="Path"></path>
        </g>
        <g id="H" transform="translate(72.915000, 72.014000)" fill="#10162F" fill-rule="nonzero">
            <polygon id="Path" points="4.125 0 4.125 3.377 1.045 3.377 1.045 0 0 0 0 7.986 1.045 7.986 1.045 4.367 4.125 4.367 4.125 7.986 5.17 7.986 5.17 0"></polygon>
        </g>
        <g id="e" transform="translate(109.849000, 73.972000)" fill="#10162F" fill-rule="nonzero">
            <path d="M2.684,6.171 C4.07,6.171 4.994,5.379 5.236,4.257 L4.191,4.257 C3.982,4.928 3.542,5.346 2.662,5.346 C1.727,5.346 1.067,4.565 1.067,3.377 L5.324,3.377 C5.401,1.265 4.411,0 2.684,0 C1.122,0 0,1.188 0,3.091 C0,4.84 0.891,6.171 2.684,6.171 Z M2.684,0.836 C3.718,0.836 4.257,1.573 4.246,2.541 L1.078,2.541 C1.122,1.397 1.727,0.836 2.684,0.836 Z" id="Shape"></path>
        </g>
        <g id="1000" transform="translate(62.498000, 34.882000)" fill="#10162F" fill-rule="nonzero">
            <path d="M2.387,0.143 C1.98,1.012 1.331,1.155 0,1.188 L0,1.881 L2.035,1.881 L2.035,7.249 L0,7.249 L0,8.118 L4.719,8.118 L4.719,7.249 L3.047,7.249 L3.047,0.143 L2.387,0.143 Z" id="Path"></path>
            <path d="M9.438,8.261 C11.451,8.261 12.232,6.567 12.232,4.092 C12.232,1.617 11.451,0 9.438,0 C7.425,0 6.655,1.617 6.655,4.092 C6.655,6.567 7.425,8.261 9.438,8.261 Z M7.678,4.092 C7.678,1.914 8.239,0.858 9.438,0.858 C10.395,0.858 10.956,1.54 11.132,2.926 L7.689,4.499 C7.678,4.367 7.678,4.235 7.678,4.092 Z M9.438,7.392 C8.492,7.392 7.942,6.699 7.755,5.335 L11.198,3.74 C11.209,3.861 11.209,3.971 11.209,4.092 C11.209,6.27 10.637,7.392 9.438,7.392 Z" id="Shape"></path>
            <path d="M16.544,8.261 C18.557,8.261 19.338,6.567 19.338,4.092 C19.338,1.617 18.557,0 16.544,0 C14.531,0 13.761,1.617 13.761,4.092 C13.761,6.567 14.531,8.261 16.544,8.261 Z M14.784,4.092 C14.784,1.914 15.345,0.858 16.544,0.858 C17.501,0.858 18.062,1.54 18.238,2.926 L14.795,4.499 C14.784,4.367 14.784,4.235 14.784,4.092 Z M16.544,7.392 C15.598,7.392 15.048,6.699 14.861,5.335 L18.304,3.74 C18.315,3.861 18.315,3.971 18.315,4.092 C18.315,6.27 17.743,7.392 16.544,7.392 Z" id="Shape"></path>
            <path d="M23.65,8.261 C25.663,8.261 26.444,6.567 26.444,4.092 C26.444,1.617 25.663,0 23.65,0 C21.637,0 20.867,1.617 20.867,4.092 C20.867,6.567 21.637,8.261 23.65,8.261 Z M21.89,4.092 C21.89,1.914 22.451,0.858 23.65,0.858 C24.607,0.858 25.168,1.54 25.344,2.926 L21.901,4.499 C21.89,4.367 21.89,4.235 21.89,4.092 Z M23.65,7.392 C22.704,7.392 22.154,6.699 21.967,5.335 L25.41,3.74 C25.421,3.861 25.421,3.971 25.421,4.092 C25.421,6.27 24.849,7.392 23.65,7.392 Z" id="Shape"></path>
        </g>
        <g id="1001" transform="translate(99.498000, 34.882000)" fill="#10162F" fill-rule="nonzero">
            <path d="M2.387,0.143 C1.98,1.012 1.331,1.155 0,1.188 L0,1.881 L2.035,1.881 L2.035,7.249 L0,7.249 L0,8.118 L4.719,8.118 L4.719,7.249 L3.047,7.249 L3.047,0.143 L2.387,0.143 Z" id="Path"></path>
            <path d="M9.438,8.261 C11.451,8.261 12.232,6.567 12.232,4.092 C12.232,1.617 11.451,0 9.438,0 C7.425,0 6.655,1.617 6.655,4.092 C6.655,6.567 7.425,8.261 9.438,8.261 Z M7.678,4.092 C7.678,1.914 8.239,0.858 9.438,0.858 C10.395,0.858 10.956,1.54 11.132,2.926 L7.689,4.499 C7.678,4.367 7.678,4.235 7.678,4.092 Z M9.438,7.392 C8.492,7.392 7.942,6.699 7.755,5.335 L11.198,3.74 C11.209,3.861 11.209,3.971 11.209,4.092 C11.209,6.27 10.637,7.392 9.438,7.392 Z" id="Shape"></path>
            <path d="M16.544,8.261 C18.557,8.261 19.338,6.567 19.338,4.092 C19.338,1.617 18.557,0 16.544,0 C14.531,0 13.761,1.617 13.761,4.092 C13.761,6.567 14.531,8.261 16.544,8.261 Z M14.784,4.092 C14.784,1.914 15.345,0.858 16.544,0.858 C17.501,0.858 18.062,1.54 18.238,2.926 L14.795,4.499 C14.784,4.367 14.784,4.235 14.784,4.092 Z M16.544,7.392 C15.598,7.392 15.048,6.699 14.861,5.335 L18.304,3.74 C18.315,3.861 18.315,3.971 18.315,4.092 C18.315,6.27 17.743,7.392 16.544,7.392 Z" id="Shape"></path>
            <path d="M23.705,0.143 C23.298,1.012 22.649,1.155 21.318,1.188 L21.318,1.881 L23.353,1.881 L23.353,7.249 L21.318,7.249 L21.318,8.118 L26.037,8.118 L26.037,7.249 L24.365,7.249 L24.365,0.143 L23.705,0.143 Z" id="Path"></path>
        </g>
        <polygon id="Fill-7-Copy-20" fill="#FFF0E5" points="131 57 168 57 168 20 131 20"></polygon>
        <polygon id="Fill-7-Copy-19" fill="#F5FCFF" points="131 94 168 94 168 57 131 57"></polygon>
        <path d="M168.5,19.5 L130.5,19.5 L130.5,57.5 L168.5,57.5 L168.5,19.5 Z M167.5,20.5 L167.5,56.5 L131.5,56.5 L131.5,20.5 L167.5,20.5 Z" id="Fill-7-Copy-18" fill="#10162F" fill-rule="nonzero"></path>
        <path d="M168.5,56.5 L130.5,56.5 L130.5,94.5 L168.5,94.5 L168.5,56.5 Z M167.5,57.5 L167.5,93.5 L131.5,93.5 L131.5,57.5 L167.5,57.5 Z" id="Fill-7-Copy-17" fill="#10162F" fill-rule="nonzero"></path>
        <g id="l" transform="translate(147.355000, 72.025000)" fill="#10162F" fill-rule="nonzero">
            <polygon id="Path" points="0 0 0 0.858 1.672 0.858 1.672 7.106 0 7.106 0 7.975 4.367 7.975 4.367 7.106 2.684 7.106 2.684 0"></polygon>
        </g>
        <g id="1002" transform="translate(136.498000, 34.882000)" fill="#10162F" fill-rule="nonzero">
            <path d="M2.387,0.143 C1.98,1.012 1.331,1.155 0,1.188 L0,1.881 L2.035,1.881 L2.035,7.249 L0,7.249 L0,8.118 L4.719,8.118 L4.719,7.249 L3.047,7.249 L3.047,0.143 L2.387,0.143 Z" id="Path"></path>
            <path d="M9.438,8.261 C11.451,8.261 12.232,6.567 12.232,4.092 C12.232,1.617 11.451,0 9.438,0 C7.425,0 6.655,1.617 6.655,4.092 C6.655,6.567 7.425,8.261 9.438,8.261 Z M7.678,4.092 C7.678,1.914 8.239,0.858 9.438,0.858 C10.395,0.858 10.956,1.54 11.132,2.926 L7.689,4.499 C7.678,4.367 7.678,4.235 7.678,4.092 Z M9.438,7.392 C8.492,7.392 7.942,6.699 7.755,5.335 L11.198,3.74 C11.209,3.861 11.209,3.971 11.209,4.092 C11.209,6.27 10.637,7.392 9.438,7.392 Z" id="Shape"></path>
            <path d="M16.544,8.261 C18.557,8.261 19.338,6.567 19.338,4.092 C19.338,1.617 18.557,0 16.544,0 C14.531,0 13.761,1.617 13.761,4.092 C13.761,6.567 14.531,8.261 16.544,8.261 Z M14.784,4.092 C14.784,1.914 15.345,0.858 16.544,0.858 C17.501,0.858 18.062,1.54 18.238,2.926 L14.795,4.499 C14.784,4.367 14.784,4.235 14.784,4.092 Z M16.544,7.392 C15.598,7.392 15.048,6.699 14.861,5.335 L18.304,3.74 C18.315,3.861 18.315,3.971 18.315,4.092 C18.315,6.27 17.743,7.392 16.544,7.392 Z" id="Shape"></path>
            <path d="M23.782,0 C22.165,0 21.109,1.155 21.131,2.673 L22.165,2.673 C22.187,1.364 22.946,0.858 23.771,0.858 C24.673,0.858 25.146,1.452 25.146,2.277 C25.146,3.674 23.661,5.17 20.988,7.249 L20.988,8.118 L26.367,8.118 L26.367,7.249 L22.407,7.249 C24.442,5.621 26.224,3.993 26.224,2.145 C26.224,0.792 25.179,0 23.782,0 Z" id="Path"></path>
        </g>
        <polygon id="Fill-7-Copy-24" fill="#FFF0E5" points="168 57 205 57 205 20 168 20"></polygon>
        <polygon id="Fill-7-Copy-23" fill="#F5FCFF" points="168 94 205 94 205 57 168 57"></polygon>
        <path d="M205.5,19.5 L167.5,19.5 L167.5,57.5 L205.5,57.5 L205.5,19.5 Z M204.5,20.5 L204.5,56.5 L168.5,56.5 L168.5,20.5 L204.5,20.5 Z" id="Fill-7-Copy-22" fill="#10162F" fill-rule="nonzero"></path>
        <path d="M205.5,56.5 L167.5,56.5 L167.5,94.5 L205.5,94.5 L205.5,56.5 Z M204.5,57.5 L204.5,93.5 L168.5,93.5 L168.5,57.5 L204.5,57.5 Z" id="Fill-7-Copy-21" fill="#10162F" fill-rule="nonzero"></path>
        <g id="l" transform="translate(184.355000, 72.025000)" fill="#10162F" fill-rule="nonzero">
            <polygon id="Path" points="0 0 0 0.858 1.672 0.858 1.672 7.106 0 7.106 0 7.975 4.367 7.975 4.367 7.106 2.684 7.106 2.684 0"></polygon>
        </g>
        <g id="1003" transform="translate(173.498000, 34.882000)" fill="#10162F" fill-rule="nonzero">
            <path d="M2.387,0.143 C1.98,1.012 1.331,1.155 0,1.188 L0,1.881 L2.035,1.881 L2.035,7.249 L0,7.249 L0,8.118 L4.719,8.118 L4.719,7.249 L3.047,7.249 L3.047,0.143 L2.387,0.143 Z" id="Path"></path>
            <path d="M9.438,8.261 C11.451,8.261 12.232,6.567 12.232,4.092 C12.232,1.617 11.451,0 9.438,0 C7.425,0 6.655,1.617 6.655,4.092 C6.655,6.567 7.425,8.261 9.438,8.261 Z M7.678,4.092 C7.678,1.914 8.239,0.858 9.438,0.858 C10.395,0.858 10.956,1.54 11.132,2.926 L7.689,4.499 C7.678,4.367 7.678,4.235 7.678,4.092 Z M9.438,7.392 C8.492,7.392 7.942,6.699 7.755,5.335 L11.198,3.74 C11.209,3.861 11.209,3.971 11.209,4.092 C11.209,6.27 10.637,7.392 9.438,7.392 Z" id="Shape"></path>
            <path d="M16.544,8.261 C18.557,8.261 19.338,6.567 19.338,4.092 C19.338,1.617 18.557,0 16.544,0 C14.531,0 13.761,1.617 13.761,4.092 C13.761,6.567 14.531,8.261 16.544,8.261 Z M14.784,4.092 C14.784,1.914 15.345,0.858 16.544,0.858 C17.501,0.858 18.062,1.54 18.238,2.926 L14.795,4.499 C14.784,4.367 14.784,4.235 14.784,4.092 Z M16.544,7.392 C15.598,7.392 15.048,6.699 14.861,5.335 L18.304,3.74 C18.315,3.861 18.315,3.971 18.315,4.092 C18.315,6.27 17.743,7.392 16.544,7.392 Z" id="Shape"></path>
            <path d="M23.628,7.392 C22.561,7.392 22.011,6.71 21.901,5.742 L20.878,5.742 C20.977,7.04 21.846,8.261 23.617,8.261 C25.025,8.261 26.411,7.458 26.411,5.874 C26.411,5.06 26.092,4.246 24.97,3.861 C25.773,3.531 26.213,2.827 26.213,2.013 C26.213,0.561 24.981,0 23.694,0 C22.132,0 21.098,0.99 20.988,2.398 L22.022,2.398 C22.099,1.507 22.649,0.858 23.661,0.858 C24.475,0.858 25.135,1.309 25.135,2.112 C25.135,3.036 24.431,3.465 23.122,3.465 L23.001,3.465 L23.001,4.356 L23.155,4.356 C24.376,4.356 25.333,4.763 25.333,5.885 C25.333,6.831 24.64,7.392 23.628,7.392 Z" id="Path"></path>
        </g>
        <polygon id="Fill-7-Copy-28" fill="#FFF0E5" points="205 57 242 57 242 20 205 20"></polygon>
        <polygon id="Fill-7-Copy-27" fill="#F5FCFF" points="205 94 242 94 242 57 205 57"></polygon>
        <path d="M242.5,19.5 L204.5,19.5 L204.5,57.5 L242.5,57.5 L242.5,19.5 Z M241.5,20.5 L241.5,56.5 L205.5,56.5 L205.5,20.5 L241.5,20.5 Z" id="Fill-7-Copy-26" fill="#10162F" fill-rule="nonzero"></path>
        <path d="M242.5,56.5 L204.5,56.5 L204.5,94.5 L242.5,94.5 L242.5,56.5 Z M241.5,57.5 L241.5,93.5 L205.5,93.5 L205.5,57.5 L241.5,57.5 Z" id="Fill-7-Copy-25" fill="#10162F" fill-rule="nonzero"></path>
        <g id="o" transform="translate(220.761000, 73.983000)" fill="#10162F" fill-rule="nonzero">
            <path d="M1.067,3.08 C1.067,1.507 1.837,0.847 2.739,0.847 C3.641,0.847 4.411,1.507 4.411,3.08 C4.411,4.653 3.641,5.313 2.739,5.313 C1.837,5.313 1.067,4.653 1.067,3.08 Z M0,3.08 C0,5.225 1.386,6.16 2.739,6.16 C4.092,6.16 5.478,5.225 5.478,3.08 C5.478,0.935 4.092,0 2.739,0 C1.386,0 0,0.935 0,3.08 Z" id="Shape"></path>
        </g>
        <g id="1004" transform="translate(210.498000, 34.882000)" fill="#10162F" fill-rule="nonzero">
            <path d="M2.387,0.143 C1.98,1.012 1.331,1.155 0,1.188 L0,1.881 L2.035,1.881 L2.035,7.249 L0,7.249 L0,8.118 L4.719,8.118 L4.719,7.249 L3.047,7.249 L3.047,0.143 L2.387,0.143 Z" id="Path"></path>
            <path d="M9.438,8.261 C11.451,8.261 12.232,6.567 12.232,4.092 C12.232,1.617 11.451,0 9.438,0 C7.425,0 6.655,1.617 6.655,4.092 C6.655,6.567 7.425,8.261 9.438,8.261 Z M7.678,4.092 C7.678,1.914 8.239,0.858 9.438,0.858 C10.395,0.858 10.956,1.54 11.132,2.926 L7.689,4.499 C7.678,4.367 7.678,4.235 7.678,4.092 Z M9.438,7.392 C8.492,7.392 7.942,6.699 7.755,5.335 L11.198,3.74 C11.209,3.861 11.209,3.971 11.209,4.092 C11.209,6.27 10.637,7.392 9.438,7.392 Z" id="Shape"></path>
            <path d="M16.544,8.261 C18.557,8.261 19.338,6.567 19.338,4.092 C19.338,1.617 18.557,0 16.544,0 C14.531,0 13.761,1.617 13.761,4.092 C13.761,6.567 14.531,8.261 16.544,8.261 Z M14.784,4.092 C14.784,1.914 15.345,0.858 16.544,0.858 C17.501,0.858 18.062,1.54 18.238,2.926 L14.795,4.499 C14.784,4.367 14.784,4.235 14.784,4.092 Z M16.544,7.392 C15.598,7.392 15.048,6.699 14.861,5.335 L18.304,3.74 C18.315,3.861 18.315,3.971 18.315,4.092 C18.315,6.27 17.743,7.392 16.544,7.392 Z" id="Shape"></path>
            <path d="M24.343,1.507 L24.343,5.203 L21.637,5.203 L24.343,1.507 Z M26.686,5.203 L25.355,5.203 L25.355,0.143 L24.332,0.143 L20.581,5.203 L20.581,6.149 L24.343,6.149 L24.343,8.118 L25.355,8.118 L25.355,6.149 L26.686,6.149 L26.686,5.203 Z" id="Shape"></path>
        </g>
        <polygon id="Fill-7-Copy-32" fill="#FFF0E5" points="242 57 279 57 279 20 242 20"></polygon>
        <polygon id="Fill-7-Copy-31" fill="#F5FCFF" points="242 94 279 94 279 57 242 57"></polygon>
        <path d="M279.5,19.5 L241.5,19.5 L241.5,57.5 L279.5,57.5 L279.5,19.5 Z M278.5,20.5 L278.5,56.5 L242.5,56.5 L242.5,20.5 L278.5,20.5 Z" id="Fill-7-Copy-30" fill="#10162F" fill-rule="nonzero"></path>
        <path d="M279.5,56.5 L241.5,56.5 L241.5,94.5 L279.5,94.5 L279.5,56.5 Z M278.5,57.5 L278.5,93.5 L242.5,93.5 L242.5,57.5 L278.5,57.5 Z" id="Fill-7-Copy-29" fill="#10162F" fill-rule="nonzero"></path>
        <g id="1005" transform="translate(247.498000, 34.882000)" fill="#10162F" fill-rule="nonzero">
            <path d="M2.387,0.143 C1.98,1.012 1.331,1.155 0,1.188 L0,1.881 L2.035,1.881 L2.035,7.249 L0,7.249 L0,8.118 L4.719,8.118 L4.719,7.249 L3.047,7.249 L3.047,0.143 L2.387,0.143 Z" id="Path"></path>
            <path d="M9.438,8.261 C11.451,8.261 12.232,6.567 12.232,4.092 C12.232,1.617 11.451,0 9.438,0 C7.425,0 6.655,1.617 6.655,4.092 C6.655,6.567 7.425,8.261 9.438,8.261 Z M7.678,4.092 C7.678,1.914 8.239,0.858 9.438,0.858 C10.395,0.858 10.956,1.54 11.132,2.926 L7.689,4.499 C7.678,4.367 7.678,4.235 7.678,4.092 Z M9.438,7.392 C8.492,7.392 7.942,6.699 7.755,5.335 L11.198,3.74 C11.209,3.861 11.209,3.971 11.209,4.092 C11.209,6.27 10.637,7.392 9.438,7.392 Z" id="Shape"></path>
            <path d="M16.544,8.261 C18.557,8.261 19.338,6.567 19.338,4.092 C19.338,1.617 18.557,0 16.544,0 C14.531,0 13.761,1.617 13.761,4.092 C13.761,6.567 14.531,8.261 16.544,8.261 Z M14.784,4.092 C14.784,1.914 15.345,0.858 16.544,0.858 C17.501,0.858 18.062,1.54 18.238,2.926 L14.795,4.499 C14.784,4.367 14.784,4.235 14.784,4.092 Z M16.544,7.392 C15.598,7.392 15.048,6.699 14.861,5.335 L18.304,3.74 C18.315,3.861 18.315,3.971 18.315,4.092 C18.315,6.27 17.743,7.392 16.544,7.392 Z" id="Shape"></path>
            <path d="M23.65,7.392 C22.583,7.392 22.033,6.71 21.923,5.742 L20.9,5.742 C20.999,7.04 21.868,8.261 23.639,8.261 C25.058,8.261 26.411,7.293 26.411,5.489 C26.411,3.762 25.179,2.794 23.859,2.794 C23.221,2.794 22.627,2.981 22.209,3.388 L22.495,1.001 L26.059,1.001 L26.059,0.143 L21.637,0.143 L21.12,4.466 L22.176,4.51 C22.341,4.125 22.869,3.674 23.628,3.674 C24.453,3.674 25.333,4.202 25.333,5.5 C25.333,6.71 24.563,7.392 23.65,7.392 Z" id="Path"></path>
        </g>
        <polygon id="Fill-7-Copy-36" fill="#FFF0E5" points="279 57 316 57 316 20 279 20"></polygon>
        <polygon id="Fill-7-Copy-35" fill="#F5FCFF" points="279 94 316 94 316 57 279 57"></polygon>
        <path d="M316.5,19.5 L278.5,19.5 L278.5,57.5 L316.5,57.5 L316.5,19.5 Z M315.5,20.5 L315.5,56.5 L279.5,56.5 L279.5,20.5 L315.5,20.5 Z" id="Fill-7-Copy-34" fill="#10162F" fill-rule="nonzero"></path>
        <path d="M316.5,56.5 L278.5,56.5 L278.5,94.5 L316.5,94.5 L316.5,56.5 Z M315.5,57.5 L315.5,93.5 L279.5,93.5 L279.5,57.5 L315.5,57.5 Z" id="Fill-7-Copy-33" fill="#10162F" fill-rule="nonzero"></path>
        <g id="W" transform="translate(294.420000, 72.025000)" fill="#10162F" fill-rule="nonzero">
            <polygon id="Path" points="3.641 2.431 2.508 2.431 1.628 6.457 1.045 0 0 0 0.792 7.975 2.156 7.975 3.08 3.817 4.004 7.975 5.357 7.975 6.16 0 5.115 0 4.521 6.457"></polygon>
        </g>
        <g id="1006" transform="translate(284.498000, 34.882000)" fill="#10162F" fill-rule="nonzero">
            <path d="M2.387,0.143 C1.98,1.012 1.331,1.155 0,1.188 L0,1.881 L2.035,1.881 L2.035,7.249 L0,7.249 L0,8.118 L4.719,8.118 L4.719,7.249 L3.047,7.249 L3.047,0.143 L2.387,0.143 Z" id="Path"></path>
            <path d="M9.438,8.261 C11.451,8.261 12.232,6.567 12.232,4.092 C12.232,1.617 11.451,0 9.438,0 C7.425,0 6.655,1.617 6.655,4.092 C6.655,6.567 7.425,8.261 9.438,8.261 Z M7.678,4.092 C7.678,1.914 8.239,0.858 9.438,0.858 C10.395,0.858 10.956,1.54 11.132,2.926 L7.689,4.499 C7.678,4.367 7.678,4.235 7.678,4.092 Z M9.438,7.392 C8.492,7.392 7.942,6.699 7.755,5.335 L11.198,3.74 C11.209,3.861 11.209,3.971 11.209,4.092 C11.209,6.27 10.637,7.392 9.438,7.392 Z" id="Shape"></path>
            <path d="M16.544,8.261 C18.557,8.261 19.338,6.567 19.338,4.092 C19.338,1.617 18.557,0 16.544,0 C14.531,0 13.761,1.617 13.761,4.092 C13.761,6.567 14.531,8.261 16.544,8.261 Z M14.784,4.092 C14.784,1.914 15.345,0.858 16.544,0.858 C17.501,0.858 18.062,1.54 18.238,2.926 L14.795,4.499 C14.784,4.367 14.784,4.235 14.784,4.092 Z M16.544,7.392 C15.598,7.392 15.048,6.699 14.861,5.335 L18.304,3.74 C18.315,3.861 18.315,3.971 18.315,4.092 C18.315,6.27 17.743,7.392 16.544,7.392 Z" id="Shape"></path>
            <path d="M22.044,5.566 C22.044,4.499 22.715,3.718 23.705,3.718 C24.673,3.718 25.355,4.499 25.355,5.566 C25.355,6.644 24.662,7.392 23.694,7.392 C22.693,7.392 22.044,6.655 22.044,5.566 Z M23.848,0.858 C24.574,0.858 25.091,1.265 25.212,1.969 L26.301,1.969 C26.147,0.979 25.388,0 23.903,0 C21.714,0 20.889,2.2 20.889,4.444 C20.889,6.864 21.813,8.261 23.705,8.261 C25.333,8.261 26.433,6.985 26.433,5.522 C26.433,3.938 25.344,2.816 23.936,2.816 C22.924,2.816 22.275,3.289 21.934,3.905 C21.978,2.09 22.627,0.858 23.848,0.858 Z" id="Shape"></path>
        </g>
        <polygon id="Fill-7-Copy-40" fill="#FFF0E5" points="316 57 353 57 353 20 316 20"></polygon>
        <polygon id="Fill-7-Copy-39" fill="#F5FCFF" points="316 94 353 94 353 57 316 57"></polygon>
        <path d="M353.5,19.5 L315.5,19.5 L315.5,57.5 L353.5,57.5 L353.5,19.5 Z M352.5,20.5 L352.5,56.5 L316.5,56.5 L316.5,20.5 L352.5,20.5 Z" id="Fill-7-Copy-38" fill="#10162F" fill-rule="nonzero"></path>
        <path d="M353.5,56.5 L315.5,56.5 L315.5,94.5 L353.5,94.5 L353.5,56.5 Z M352.5,57.5 L352.5,93.5 L316.5,93.5 L316.5,57.5 L352.5,57.5 Z" id="Fill-7-Copy-37" fill="#10162F" fill-rule="nonzero"></path>
        <g id="o" transform="translate(331.761000, 73.983000)" fill="#10162F" fill-rule="nonzero">
            <path d="M1.067,3.08 C1.067,1.507 1.837,0.847 2.739,0.847 C3.641,0.847 4.411,1.507 4.411,3.08 C4.411,4.653 3.641,5.313 2.739,5.313 C1.837,5.313 1.067,4.653 1.067,3.08 Z M0,3.08 C0,5.225 1.386,6.16 2.739,6.16 C4.092,6.16 5.478,5.225 5.478,3.08 C5.478,0.935 4.092,0 2.739,0 C1.386,0 0,0.935 0,3.08 Z" id="Shape"></path>
        </g>
        <g id="1007" transform="translate(321.498000, 34.882000)" fill="#10162F" fill-rule="nonzero">
            <path d="M2.387,0.143 C1.98,1.012 1.331,1.155 0,1.188 L0,1.881 L2.035,1.881 L2.035,7.249 L0,7.249 L0,8.118 L4.719,8.118 L4.719,7.249 L3.047,7.249 L3.047,0.143 L2.387,0.143 Z" id="Path"></path>
            <path d="M9.438,8.261 C11.451,8.261 12.232,6.567 12.232,4.092 C12.232,1.617 11.451,0 9.438,0 C7.425,0 6.655,1.617 6.655,4.092 C6.655,6.567 7.425,8.261 9.438,8.261 Z M7.678,4.092 C7.678,1.914 8.239,0.858 9.438,0.858 C10.395,0.858 10.956,1.54 11.132,2.926 L7.689,4.499 C7.678,4.367 7.678,4.235 7.678,4.092 Z M9.438,7.392 C8.492,7.392 7.942,6.699 7.755,5.335 L11.198,3.74 C11.209,3.861 11.209,3.971 11.209,4.092 C11.209,6.27 10.637,7.392 9.438,7.392 Z" id="Shape"></path>
            <path d="M16.544,8.261 C18.557,8.261 19.338,6.567 19.338,4.092 C19.338,1.617 18.557,0 16.544,0 C14.531,0 13.761,1.617 13.761,4.092 C13.761,6.567 14.531,8.261 16.544,8.261 Z M14.784,4.092 C14.784,1.914 15.345,0.858 16.544,0.858 C17.501,0.858 18.062,1.54 18.238,2.926 L14.795,4.499 C14.784,4.367 14.784,4.235 14.784,4.092 Z M16.544,7.392 C15.598,7.392 15.048,6.699 14.861,5.335 L18.304,3.74 C18.315,3.861 18.315,3.971 18.315,4.092 C18.315,6.27 17.743,7.392 16.544,7.392 Z" id="Shape"></path>
            <path d="M21.01,1.001 L25.377,1.001 C23.485,2.552 22.187,5.258 22.011,8.118 L23.166,8.118 C23.243,5.192 24.574,2.563 26.609,1.001 L26.609,0.143 L21.01,0.143 L21.01,1.001 Z" id="Path"></path>
        </g>
        <polygon id="Fill-7-Copy-44" fill="#FFF0E5" points="353 57 390 57 390 20 353 20"></polygon>
        <polygon id="Fill-7-Copy-43" fill="#F5FCFF" points="353 94 390 94 390 57 353 57"></polygon>
        <path d="M390.5,19.5 L352.5,19.5 L352.5,57.5 L390.5,57.5 L390.5,19.5 Z M389.5,20.5 L389.5,56.5 L353.5,56.5 L353.5,20.5 L389.5,20.5 Z" id="Fill-7-Copy-42" fill="#10162F" fill-rule="nonzero"></path>
        <path d="M390.5,56.5 L352.5,56.5 L352.5,94.5 L390.5,94.5 L390.5,56.5 Z M389.5,57.5 L389.5,93.5 L353.5,93.5 L353.5,57.5 L389.5,57.5 Z" id="Fill-7-Copy-41" fill="#10162F" fill-rule="nonzero"></path>
        <g id="r" transform="translate(368.893000, 74.082000)" fill="#10162F" fill-rule="nonzero">
            <path d="M0,0 L0,0.869 L1.683,0.869 L1.683,5.049 L0.011,5.049 L0.011,5.918 L4.719,5.918 L4.719,5.049 L2.695,5.049 L2.695,2.97 C2.695,1.672 3.135,0.924 4.268,0.924 L5.269,0.924 L5.269,0 L4.257,0 C3.531,0 2.959,0.396 2.673,1.056 L2.673,0 L0,0 Z" id="Path"></path>
        </g>
        <g id="1008" transform="translate(358.498000, 34.882000)" fill="#10162F" fill-rule="nonzero">
            <path d="M2.387,0.143 C1.98,1.012 1.331,1.155 0,1.188 L0,1.881 L2.035,1.881 L2.035,7.249 L0,7.249 L0,8.118 L4.719,8.118 L4.719,7.249 L3.047,7.249 L3.047,0.143 L2.387,0.143 Z" id="Path"></path>
            <path d="M9.438,8.261 C11.451,8.261 12.232,6.567 12.232,4.092 C12.232,1.617 11.451,0 9.438,0 C7.425,0 6.655,1.617 6.655,4.092 C6.655,6.567 7.425,8.261 9.438,8.261 Z M7.678,4.092 C7.678,1.914 8.239,0.858 9.438,0.858 C10.395,0.858 10.956,1.54 11.132,2.926 L7.689,4.499 C7.678,4.367 7.678,4.235 7.678,4.092 Z M9.438,7.392 C8.492,7.392 7.942,6.699 7.755,5.335 L11.198,3.74 C11.209,3.861 11.209,3.971 11.209,4.092 C11.209,6.27 10.637,7.392 9.438,7.392 Z" id="Shape"></path>
            <path d="M16.544,8.261 C18.557,8.261 19.338,6.567 19.338,4.092 C19.338,1.617 18.557,0 16.544,0 C14.531,0 13.761,1.617 13.761,4.092 C13.761,6.567 14.531,8.261 16.544,8.261 Z M14.784,4.092 C14.784,1.914 15.345,0.858 16.544,0.858 C17.501,0.858 18.062,1.54 18.238,2.926 L14.795,4.499 C14.784,4.367 14.784,4.235 14.784,4.092 Z M16.544,7.392 C15.598,7.392 15.048,6.699 14.861,5.335 L18.304,3.74 C18.315,3.861 18.315,3.971 18.315,4.092 C18.315,6.27 17.743,7.392 16.544,7.392 Z" id="Shape"></path>
            <path d="M23.661,0 C22.11,0 21.065,0.869 21.065,2.035 C21.065,2.673 21.362,3.443 22.121,3.861 C21.12,4.29 20.834,5.159 20.834,5.874 C20.834,7.37 22.099,8.261 23.661,8.261 C25.223,8.261 26.488,7.37 26.488,5.874 C26.488,5.159 26.191,4.29 25.201,3.861 C25.949,3.443 26.246,2.673 26.246,2.035 C26.246,0.869 25.212,0 23.661,0 Z M23.661,4.312 C24.728,4.312 25.41,4.95 25.41,5.874 C25.41,6.798 24.728,7.392 23.661,7.392 C22.594,7.392 21.901,6.798 21.901,5.874 C21.901,4.95 22.594,4.312 23.661,4.312 Z M25.234,2.134 C25.234,2.926 24.607,3.531 23.661,3.531 C22.715,3.531 22.088,2.926 22.088,2.134 C22.088,1.353 22.715,0.869 23.661,0.869 C24.607,0.869 25.234,1.32 25.234,2.134 Z" id="Shape"></path>
        </g>
        <polygon id="Fill-7-Copy-48" fill="#FFF0E5" points="390 57 427 57 427 20 390 20"></polygon>
        <polygon id="Fill-7-Copy-47" fill="#F5FCFF" points="390 94 427 94 427 57 390 57"></polygon>
        <path d="M427.5,19.5 L389.5,19.5 L389.5,57.5 L427.5,57.5 L427.5,19.5 Z M426.5,20.5 L426.5,56.5 L390.5,56.5 L390.5,20.5 L426.5,20.5 Z" id="Fill-7-Copy-46" fill="#10162F" fill-rule="nonzero"></path>
        <path d="M427.5,56.5 L389.5,56.5 L389.5,94.5 L427.5,94.5 L427.5,56.5 Z M426.5,57.5 L426.5,93.5 L390.5,93.5 L390.5,57.5 L426.5,57.5 Z" id="Fill-7-Copy-45" fill="#10162F" fill-rule="nonzero"></path>
        <g id="l" transform="translate(406.355000, 72.025000)" fill="#10162F" fill-rule="nonzero">
            <polygon id="Path" points="0 0 0 0.858 1.672 0.858 1.672 7.106 0 7.106 0 7.975 4.367 7.975 4.367 7.106 2.684 7.106 2.684 0"></polygon>
        </g>
        <g id="1009" transform="translate(395.498000, 34.882000)" fill="#10162F" fill-rule="nonzero">
            <path d="M2.387,0.143 C1.98,1.012 1.331,1.155 0,1.188 L0,1.881 L2.035,1.881 L2.035,7.249 L0,7.249 L0,8.118 L4.719,8.118 L4.719,7.249 L3.047,7.249 L3.047,0.143 L2.387,0.143 Z" id="Path"></path>
            <path d="M9.438,8.261 C11.451,8.261 12.232,6.567 12.232,4.092 C12.232,1.617 11.451,0 9.438,0 C7.425,0 6.655,1.617 6.655,4.092 C6.655,6.567 7.425,8.261 9.438,8.261 Z M7.678,4.092 C7.678,1.914 8.239,0.858 9.438,0.858 C10.395,0.858 10.956,1.54 11.132,2.926 L7.689,4.499 C7.678,4.367 7.678,4.235 7.678,4.092 Z M9.438,7.392 C8.492,7.392 7.942,6.699 7.755,5.335 L11.198,3.74 C11.209,3.861 11.209,3.971 11.209,4.092 C11.209,6.27 10.637,7.392 9.438,7.392 Z" id="Shape"></path>
            <path d="M16.544,8.261 C18.557,8.261 19.338,6.567 19.338,4.092 C19.338,1.617 18.557,0 16.544,0 C14.531,0 13.761,1.617 13.761,4.092 C13.761,6.567 14.531,8.261 16.544,8.261 Z M14.784,4.092 C14.784,1.914 15.345,0.858 16.544,0.858 C17.501,0.858 18.062,1.54 18.238,2.926 L14.795,4.499 C14.784,4.367 14.784,4.235 14.784,4.092 Z M16.544,7.392 C15.598,7.392 15.048,6.699 14.861,5.335 L18.304,3.74 C18.315,3.861 18.315,3.971 18.315,4.092 C18.315,6.27 17.743,7.392 16.544,7.392 Z" id="Shape"></path>
            <path d="M25.267,2.695 C25.267,3.762 24.607,4.532 23.606,4.532 C22.638,4.532 21.967,3.762 21.967,2.695 C21.967,1.617 22.638,0.858 23.628,0.858 C24.629,0.858 25.267,1.606 25.267,2.695 Z M23.485,7.392 C22.748,7.392 22.231,7.007 22.11,6.292 L21.01,6.292 C21.175,7.293 21.956,8.261 23.43,8.261 C25.619,8.261 26.433,6.05 26.433,3.817 C26.433,1.386 25.52,0 23.606,0 C21.945,0 20.889,1.276 20.889,2.739 C20.889,4.312 21.978,5.434 23.386,5.434 C24.387,5.434 25.047,4.961 25.388,4.345 C25.344,6.171 24.684,7.392 23.485,7.392 Z" id="Shape"></path>
        </g>
        <polygon id="Fill-7-Copy-52" fill="#FFF0E5" points="427 57 464 57 464 20 427 20"></polygon>
        <polygon id="Fill-7-Copy-51" fill="#F5FCFF" points="427 94 464 94 464 57 427 57"></polygon>
        <path d="M464.5,19.5 L426.5,19.5 L426.5,57.5 L464.5,57.5 L464.5,19.5 Z M463.5,20.5 L463.5,56.5 L427.5,56.5 L427.5,20.5 L463.5,20.5 Z" id="Fill-7-Copy-50" fill="#10162F" fill-rule="nonzero"></path>
        <path d="M464.5,56.5 L426.5,56.5 L426.5,94.5 L464.5,94.5 L464.5,56.5 Z M463.5,57.5 L463.5,93.5 L427.5,93.5 L427.5,57.5 L463.5,57.5 Z" id="Fill-7-Copy-49" fill="#10162F" fill-rule="nonzero"></path>
        <g id="d" transform="translate(442.695000, 72.025000)" fill="#10162F" fill-rule="nonzero">
            <path d="M4.136,2.948 C3.806,2.376 3.278,1.958 2.387,1.958 C1.023,1.958 0,3.091 0,5.038 C0,6.996 1.023,8.118 2.387,8.118 C3.278,8.118 3.806,7.7 4.136,7.139 L4.147,7.975 L5.148,7.975 L5.148,0 L4.136,0 L4.136,2.948 Z M4.18,5.038 C4.18,6.589 3.443,7.282 2.596,7.282 C1.584,7.282 1.067,6.446 1.067,5.038 C1.067,3.63 1.584,2.805 2.596,2.805 C3.443,2.805 4.18,3.476 4.18,5.038 Z" id="Shape"></path>
        </g>
        <g id="1010" transform="translate(432.498000, 34.882000)" fill="#10162F" fill-rule="nonzero">
            <path d="M2.387,0.143 C1.98,1.012 1.331,1.155 0,1.188 L0,1.881 L2.035,1.881 L2.035,7.249 L0,7.249 L0,8.118 L4.719,8.118 L4.719,7.249 L3.047,7.249 L3.047,0.143 L2.387,0.143 Z" id="Path"></path>
            <path d="M9.438,8.261 C11.451,8.261 12.232,6.567 12.232,4.092 C12.232,1.617 11.451,0 9.438,0 C7.425,0 6.655,1.617 6.655,4.092 C6.655,6.567 7.425,8.261 9.438,8.261 Z M7.678,4.092 C7.678,1.914 8.239,0.858 9.438,0.858 C10.395,0.858 10.956,1.54 11.132,2.926 L7.689,4.499 C7.678,4.367 7.678,4.235 7.678,4.092 Z M9.438,7.392 C8.492,7.392 7.942,6.699 7.755,5.335 L11.198,3.74 C11.209,3.861 11.209,3.971 11.209,4.092 C11.209,6.27 10.637,7.392 9.438,7.392 Z" id="Shape"></path>
            <path d="M16.599,0.143 C16.192,1.012 15.543,1.155 14.212,1.188 L14.212,1.881 L16.247,1.881 L16.247,7.249 L14.212,7.249 L14.212,8.118 L18.931,8.118 L18.931,7.249 L17.259,7.249 L17.259,0.143 L16.599,0.143 Z" id="Path"></path>
            <path d="M23.65,8.261 C25.663,8.261 26.444,6.567 26.444,4.092 C26.444,1.617 25.663,0 23.65,0 C21.637,0 20.867,1.617 20.867,4.092 C20.867,6.567 21.637,8.261 23.65,8.261 Z M21.89,4.092 C21.89,1.914 22.451,0.858 23.65,0.858 C24.607,0.858 25.168,1.54 25.344,2.926 L21.901,4.499 C21.89,4.367 21.89,4.235 21.89,4.092 Z M23.65,7.392 C22.704,7.392 22.154,6.699 21.967,5.335 L25.41,3.74 C25.421,3.861 25.421,3.971 25.421,4.092 C25.421,6.27 24.849,7.392 23.65,7.392 Z" id="Shape"></path>
        </g>
        <polygon id="Fill-7-Copy-56" fill="#FFF0E5" points="464 57 501 57 501 20 464 20"></polygon>
        <polygon id="Fill-7-Copy-55" fill="#F5FCFF" points="464 94 501 94 501 57 464 57"></polygon>
        <path d="M501.5,19.5 L463.5,19.5 L463.5,57.5 L501.5,57.5 L501.5,19.5 Z M500.5,20.5 L500.5,56.5 L464.5,56.5 L464.5,20.5 L500.5,20.5 Z" id="Fill-7-Copy-54" fill="#10162F" fill-rule="nonzero"></path>
        <path d="M501.5,56.5 L463.5,56.5 L463.5,94.5 L501.5,94.5 L501.5,56.5 Z M500.5,57.5 L500.5,93.5 L464.5,93.5 L464.5,57.5 L500.5,57.5 Z" id="Fill-7-Copy-53" fill="#10162F" fill-rule="nonzero"></path>
        <g id="\0" transform="translate(476.879000, 71.882000)" fill="#10162F" fill-rule="nonzero">
            <polygon id="Path" points="1.001 0.143 0 0.143 3.135 8.118 4.136 8.118"></polygon>
            <path d="M9.163,8.261 C11.176,8.261 11.957,6.567 11.957,4.092 C11.957,1.617 11.176,0 9.163,0 C7.15,0 6.38,1.617 6.38,4.092 C6.38,6.567 7.15,8.261 9.163,8.261 Z M7.403,4.092 C7.403,1.914 7.964,0.858 9.163,0.858 C10.12,0.858 10.681,1.54 10.857,2.926 L7.414,4.499 C7.403,4.367 7.403,4.235 7.403,4.092 Z M9.163,7.392 C8.217,7.392 7.667,6.699 7.48,5.335 L10.923,3.74 C10.934,3.861 10.934,3.971 10.934,4.092 C10.934,6.27 10.362,7.392 9.163,7.392 Z" id="Shape"></path>
        </g>
        <g id="1011" transform="translate(469.498000, 34.882000)" fill="#10162F" fill-rule="nonzero">
            <path d="M2.387,0.143 C1.98,1.012 1.331,1.155 0,1.188 L0,1.881 L2.035,1.881 L2.035,7.249 L0,7.249 L0,8.118 L4.719,8.118 L4.719,7.249 L3.047,7.249 L3.047,0.143 L2.387,0.143 Z" id="Path"></path>
            <path d="M9.438,8.261 C11.451,8.261 12.232,6.567 12.232,4.092 C12.232,1.617 11.451,0 9.438,0 C7.425,0 6.655,1.617 6.655,4.092 C6.655,6.567 7.425,8.261 9.438,8.261 Z M7.678,4.092 C7.678,1.914 8.239,0.858 9.438,0.858 C10.395,0.858 10.956,1.54 11.132,2.926 L7.689,4.499 C7.678,4.367 7.678,4.235 7.678,4.092 Z M9.438,7.392 C8.492,7.392 7.942,6.699 7.755,5.335 L11.198,3.74 C11.209,3.861 11.209,3.971 11.209,4.092 C11.209,6.27 10.637,7.392 9.438,7.392 Z" id="Shape"></path>
            <path d="M16.599,0.143 C16.192,1.012 15.543,1.155 14.212,1.188 L14.212,1.881 L16.247,1.881 L16.247,7.249 L14.212,7.249 L14.212,8.118 L18.931,8.118 L18.931,7.249 L17.259,7.249 L17.259,0.143 L16.599,0.143 Z" id="Path"></path>
            <path d="M23.705,0.143 C23.298,1.012 22.649,1.155 21.318,1.188 L21.318,1.881 L23.353,1.881 L23.353,7.249 L21.318,7.249 L21.318,8.118 L26.037,8.118 L26.037,7.249 L24.365,7.249 L24.365,0.143 L23.705,0.143 Z" id="Path"></path>
        </g>
    </g>
</svg>