<?xml version="1.0" encoding="UTF-8"?>
<svg width="521px" height="257px" viewBox="0 0 521 257" version="1.1" xmlns="http://www.w3.org/2000/svg" xmlns:xlink="http://www.w3.org/1999/xlink">
    <title>Two-by-Three Matrix</title>
    <g id="Two-by-Three-Matrix" stroke="none" stroke-width="1" fill="none" fill-rule="evenodd">
        <polygon id="Fill-7" fill="#F5FCFF" points="20 165.104964 140.209511 165.104964 140.209511 93 20 93"></polygon>
        <polygon id="Fill-7-Copy-7" fill="#FFF0E5" points="20.7805812 92.88511 140.990093 92.88511 140.990093 20.7801462 20.7805812 20.7801462"></polygon>
        <polygon id="Fill-7-Copy" fill="#F5FCFF" points="140 165.104964 260.209511 165.104964 260.209511 93 140 93"></polygon>
        <polygon id="Fill-7-Copy-4" fill="#FFF0E5" points="140 92.1049638 260.209511 92.1049638 260.209511 20 140 20"></polygon>
        <path d="M140.761466,92.3978408 L19.7719545,92.3978408 L19.7719545,165.282805 L140.761466,165.282805 L140.761466,92.3978408 Z M139.981,93.177 L139.981,164.502 L20.551,164.502 L20.551,93.177 L139.981,93.177 Z" id="Stroke-8" fill="#10162F" fill-rule="nonzero"></path>
        <path d="M260.970977,92.3978408 L139.981466,92.3978408 L139.981466,165.282805 L260.970977,165.282805 L260.970977,92.3978408 Z M260.19,93.177 L260.19,164.502 L140.761,164.502 L140.761,93.177 L260.19,93.177 Z" id="Stroke-8-Copy" fill="#10162F" fill-rule="nonzero"></path>
        <path d="M260.970977,19.8442431 L139.981466,19.8442431 L139.981466,92.7292069 L260.970977,92.7292069 L260.970977,19.8442431 Z M260.19,20.624 L260.19,91.949 L140.761,91.949 L140.761,20.624 L260.19,20.624 Z" id="Stroke-8-Copy-4" fill="#10162F" fill-rule="nonzero"></path>
        <path d="M140.761466,19.8442431 L19.7719545,19.8442431 L19.7719545,92.7292069 L140.761466,92.7292069 L140.761466,19.8442431 Z M139.981,20.624 L139.981,91.949 L20.551,91.949 L20.551,20.624 L139.981,20.624 Z" id="Stroke-8-Copy-7" fill="#10162F" fill-rule="nonzero"></path>
        <polygon id="Fill-16" fill="#FFFAE5" points="20 237.104964 140.209511 237.104964 140.209511 165 20 165"></polygon>
        <polygon id="Fill-16-Copy" fill="#FFFAE5" points="140 237.104964 260.209511 237.104964 260.209511 165 140 165"></polygon>
        <path d="M140.761466,164.951439 L19.7719545,164.951439 L19.7719545,237.836402 L140.761466,237.836402 L140.761466,164.951439 Z M139.981,165.731 L139.981,237.056 L20.551,237.056 L20.551,165.731 L139.981,165.731 Z" id="Stroke-17" fill="#10162F" fill-rule="nonzero"></path>
        <path d="M260.970977,164.951439 L139.981466,164.951439 L139.981466,237.836402 L260.970977,237.836402 L260.970977,164.951439 Z M260.19,165.731 L260.19,237.056 L140.761,237.056 L140.761,165.731 L260.19,165.731 Z" id="Stroke-17-Copy" fill="#10162F" fill-rule="nonzero"></path>
        <g id="ROW-0" transform="translate(60.228459, 124.214120)" fill="#10162F" fill-rule="nonzero">
            <path d="M4.93272,9.78588 L6.3648,9.78588 L4.32276,5.48964 C5.3703,5.15814 6.05982,4.41558 6.05982,2.9172 C6.05982,0.62322 4.4421,0.17238 2.34702,0.17238 L0,0.17238 L0,9.78588 L1.2597,9.78588 L1.2597,5.74158 L2.34702,5.74158 C2.5857,5.74158 2.82438,5.74158 3.0498,5.72832 L4.93272,9.78588 Z M2.49288,1.36578 C3.76584,1.36578 4.76034,1.4586 4.76034,2.94372 C4.76034,4.42884 3.76584,4.54818 2.49288,4.54818 L1.2597,4.54818 L1.2597,1.36578 L2.49288,1.36578 Z" id="Shape"></path>
            <path d="M11.4036,0 C9.00354,0 7.81014,2.06856 7.81014,4.9725 C7.81014,7.86318 9.00354,9.95826 11.4036,9.95826 C13.80366,9.95826 14.99706,7.86318 14.99706,4.9725 C14.99706,2.06856 13.80366,0 11.4036,0 Z M11.4036,1.16688 C12.9948,1.16688 13.69758,2.54592 13.69758,4.9725 C13.69758,7.39908 12.9948,8.79138 11.4036,8.79138 C9.82566,8.79138 9.10962,7.39908 9.10962,4.9725 C9.10962,2.54592 9.82566,1.16688 11.4036,1.16688 Z" id="Shape"></path>
            <polygon id="Path" points="20.64582 3.10284 19.28004 3.10284 18.21924 7.956 17.51646 0.17238 16.25676 0.17238 17.21148 9.78588 18.85572 9.78588 19.96956 4.7736 21.0834 9.78588 22.71438 9.78588 23.68236 0.17238 22.42266 0.17238 21.70662 7.956"></polygon>
            <path d="M37.08822,9.95826 C39.5148,9.95826 40.45626,7.91622 40.45626,4.93272 C40.45626,1.94922 39.5148,0 37.08822,0 C34.66164,0 33.73344,1.94922 33.73344,4.93272 C33.73344,7.91622 34.66164,9.95826 37.08822,9.95826 Z M34.96662,4.93272 C34.96662,2.30724 35.64288,1.03428 37.08822,1.03428 C38.24184,1.03428 38.9181,1.8564 39.13026,3.52716 L34.97988,5.42334 C34.96662,5.26422 34.96662,5.1051 34.96662,4.93272 Z M37.08822,8.91072 C35.94786,8.91072 35.28486,8.07534 35.05944,6.4311 L39.20982,4.5084 C39.22308,4.65426 39.22308,4.78686 39.22308,4.93272 C39.22308,7.5582 38.53356,8.91072 37.08822,8.91072 Z" id="Shape"></path>
        </g>
        <g id="1" transform="translate(197.690151, 124.386500)" fill="#10162F" fill-rule="nonzero">
            <path d="M2.87742,0 C2.3868,1.04754 1.60446,1.21992 0,1.2597 L0,2.09508 L2.4531,2.09508 L2.4531,8.56596 L0,8.56596 L0,9.6135 L5.68854,9.6135 L5.68854,8.56596 L3.67302,8.56596 L3.67302,0 L2.87742,0 Z" id="Path"></path>
        </g>
        <g id="COLUMN-0" transform="translate(166.982126, 51.200860)" fill="#10162F" fill-rule="nonzero">
            <path d="M5.52942,6.81564 C5.35704,7.96926 4.74708,8.80464 3.52716,8.80464 C2.0553,8.80464 1.29948,7.34604 1.29948,4.9725 C1.29948,2.5194 2.10834,1.18014 3.50064,1.18014 C4.72056,1.18014 5.31726,2.13486 5.47638,3.23544 L6.7626,3.23544 C6.44436,1.28622 5.19792,-5.68434189e-14 3.54042,-5.68434189e-14 C1.24644,-5.68434189e-14 0,1.989 0,4.9725 C0,7.8897 1.10058,9.97152 3.4476,9.97152 C5.18466,9.97152 6.45762,8.87094 6.78912,6.81564 L5.52942,6.81564 Z" id="Path"></path>
            <path d="M11.97378,0.01326 C9.57372,0.01326 8.38032,2.08182 8.38032,4.98576 C8.38032,7.87644 9.57372,9.97152 11.97378,9.97152 C14.37384,9.97152 15.56724,7.87644 15.56724,4.98576 C15.56724,2.08182 14.37384,0.01326 11.97378,0.01326 Z M11.97378,1.18014 C13.56498,1.18014 14.26776,2.55918 14.26776,4.98576 C14.26776,7.41234 13.56498,8.80464 11.97378,8.80464 C10.39584,8.80464 9.6798,7.41234 9.6798,4.98576 C9.6798,2.55918 10.39584,1.18014 11.97378,1.18014 Z" id="Shape"></path>
            <polygon id="Path" points="19.17396 0.18564 17.91426 0.18564 17.91426 9.79914 23.89452 9.79914 23.89452 8.60574 19.17396 8.60574"></polygon>
            <path d="M25.87026,0.18564 L25.87026,5.88744 C25.87026,8.8842 26.69238,9.97152 29.09244,9.97152 C31.59858,9.97152 32.34114,8.59248 32.34114,5.78136 L32.34114,0.18564 L31.08144,0.18564 L31.08144,5.88744 C31.08144,7.78362 30.74994,8.80464 29.09244,8.80464 C27.46146,8.80464 27.12996,7.91622 27.12996,6.0333 L27.12996,0.18564 L25.87026,0.18564 Z" id="Path"></path>
            <polygon id="Path" points="38.30814 6.48414 39.7137 1.41882 39.7137 9.79914 40.9734 9.79914 40.9734 0.18564 38.99766 0.18564 37.67166 5.1051 36.34566 0.18564 34.36992 0.18564 34.36992 9.79914 35.62962 9.79914 35.62962 1.41882 37.03518 6.48414"></polygon>
            <polygon id="Path" points="49.34046 9.79914 49.34046 0.18564 48.08076 0.18564 48.08076 8.36706 45.00444 0.18564 43.12152 0.18564 43.12152 9.79914 44.38122 9.79914 44.38122 1.5912 47.45754 9.79914"></polygon>
            <path d="M63.35628,9.97152 C65.78286,9.97152 66.72432,7.92948 66.72432,4.94598 C66.72432,1.96248 65.78286,0.01326 63.35628,0.01326 C60.9297,0.01326 60.0015,1.96248 60.0015,4.94598 C60.0015,7.92948 60.9297,9.97152 63.35628,9.97152 Z M61.23468,4.94598 C61.23468,2.3205 61.91094,1.04754 63.35628,1.04754 C64.5099,1.04754 65.18616,1.86966 65.39832,3.54042 L61.24794,5.4366 C61.23468,5.27748 61.23468,5.11836 61.23468,4.94598 Z M63.35628,8.92398 C62.21592,8.92398 61.55292,8.0886 61.3275,6.44436 L65.47788,4.52166 C65.49114,4.66752 65.49114,4.80012 65.49114,4.94598 C65.49114,7.57146 64.80162,8.92398 63.35628,8.92398 Z" id="Shape"></path>
        </g>
        <g id="ROW-1" transform="translate(59.911946, 196.214120)" fill="#10162F" fill-rule="nonzero">
            <path d="M4.93272,9.78588 L6.3648,9.78588 L4.32276,5.48964 C5.3703,5.15814 6.05982,4.41558 6.05982,2.9172 C6.05982,0.62322 4.4421,0.17238 2.34702,0.17238 L0,0.17238 L0,9.78588 L1.2597,9.78588 L1.2597,5.74158 L2.34702,5.74158 C2.5857,5.74158 2.82438,5.74158 3.0498,5.72832 L4.93272,9.78588 Z M2.49288,1.36578 C3.76584,1.36578 4.76034,1.4586 4.76034,2.94372 C4.76034,4.42884 3.76584,4.54818 2.49288,4.54818 L1.2597,4.54818 L1.2597,1.36578 L2.49288,1.36578 Z" id="Shape"></path>
            <path d="M11.4036,0 C9.00354,0 7.81014,2.06856 7.81014,4.9725 C7.81014,7.86318 9.00354,9.95826 11.4036,9.95826 C13.80366,9.95826 14.99706,7.86318 14.99706,4.9725 C14.99706,2.06856 13.80366,0 11.4036,0 Z M11.4036,1.16688 C12.9948,1.16688 13.69758,2.54592 13.69758,4.9725 C13.69758,7.39908 12.9948,8.79138 11.4036,8.79138 C9.82566,8.79138 9.10962,7.39908 9.10962,4.9725 C9.10962,2.54592 9.82566,1.16688 11.4036,1.16688 Z" id="Shape"></path>
            <polygon id="Path" points="20.64582 3.10284 19.28004 3.10284 18.21924 7.956 17.51646 0.17238 16.25676 0.17238 17.21148 9.78588 18.85572 9.78588 19.96956 4.7736 21.0834 9.78588 22.71438 9.78588 23.68236 0.17238 22.42266 0.17238 21.70662 7.956"></polygon>
            <path d="M37.15452,0.17238 C36.6639,1.21992 35.88156,1.3923 34.2771,1.43208 L34.2771,2.26746 L36.7302,2.26746 L36.7302,8.73834 L34.2771,8.73834 L34.2771,9.78588 L39.96564,9.78588 L39.96564,8.73834 L37.95012,8.73834 L37.95012,0.17238 L37.15452,0.17238 Z" id="Path"></path>
        </g>
        <g id="5" transform="translate(197.186271, 196.386500)" fill="#10162F" fill-rule="nonzero">
            <path d="M3.315,8.73834 C2.02878,8.73834 1.36578,7.91622 1.23318,6.74934 L0,6.74934 C0.11934,8.31402 1.16688,9.78588 3.30174,9.78588 C5.01228,9.78588 6.64326,8.619 6.64326,6.44436 C6.64326,4.36254 5.15814,3.19566 3.56694,3.19566 C2.79786,3.19566 2.08182,3.42108 1.57794,3.9117 L1.9227,1.03428 L6.21894,1.03428 L6.21894,0 L0.88842,0 L0.2652,5.21118 L1.53816,5.26422 C1.73706,4.80012 2.37354,4.25646 3.28848,4.25646 C4.28298,4.25646 5.34378,4.89294 5.34378,6.45762 C5.34378,7.91622 4.41558,8.73834 3.315,8.73834 Z" id="Path"></path>
        </g>
        <polygon id="Fill-7-Copy-2" fill="#F5FCFF" points="260 165.104964 380.209511 165.104964 380.209511 93 260 93"></polygon>
        <polygon id="Fill-7-Copy-5" fill="#FFF0E5" points="260.419023 92.1049638 380.628534 92.1049638 380.628534 20 260.419023 20"></polygon>
        <path d="M381.180489,92.3978408 L260.190977,92.3978408 L260.190977,165.282805 L381.180489,165.282805 L381.180489,92.3978408 Z M380.4,93.177 L380.4,164.502 L260.97,164.502 L260.97,93.177 L380.4,93.177 Z" id="Stroke-8-Copy-2" fill="#10162F" fill-rule="nonzero"></path>
        <path d="M381.180489,19.8442431 L260.190977,19.8442431 L260.190977,92.7292069 L381.180489,92.7292069 L381.180489,19.8442431 Z M380.4,20.624 L380.4,91.949 L260.97,91.949 L260.97,20.624 L380.4,20.624 Z" id="Stroke-8-Copy-5" fill="#10162F" fill-rule="nonzero"></path>
        <polygon id="Fill-16-Copy-2" fill="#FFFAE5" points="260 237.104964 380.209511 237.104964 380.209511 165 260 165"></polygon>
        <path d="M381.180489,164.951439 L260.190977,164.951439 L260.190977,237.836402 L381.180489,237.836402 L381.180489,164.951439 Z M380.4,165.731 L380.4,237.056 L260.97,237.056 L260.97,165.731 L380.4,165.731 Z" id="Stroke-17-Copy-2" fill="#10162F" fill-rule="nonzero"></path>
        <g id="6" transform="translate(316.856499, 124.214120)" fill="#10162F" fill-rule="nonzero">
            <path d="M1.3923,6.70956 C1.3923,5.42334 2.20116,4.48188 3.39456,4.48188 C4.56144,4.48188 5.38356,5.42334 5.38356,6.70956 C5.38356,8.00904 4.54818,8.91072 3.3813,8.91072 C2.17464,8.91072 1.3923,8.0223 1.3923,6.70956 Z M3.56694,1.03428 C4.4421,1.03428 5.06532,1.5249 5.21118,2.37354 L6.52392,2.37354 C6.33828,1.18014 5.42334,0 3.63324,0 C0.9945,0 0,2.652 0,5.35704 C0,8.27424 1.11384,9.95826 3.39456,9.95826 C5.35704,9.95826 6.68304,8.4201 6.68304,6.65652 C6.68304,4.74708 5.3703,3.39456 3.67302,3.39456 C2.4531,3.39456 1.67076,3.96474 1.2597,4.7073 C1.31274,2.5194 2.09508,1.03428 3.56694,1.03428 Z" id="Shape"></path>
        </g>
        <g id="COLUMN-1" transform="translate(287.135098, 51.287717)" fill="#10162F" fill-rule="nonzero">
            <path d="M5.52942,6.81564 C5.35704,7.96926 4.74708,8.80464 3.52716,8.80464 C2.0553,8.80464 1.29948,7.34604 1.29948,4.9725 C1.29948,2.5194 2.10834,1.18014 3.50064,1.18014 C4.72056,1.18014 5.31726,2.13486 5.47638,3.23544 L6.7626,3.23544 C6.44436,1.28622 5.19792,-5.68434189e-14 3.54042,-5.68434189e-14 C1.24644,-5.68434189e-14 0,1.989 0,4.9725 C0,7.8897 1.10058,9.97152 3.4476,9.97152 C5.18466,9.97152 6.45762,8.87094 6.78912,6.81564 L5.52942,6.81564 Z" id="Path"></path>
            <path d="M11.97378,0.01326 C9.57372,0.01326 8.38032,2.08182 8.38032,4.98576 C8.38032,7.87644 9.57372,9.97152 11.97378,9.97152 C14.37384,9.97152 15.56724,7.87644 15.56724,4.98576 C15.56724,2.08182 14.37384,0.01326 11.97378,0.01326 Z M11.97378,1.18014 C13.56498,1.18014 14.26776,2.55918 14.26776,4.98576 C14.26776,7.41234 13.56498,8.80464 11.97378,8.80464 C10.39584,8.80464 9.6798,7.41234 9.6798,4.98576 C9.6798,2.55918 10.39584,1.18014 11.97378,1.18014 Z" id="Shape"></path>
            <polygon id="Path" points="19.17396 0.18564 17.91426 0.18564 17.91426 9.79914 23.89452 9.79914 23.89452 8.60574 19.17396 8.60574"></polygon>
            <path d="M25.87026,0.18564 L25.87026,5.88744 C25.87026,8.8842 26.69238,9.97152 29.09244,9.97152 C31.59858,9.97152 32.34114,8.59248 32.34114,5.78136 L32.34114,0.18564 L31.08144,0.18564 L31.08144,5.88744 C31.08144,7.78362 30.74994,8.80464 29.09244,8.80464 C27.46146,8.80464 27.12996,7.91622 27.12996,6.0333 L27.12996,0.18564 L25.87026,0.18564 Z" id="Path"></path>
            <polygon id="Path" points="38.30814 6.48414 39.7137 1.41882 39.7137 9.79914 40.9734 9.79914 40.9734 0.18564 38.99766 0.18564 37.67166 5.1051 36.34566 0.18564 34.36992 0.18564 34.36992 9.79914 35.62962 9.79914 35.62962 1.41882 37.03518 6.48414"></polygon>
            <polygon id="Path" points="49.34046 9.79914 49.34046 0.18564 48.08076 0.18564 48.08076 8.36706 45.00444 0.18564 43.12152 0.18564 43.12152 9.79914 44.38122 9.79914 44.38122 1.5912 47.45754 9.79914"></polygon>
            <path d="M63.42258,0.18564 C62.93196,1.23318 62.14962,1.40556 60.54516,1.44534 L60.54516,2.28072 L62.99826,2.28072 L62.99826,8.7516 L60.54516,8.7516 L60.54516,9.79914 L66.2337,9.79914 L66.2337,8.7516 L64.21818,8.7516 L64.21818,0.18564 L63.42258,0.18564 Z" id="Path"></path>
        </g>
        <g id="9" transform="translate(316.856499, 196.214120)" fill="#10162F" fill-rule="nonzero">
            <path d="M5.27748,3.2487 C5.27748,4.53492 4.48188,5.46312 3.27522,5.46312 C2.10834,5.46312 1.29948,4.53492 1.29948,3.2487 C1.29948,1.94922 2.10834,1.03428 3.30174,1.03428 C4.5084,1.03428 5.27748,1.93596 5.27748,3.2487 Z M3.12936,8.91072 C2.24094,8.91072 1.61772,8.44662 1.47186,7.58472 L0.14586,7.58472 C0.34476,8.79138 1.28622,9.95826 3.06306,9.95826 C5.7018,9.95826 6.68304,7.293 6.68304,4.60122 C6.68304,1.67076 5.58246,0 3.27522,0 C1.27296,0 0,1.53816 0,3.30174 C0,5.19792 1.31274,6.55044 3.01002,6.55044 C4.21668,6.55044 5.01228,5.98026 5.42334,5.2377 C5.3703,7.43886 4.5747,8.91072 3.12936,8.91072 Z" id="Shape"></path>
        </g>
        <polygon id="Fill-7-Copy-3" fill="#F5FCFF" points="381 165.104964 501.209511 165.104964 501.209511 93 381 93"></polygon>
        <polygon id="Fill-7-Copy-6" fill="#FFF0E5" points="381 92.1049638 501.209511 92.1049638 501.209511 20 381 20"></polygon>
        <path d="M501.39,92.3978408 L380.400489,92.3978408 L380.400489,165.282805 L501.39,165.282805 L501.39,92.3978408 Z M500.61,93.177 L500.61,164.502 L381.18,164.502 L381.18,93.177 L500.61,93.177 Z" id="Stroke-8-Copy-3" fill="#10162F" fill-rule="nonzero"></path>
        <path d="M501.39,19.8442431 L380.400489,19.8442431 L380.400489,92.7292069 L501.39,92.7292069 L501.39,19.8442431 Z M500.61,20.624 L500.61,91.949 L381.18,91.949 L381.18,20.624 L500.61,20.624 Z" id="Stroke-8-Copy-6" fill="#10162F" fill-rule="nonzero"></path>
        <polygon id="Fill-16-Copy-3" fill="#FFFAE5" points="381 237.104964 501.209511 237.104964 501.209511 165 381 165"></polygon>
        <path d="M501.39,164.951439 L380.400489,164.951439 L380.400489,237.836402 L501.39,237.836402 L501.39,164.951439 Z M500.61,165.731 L500.61,237.056 L381.18,237.056 L381.18,165.731 L500.61,165.731 Z" id="Stroke-17-Copy-3" fill="#10162F" fill-rule="nonzero"></path>
        <g id="3" transform="translate(437.159751, 124.214120)" fill="#10162F" fill-rule="nonzero">
            <path d="M3.315,8.91072 C2.02878,8.91072 1.36578,8.0886 1.23318,6.92172 L0,6.92172 C0.11934,8.4864 1.16688,9.95826 3.30174,9.95826 C4.99902,9.95826 6.66978,8.99028 6.66978,7.08084 C6.66978,6.0996 6.28524,5.11836 4.93272,4.65426 C5.9007,4.25646 6.4311,3.40782 6.4311,2.42658 C6.4311,0.67626 4.94598,0 3.39456,0 C1.51164,0 0.2652,1.1934 0.1326,2.89068 L1.37904,2.89068 C1.47186,1.81662 2.13486,1.03428 3.35478,1.03428 C4.33602,1.03428 5.13162,1.57794 5.13162,2.54592 C5.13162,3.65976 4.28298,4.1769 2.70504,4.1769 L2.55918,4.1769 L2.55918,5.25096 L2.74482,5.25096 C4.21668,5.25096 5.3703,5.74158 5.3703,7.0941 C5.3703,8.23446 4.53492,8.91072 3.315,8.91072 Z" id="Path"></path>
        </g>
        <g id="COLUMN-2" transform="translate(407.762707, 51.200860)" fill="#10162F" fill-rule="nonzero">
            <path d="M5.52942,6.81564 C5.35704,7.96926 4.74708,8.80464 3.52716,8.80464 C2.0553,8.80464 1.29948,7.34604 1.29948,4.9725 C1.29948,2.5194 2.10834,1.18014 3.50064,1.18014 C4.72056,1.18014 5.31726,2.13486 5.47638,3.23544 L6.7626,3.23544 C6.44436,1.28622 5.19792,-5.68434189e-14 3.54042,-5.68434189e-14 C1.24644,-5.68434189e-14 0,1.989 0,4.9725 C0,7.8897 1.10058,9.97152 3.4476,9.97152 C5.18466,9.97152 6.45762,8.87094 6.78912,6.81564 L5.52942,6.81564 Z" id="Path"></path>
            <path d="M11.97378,0.01326 C9.57372,0.01326 8.38032,2.08182 8.38032,4.98576 C8.38032,7.87644 9.57372,9.97152 11.97378,9.97152 C14.37384,9.97152 15.56724,7.87644 15.56724,4.98576 C15.56724,2.08182 14.37384,0.01326 11.97378,0.01326 Z M11.97378,1.18014 C13.56498,1.18014 14.26776,2.55918 14.26776,4.98576 C14.26776,7.41234 13.56498,8.80464 11.97378,8.80464 C10.39584,8.80464 9.6798,7.41234 9.6798,4.98576 C9.6798,2.55918 10.39584,1.18014 11.97378,1.18014 Z" id="Shape"></path>
            <polygon id="Path" points="19.17396 0.18564 17.91426 0.18564 17.91426 9.79914 23.89452 9.79914 23.89452 8.60574 19.17396 8.60574"></polygon>
            <path d="M25.87026,0.18564 L25.87026,5.88744 C25.87026,8.8842 26.69238,9.97152 29.09244,9.97152 C31.59858,9.97152 32.34114,8.59248 32.34114,5.78136 L32.34114,0.18564 L31.08144,0.18564 L31.08144,5.88744 C31.08144,7.78362 30.74994,8.80464 29.09244,8.80464 C27.46146,8.80464 27.12996,7.91622 27.12996,6.0333 L27.12996,0.18564 L25.87026,0.18564 Z" id="Path"></path>
            <polygon id="Path" points="38.30814 6.48414 39.7137 1.41882 39.7137 9.79914 40.9734 9.79914 40.9734 0.18564 38.99766 0.18564 37.67166 5.1051 36.34566 0.18564 34.36992 0.18564 34.36992 9.79914 35.62962 9.79914 35.62962 1.41882 37.03518 6.48414"></polygon>
            <polygon id="Path" points="49.34046 9.79914 49.34046 0.18564 48.08076 0.18564 48.08076 8.36706 45.00444 0.18564 43.12152 0.18564 43.12152 9.79914 44.38122 9.79914 44.38122 1.5912 47.45754 9.79914"></polygon>
            <path d="M63.5154,0.01326 C61.56618,0.01326 60.29322,1.40556 60.31974,3.23544 L61.56618,3.23544 C61.5927,1.6575 62.50764,1.04754 63.50214,1.04754 C64.58946,1.04754 65.15964,1.76358 65.15964,2.75808 C65.15964,4.4421 63.36954,6.24546 60.14736,8.7516 L60.14736,9.79914 L66.6315,9.79914 L66.6315,8.7516 L61.8579,8.7516 C64.311,6.78912 66.45912,4.82664 66.45912,2.59896 C66.45912,0.96798 65.19942,0.01326 63.5154,0.01326 Z" id="Path"></path>
        </g>
        <g id="2" transform="translate(437.292351, 196.214120)" fill="#10162F" fill-rule="nonzero">
            <path d="M3.36804,2.84217094e-14 C1.41882,2.84217094e-14 0.14586,1.3923 0.17238,3.22218 L1.41882,3.22218 C1.44534,1.64424 2.36028,1.03428 3.35478,1.03428 C4.4421,1.03428 5.01228,1.75032 5.01228,2.74482 C5.01228,4.42884 3.22218,6.2322 0,8.73834 L0,9.78588 L6.48414,9.78588 L6.48414,8.73834 L1.71054,8.73834 C4.16364,6.77586 6.31176,4.81338 6.31176,2.5857 C6.31176,0.95472 5.05206,2.84217094e-14 3.36804,2.84217094e-14 Z" id="Path"></path>
        </g>
    </g>
</svg>