<?xml version="1.0" encoding="UTF-8"?>
<svg width="1200px" height="800px" viewBox="0 0 1200 800" version="1.1" xmlns="http://www.w3.org/2000/svg" xmlns:xlink="http://www.w3.org/1999/xlink">
    <title>Introfunction</title>
    <g id="Introfunction" stroke="none" stroke-width="1" fill="none" fill-rule="evenodd">
        <rect id="Rectangle" fill="#008A27" x="434" y="272" width="332" height="256"></rect>
        <g id="makeCookie()" transform="translate(508.896000, 298.264000)" fill="#000000" fill-rule="nonzero">
            <path d="M6.48,6.24 C6.192,5.376 5.64,4.608 4.464,4.608 C3.24,4.608 2.544,5.352 2.112,6.192 L2.112,4.824 L0,4.824 L0,17.736 L2.208,17.736 L2.208,10.464 C2.208,7.776 2.544,6.456 3.672,6.456 C4.752,6.456 4.752,7.896 4.752,9.768 L4.752,17.736 L6.96,17.736 L6.96,10.416 C6.96,7.752 7.296,6.456 8.4,6.456 C9.504,6.456 9.504,7.896 9.504,9.768 L9.504,17.736 L11.712,17.736 L11.712,8.64 C11.712,5.232 10.392,4.608 9.048,4.608 C7.872,4.608 7.032,5.232 6.48,6.24 Z" id="Path"></path>
            <path d="M20.04,18.048 C22.44,18.048 23.784,17.184 24.576,15.84 L24.6,17.736 L26.712,17.736 C26.64,16.872 26.52,15.024 26.544,12.864 L26.568,9.72 C26.616,6.144 25.08,4.56 21.504,4.56 C18.816,4.56 16.368,6.12 16.152,8.904 L18.408,8.904 C18.552,7.32 19.488,6.336 21.48,6.336 C23.16,6.336 24.384,7.008 24.384,9.24 L24.384,9.792 C19.104,10.368 15.84,11.304 15.84,14.376 C15.84,16.704 17.712,18.048 20.04,18.048 Z M24.552,11.904 C24.552,15.336 22.632,16.272 20.664,16.272 C19.104,16.272 18.216,15.552 18.216,14.328 C18.216,12.48 20.616,11.928 24.552,11.544 L24.552,11.904 Z" id="Shape"></path>
            <polygon id="Path" points="31.992 0.336 31.992 17.736 34.2 17.736 34.2 13.272 36.192 11.304 40.728 17.736 43.248 17.736 37.68 9.84 42.744 4.824 39.912 4.824 34.2 10.704 34.2 0.336"></polygon>
            <path d="M52.416,18.048 C55.44,18.048 57.456,16.32 57.984,13.872 L55.704,13.872 C55.248,15.336 54.288,16.248 52.368,16.248 C50.328,16.248 48.888,14.544 48.888,11.952 L58.176,11.952 C58.344,7.344 56.184,4.584 52.416,4.584 C49.008,4.584 46.56,7.176 46.56,11.328 C46.56,15.144 48.504,18.048 52.416,18.048 Z M52.416,6.408 C54.672,6.408 55.848,8.016 55.824,10.128 L48.912,10.128 C49.008,7.632 50.328,6.408 52.416,6.408 Z" id="Shape"></path>
            <path d="M71.688,12.336 C71.376,14.424 70.272,15.936 68.064,15.936 C65.4,15.936 64.032,13.296 64.032,9 C64.032,4.56 65.496,2.136 68.016,2.136 C70.224,2.136 71.304,3.864 71.592,5.856 L73.92,5.856 C73.344,2.328 71.088,0 68.088,0 C63.936,0 61.68,3.6 61.68,9 C61.68,14.28 63.672,18.048 67.92,18.048 C71.064,18.048 73.368,16.056 73.968,12.336 L71.688,12.336 Z" id="Path"></path>
            <path d="M79.704,11.328 C79.704,7.896 81.384,6.456 83.352,6.456 C85.32,6.456 87,7.896 87,11.328 C87,14.76 85.32,16.2 83.352,16.2 C81.384,16.2 79.704,14.76 79.704,11.328 Z M77.376,11.328 C77.376,16.008 80.4,18.048 83.352,18.048 C86.304,18.048 89.328,16.008 89.328,11.328 C89.328,6.648 86.304,4.608 83.352,4.608 C80.4,4.608 77.376,6.648 77.376,11.328 Z" id="Shape"></path>
            <path d="M95.208,11.328 C95.208,7.896 96.888,6.456 98.856,6.456 C100.824,6.456 102.504,7.896 102.504,11.328 C102.504,14.76 100.824,16.2 98.856,16.2 C96.888,16.2 95.208,14.76 95.208,11.328 Z M92.88,11.328 C92.88,16.008 95.904,18.048 98.856,18.048 C101.808,18.048 104.832,16.008 104.832,11.328 C104.832,6.648 101.808,4.608 98.856,4.608 C95.904,4.608 92.88,6.648 92.88,11.328 Z" id="Shape"></path>
            <polygon id="Path" points="109.512 0.336 109.512 17.736 111.72 17.736 111.72 13.272 113.712 11.304 118.248 17.736 120.768 17.736 115.2 9.84 120.264 4.824 117.432 4.824 111.72 10.704 111.72 0.336"></polygon>
            <path d="M128.976,0.336 L128.976,2.952 L131.184,2.952 L131.184,0.336 L128.976,0.336 Z M125.328,4.824 L125.328,6.72 L128.976,6.72 L128.976,15.84 L125.328,15.84 L125.328,17.736 L134.856,17.736 L134.856,15.84 L131.184,15.84 L131.184,4.824 L125.328,4.824 Z" id="Shape"></path>
            <path d="M145.44,18.048 C148.464,18.048 150.48,16.32 151.008,13.872 L148.728,13.872 C148.272,15.336 147.312,16.248 145.392,16.248 C143.352,16.248 141.912,14.544 141.912,11.952 L151.2,11.952 C151.368,7.344 149.208,4.584 145.44,4.584 C142.032,4.584 139.584,7.176 139.584,11.328 C139.584,15.144 141.528,18.048 145.44,18.048 Z M145.44,6.408 C147.696,6.408 148.872,8.016 148.848,10.128 L141.936,10.128 C142.032,7.632 143.352,6.408 145.44,6.408 Z" id="Shape"></path>
            <path d="M158.304,11.136 C158.304,15.984 160.152,19.848 161.592,21.936 L163.416,21.936 C161.832,19.368 160.536,15.648 160.536,11.136 C160.536,6.624 161.832,2.904 163.416,0.336 L161.592,0.336 C160.152,2.424 158.304,6.288 158.304,11.136 Z" id="Path"></path>
            <path d="M178.944,11.136 C178.944,6.288 177.072,2.424 175.632,0.336 L173.832,0.336 C175.392,2.904 176.688,6.624 176.688,11.136 C176.688,15.648 175.392,19.368 173.832,21.936 L175.632,21.936 C177.072,19.848 178.944,15.984 178.944,11.136 Z" id="Path"></path>
        </g>
        <g id="Butter" transform="translate(201.592000, 516.400000)" fill="#000000" fill-rule="nonzero">
            <path d="M0,11.6 L3.776,11.6 C5.856,11.6 7.664,10.624 7.664,8.16 C7.664,6.736 7.072,5.872 6.08,5.408 C6.816,4.944 7.232,3.968 7.232,2.864 C7.232,0.56 5.36,0 3.424,0 L0,0 L0,11.6 Z M1.52,6.288 L3.792,6.288 C5.36,6.288 6.096,6.816 6.096,8.176 C6.096,9.488 5.36,10.16 3.904,10.16 L1.52,10.16 L1.52,6.288 Z M1.52,1.44 L3.744,1.44 C4.912,1.44 5.712,1.904 5.712,3.088 C5.712,4.448 4.944,4.928 3.744,4.928 L1.52,4.928 L1.52,1.44 Z" id="Shape"></path>
            <path d="M15.76,11.6 L17.232,11.6 L17.232,2.992 L15.76,2.992 L15.76,7.728 C15.76,9.568 15.04,10.544 13.712,10.544 C12.112,10.544 12.032,9.408 12.032,8.016 L12.032,2.992 L10.56,2.992 L10.56,8.528 C10.56,10.432 11.152,11.808 13.232,11.808 C14.608,11.808 15.296,11.232 15.76,10.496 L15.76,11.6 Z" id="Path"></path>
            <path d="M22.224,2.992 L19.776,2.992 L19.776,4.256 L22.224,4.256 L22.224,9.44 C22.224,11.232 22.672,11.6 24.24,11.6 L27.216,11.6 L27.216,10.336 L24.56,10.336 C23.744,10.336 23.696,10.112 23.696,9.232 L23.696,4.256 L27.216,4.256 L27.216,2.992 L23.696,2.992 L23.696,0.832 L22.224,0.832 L22.224,2.992 Z" id="Path"></path>
            <path d="M32.56,2.992 L30.112,2.992 L30.112,4.256 L32.56,4.256 L32.56,9.44 C32.56,11.232 33.008,11.6 34.576,11.6 L37.552,11.6 L37.552,10.336 L34.896,10.336 C34.08,10.336 34.032,10.112 34.032,9.232 L34.032,4.256 L37.552,4.256 L37.552,2.992 L34.032,2.992 L34.032,0.832 L32.56,0.832 L32.56,2.992 Z" id="Path"></path>
            <path d="M44.96,11.808 C46.976,11.808 48.32,10.656 48.672,9.024 L47.152,9.024 C46.848,10 46.208,10.608 44.928,10.608 C43.568,10.608 42.608,9.472 42.608,7.744 L48.8,7.744 C48.912,4.672 47.472,2.832 44.96,2.832 C42.688,2.832 41.056,4.56 41.056,7.328 C41.056,9.872 42.352,11.808 44.96,11.808 Z M44.96,4.048 C46.464,4.048 47.248,5.12 47.232,6.528 L42.624,6.528 C42.688,4.864 43.568,4.048 44.96,4.048 Z" id="Shape"></path>
            <path d="M51.456,2.992 L51.456,4.256 L53.904,4.256 L53.904,10.336 L51.472,10.336 L51.472,11.6 L58.32,11.6 L58.32,10.336 L55.376,10.336 L55.376,7.312 C55.376,5.424 56.016,4.336 57.664,4.336 L59.12,4.336 L59.12,2.992 L57.648,2.992 C56.592,2.992 55.76,3.568 55.344,4.528 L55.344,2.992 L51.456,2.992 Z" id="Path"></path>
        </g>
        <g id="Sugar" transform="translate(111.264000, 438.192000)" fill="#000000" fill-rule="nonzero">
            <path d="M3.136,6.336 L4.4,6.64 C5.664,6.928 6.576,7.472 6.576,8.672 C6.576,10 5.392,10.608 4.24,10.608 C2.752,10.608 1.664,9.744 1.504,8.192 L-2.27373675e-13,8.192 C0.128,10.496 1.84,12.016 4.192,12.016 C6.432,12.016 8.112,10.72 8.112,8.56 C8.112,6.352 6.48,5.536 4.608,5.12 L3.456,4.864 C2.528,4.656 1.776,4.16 1.776,3.136 C1.776,1.936 2.88,1.408 3.936,1.408 C4.992,1.408 6.192,1.872 6.368,3.264 L7.872,3.264 C7.616,0.96 5.808,0 4.016,0 C1.936,0 0.208,1.184 0.208,3.184 C0.208,5.024 1.616,6 3.136,6.336 Z" id="Path"></path>
            <path d="M16.256,11.808 L17.728,11.808 L17.728,3.2 L16.256,3.2 L16.256,7.936 C16.256,9.776 15.536,10.752 14.208,10.752 C12.608,10.752 12.528,9.616 12.528,8.224 L12.528,3.2 L11.056,3.2 L11.056,8.736 C11.056,10.64 11.648,12.016 13.728,12.016 C15.104,12.016 15.792,11.44 16.256,10.704 L16.256,11.808 Z" id="Path"></path>
            <path d="M26.704,4.496 C26.224,3.664 25.456,3.056 24.16,3.056 C22.176,3.056 20.688,4.528 20.688,7.36 C20.688,10.208 22.176,11.664 24.16,11.664 C25.456,11.664 26.224,11.072 26.704,10.24 L26.704,11.072 C26.704,12.24 26.544,12.64 26.256,12.976 C25.904,13.392 25.232,13.616 24.496,13.616 C23.232,13.616 22.784,13.088 22.576,12.304 L21.024,12.304 C21.28,14 22.608,14.896 24.48,14.896 C25.696,14.896 26.88,14.48 27.488,13.76 C27.952,13.216 28.176,12.496 28.176,10.736 L28.176,3.2 L26.704,3.2 L26.704,4.496 Z M26.768,7.36 C26.768,9.616 25.696,10.448 24.464,10.448 C22.992,10.448 22.24,9.408 22.24,7.36 C22.24,5.312 22.992,4.288 24.464,4.288 C25.696,4.288 26.768,5.088 26.768,7.36 Z" id="Shape"></path>
            <path d="M34.208,12.016 C35.808,12.016 36.704,11.44 37.232,10.544 L37.248,11.808 L38.656,11.808 C38.608,11.232 38.528,10 38.544,8.56 L38.56,6.464 C38.592,4.08 37.568,3.024 35.184,3.024 C33.392,3.024 31.76,4.064 31.616,5.92 L33.12,5.92 C33.216,4.864 33.84,4.208 35.168,4.208 C36.288,4.208 37.104,4.656 37.104,6.144 L37.104,6.512 C33.584,6.896 31.408,7.52 31.408,9.568 C31.408,11.12 32.656,12.016 34.208,12.016 Z M37.216,7.92 C37.216,10.208 35.936,10.832 34.624,10.832 C33.584,10.832 32.992,10.352 32.992,9.536 C32.992,8.304 34.592,7.936 37.216,7.68 L37.216,7.92 Z" id="Shape"></path>
            <path d="M41.616,3.2 L41.616,4.464 L44.064,4.464 L44.064,10.544 L41.632,10.544 L41.632,11.808 L48.48,11.808 L48.48,10.544 L45.536,10.544 L45.536,7.52 C45.536,5.632 46.176,4.544 47.824,4.544 L49.28,4.544 L49.28,3.2 L47.808,3.2 C46.752,3.2 45.92,3.776 45.504,4.736 L45.504,3.2 L41.616,3.2 Z" id="Path"></path>
        </g>
        <g id="Group-4" transform="translate(192.000000, 273.000000)">
            <g id="Flour" transform="translate(18.240000, 117.400000)" fill="#000000" fill-rule="nonzero">
                <polygon id="Path" points="0 11.6 1.52 11.6 1.52 6.336 6.832 6.336 6.832 4.896 1.52 4.896 1.52 1.44 7.136 1.44 7.136 0 0 0"></polygon>
                <polygon id="Path" points="10.304 0 10.304 1.248 12.736 1.248 12.736 10.336 10.304 10.336 10.304 11.6 16.656 11.6 16.656 10.336 14.208 10.336 14.208 0"></polygon>
                <path d="M21.328,7.328 C21.328,5.04 22.448,4.08 23.76,4.08 C25.072,4.08 26.192,5.04 26.192,7.328 C26.192,9.616 25.072,10.576 23.76,10.576 C22.448,10.576 21.328,9.616 21.328,7.328 Z M19.776,7.328 C19.776,10.448 21.792,11.808 23.76,11.808 C25.728,11.808 27.744,10.448 27.744,7.328 C27.744,4.208 25.728,2.848 23.76,2.848 C21.792,2.848 19.776,4.208 19.776,7.328 Z" id="Shape"></path>
                <path d="M35.952,11.6 L37.424,11.6 L37.424,2.992 L35.952,2.992 L35.952,7.728 C35.952,9.568 35.232,10.544 33.904,10.544 C32.304,10.544 32.224,9.408 32.224,8.016 L32.224,2.992 L30.752,2.992 L30.752,8.528 C30.752,10.432 31.344,11.808 33.424,11.808 C34.8,11.808 35.488,11.232 35.952,10.496 L35.952,11.6 Z" id="Path"></path>
                <path d="M40.64,2.992 L40.64,4.256 L43.088,4.256 L43.088,10.336 L40.656,10.336 L40.656,11.6 L47.504,11.6 L47.504,10.336 L44.56,10.336 L44.56,7.312 C44.56,5.424 45.2,4.336 46.848,4.336 L48.304,4.336 L48.304,2.992 L46.832,2.992 C45.776,2.992 44.944,3.568 44.528,4.528 L44.528,2.992 L40.64,2.992 Z" id="Path"></path>
            </g>
            <path d="M7,12.0957031 L4,0 L79,0 L76,12.0957031 C80.6666667,27.2623698 83,42.4290365 83,57.5957031 C83,70.3760681 81.1064579,83.156433 77.3193738,95.936798 C76.0611715,100.18289 72.1600416,103.095703 67.7314559,103.095703 L15.2685448,103.095703 C10.8399599,103.095703 6.93883066,100.182891 5.68062681,95.9367999 C1.89354227,83.1564343 0,70.3760687 0,57.5957031 C0,42.4290365 2.33333333,27.2623698 7,12.0957031 Z" id="Rectangle" fill="#FF8C00"></path>
            <line x1="41.5" y1="83.5" x2="41.5" y2="46.5" id="Line-2"></line>
            <path d="M47.2,55 C49.3333333,51.4339779 50.4,48.7673112 50.4,47 C50.4,45.2326888 49.3333333,42.5660221 47.2,39 C45.0666667,42.5660221 44,45.2326888 44,47 C44,48.7673112 45.0666667,51.4339779 47.2,55 Z" id="Oval" transform="translate(47.200000, 47.000000) rotate(-315.000000) translate(-47.200000, -47.000000) "></path>
            <path d="M35.9195959,55 C38.0529293,51.4339779 39.1195959,48.7673112 39.1195959,47 C39.1195959,45.2326888 38.0529293,42.5660221 35.9195959,39 C33.7862626,42.5660221 32.7195959,45.2326888 32.7195959,47 C32.7195959,48.7673112 33.7862626,51.4339779 35.9195959,55 Z" id="Oval-Copy-3" transform="translate(35.919596, 47.000000) scale(-1, 1) rotate(-315.000000) translate(-35.919596, -47.000000) "></path>
            <path d="M41.45,47 C43.5833333,43.4339779 44.65,40.7673112 44.65,39 C44.65,37.2326888 43.5833333,34.5660221 41.45,31 C39.3166667,34.5660221 38.25,37.2326888 38.25,39 C38.25,40.7673112 39.3166667,43.4339779 41.45,47 Z" id="Oval" transform="translate(41.450000, 39.000000) rotate(-360.000000) translate(-41.450000, -39.000000) "></path>
            <path d="M47.2,64 C49.3333333,60.4339779 50.4,57.7673112 50.4,56 C50.4,54.2326888 49.3333333,51.5660221 47.2,48 C45.0666667,51.5660221 44,54.2326888 44,56 C44,57.7673112 45.0666667,60.4339779 47.2,64 Z" id="Oval-Copy" transform="translate(47.200000, 56.000000) rotate(-315.000000) translate(-47.200000, -56.000000) "></path>
            <path d="M35.9195959,64 C38.0529293,60.4339779 39.1195959,57.7673112 39.1195959,56 C39.1195959,54.2326888 38.0529293,51.5660221 35.9195959,48 C33.7862626,51.5660221 32.7195959,54.2326888 32.7195959,56 C32.7195959,57.7673112 33.7862626,60.4339779 35.9195959,64 Z" id="Oval-Copy-4" transform="translate(35.919596, 56.000000) scale(-1, 1) rotate(-315.000000) translate(-35.919596, -56.000000) "></path>
            <path d="M47.2,73 C49.3333333,69.4339779 50.4,66.7673112 50.4,65 C50.4,63.2326888 49.3333333,60.5660221 47.2,57 C45.0666667,60.5660221 44,63.2326888 44,65 C44,66.7673112 45.0666667,69.4339779 47.2,73 Z" id="Oval-Copy-2" transform="translate(47.200000, 65.000000) rotate(-315.000000) translate(-47.200000, -65.000000) "></path>
            <path d="M35.9195959,73 C38.0529293,69.4339779 39.1195959,66.7673112 39.1195959,65 C39.1195959,63.2326888 38.0529293,60.5660221 35.9195959,57 C33.7862626,60.5660221 32.7195959,63.2326888 32.7195959,65 C32.7195959,66.7673112 33.7862626,69.4339779 35.9195959,73 Z" id="Oval-Copy-5" transform="translate(35.919596, 65.000000) scale(-1, 1) rotate(-315.000000) translate(-35.919596, -65.000000) "></path>
            <line x1="7.5" y1="12.5" x2="75.5" y2="12.5" id="Line-3"></line>
        </g>
        <g id="Cookie" transform="translate(971.548000, 488.176000)" fill="#000000" fill-rule="nonzero">
            <path d="M6.672,8.224 C6.464,9.616 5.728,10.624 4.256,10.624 C2.48,10.624 1.568,8.864 1.568,6 C1.568,3.04 2.544,1.424 4.224,1.424 C5.696,1.424 6.416,2.576 6.608,3.904 L8.16,3.904 C7.776,1.552 6.272,-5.68434189e-14 4.272,-5.68434189e-14 C1.504,-5.68434189e-14 0,2.4 0,6 C0,9.52 1.328,12.032 4.16,12.032 C6.256,12.032 7.792,10.704 8.192,8.224 L6.672,8.224 Z" id="Path"></path>
            <path d="M12.016,7.552 C12.016,5.264 13.136,4.304 14.448,4.304 C15.76,4.304 16.88,5.264 16.88,7.552 C16.88,9.84 15.76,10.8 14.448,10.8 C13.136,10.8 12.016,9.84 12.016,7.552 Z M10.464,7.552 C10.464,10.672 12.48,12.032 14.448,12.032 C16.416,12.032 18.432,10.672 18.432,7.552 C18.432,4.432 16.416,3.072 14.448,3.072 C12.48,3.072 10.464,4.432 10.464,7.552 Z" id="Shape"></path>
            <path d="M22.352,7.552 C22.352,5.264 23.472,4.304 24.784,4.304 C26.096,4.304 27.216,5.264 27.216,7.552 C27.216,9.84 26.096,10.8 24.784,10.8 C23.472,10.8 22.352,9.84 22.352,7.552 Z M20.8,7.552 C20.8,10.672 22.816,12.032 24.784,12.032 C26.752,12.032 28.768,10.672 28.768,7.552 C28.768,4.432 26.752,3.072 24.784,3.072 C22.816,3.072 20.8,4.432 20.8,7.552 Z" id="Shape"></path>
            <polygon id="Path" points="31.888 0.224 31.888 11.824 33.36 11.824 33.36 8.848 34.688 7.536 37.712 11.824 39.392 11.824 35.68 6.56 39.056 3.216 37.168 3.216 33.36 7.136 33.36 0.224"></polygon>
            <path d="M44.864,0.224 L44.864,1.968 L46.336,1.968 L46.336,0.224 L44.864,0.224 Z M42.432,3.216 L42.432,4.48 L44.864,4.48 L44.864,10.56 L42.432,10.56 L42.432,11.824 L48.784,11.824 L48.784,10.56 L46.336,10.56 L46.336,3.216 L42.432,3.216 Z" id="Shape"></path>
            <path d="M55.84,12.032 C57.856,12.032 59.2,10.88 59.552,9.248 L58.032,9.248 C57.728,10.224 57.088,10.832 55.808,10.832 C54.448,10.832 53.488,9.696 53.488,7.968 L59.68,7.968 C59.792,4.896 58.352,3.056 55.84,3.056 C53.568,3.056 51.936,4.784 51.936,7.552 C51.936,10.096 53.232,12.032 55.84,12.032 Z M55.84,4.272 C57.344,4.272 58.128,5.344 58.112,6.752 L53.504,6.752 C53.568,5.088 54.448,4.272 55.84,4.272 Z" id="Shape"></path>
        </g>
        <g id="Group-2" transform="translate(928.000000, 327.000000)">
            <circle id="Oval" fill="#FFF0E5" cx="73.5" cy="73.5" r="73.5"></circle>
            <rect id="Rectangle" fill="#0F1931" transform="translate(49.000000, 63.000000) rotate(-330.000000) translate(-49.000000, -63.000000) " x="46" y="60" width="6" height="6"></rect>
            <rect id="Rectangle-Copy-14" fill="#0F1931" transform="translate(94.000000, 117.000000) rotate(-330.000000) translate(-94.000000, -117.000000) " x="91" y="114" width="6" height="6"></rect>
            <rect id="Rectangle-Copy-10" fill="#0F1931" transform="translate(54.000000, 82.000000) rotate(-330.000000) translate(-54.000000, -82.000000) " x="51" y="79" width="6" height="6"></rect>
            <rect id="Rectangle-Copy-13" fill="#0F1931" transform="translate(24.732051, 54.267949) rotate(-330.000000) translate(-24.732051, -54.267949) " x="19.7320508" y="49.2679492" width="10" height="10"></rect>
            <rect id="Rectangle-Copy-12" fill="#0F1931" transform="translate(30.000000, 106.000000) rotate(-330.000000) translate(-30.000000, -106.000000) " x="27" y="103" width="6" height="6"></rect>
            <rect id="Rectangle-Copy-5" fill="#0F1931" transform="translate(72.937820, 62.608823) rotate(-315.000000) translate(-72.937820, -62.608823) " x="67.9111231" y="57.5821261" width="10.0533941" height="10.0533941"></rect>
            <rect id="Rectangle-Copy-9" fill="#0F1931" transform="translate(93.017911, 98.391177) rotate(-315.000000) translate(-93.017911, -98.391177) " x="87.9912141" y="93.3644799" width="10.0533941" height="10.0533941"></rect>
            <rect id="Rectangle-Copy-6" fill="#0F1931" transform="translate(87.000000, 49.000000) rotate(-315.000000) translate(-87.000000, -49.000000) " x="84" y="46" width="6" height="6"></rect>
            <rect id="Rectangle-Copy-7" fill="#0F1931" transform="translate(45.000000, 27.000000) rotate(-315.000000) translate(-45.000000, -27.000000) " x="42" y="24" width="6" height="6"></rect>
            <rect id="Rectangle-Copy" fill="#0F1931" transform="translate(110.000000, 53.000000) rotate(-330.000000) translate(-110.000000, -53.000000) " x="107" y="50" width="6" height="6"></rect>
            <rect id="Rectangle-Copy-2" fill="#0F1931" transform="translate(84.450962, 21.049038) rotate(-300.000000) translate(-84.450962, -21.049038) " x="79.9509619" y="16.5490381" width="9" height="9"></rect>
            <rect id="Rectangle-Copy-3" fill="#0F1931" transform="translate(23.732051, 92.267949) rotate(-300.000000) translate(-23.732051, -92.267949) " x="18.7320508" y="87.2679492" width="10" height="10"></rect>
            <rect id="Rectangle-Copy-11" fill="#0F1931" transform="translate(87.000000, 126.000000) rotate(-300.000000) translate(-87.000000, -126.000000) " x="84" y="123" width="6" height="6"></rect>
            <rect id="Rectangle-Copy-8" fill="#0F1931" transform="translate(56.884426, 102.391177) rotate(-300.000000) translate(-56.884426, -102.391177) " x="51.857729" y="97.3644799" width="10.0533941" height="10.0533941"></rect>
            <rect id="Rectangle-Copy-4" fill="#0F1931" transform="translate(125.732051, 88.267949) rotate(-300.000000) translate(-125.732051, -88.267949) " x="120.732051" y="83.2679492" width="10" height="10"></rect>
        </g>
        <g id="Group-9" transform="translate(837.000000, 399.881350) rotate(-270.000000) translate(-837.000000, -399.881350) translate(826.500000, 339.500000)">
            <line x1="10.5" y1="120.7627" x2="10.5" y2="118.7627" id="Stroke-1" stroke="#10162F" stroke-linecap="round" stroke-linejoin="round"></line>
            <path d="M11,114.7709 L11,110.7789 C11,110.502758 10.7761424,110.2789 10.5,110.2789 C10.2238576,110.2789 10,110.502758 10,110.7789 L10,114.7709 C10,115.047042 10.2238576,115.2709 10.5,115.2709 C10.7761424,115.2709 11,115.047042 11,114.7709 Z M11,106.7869 L11,102.7949 C11,102.518757 10.7761424,102.2949 10.5,102.2949 C10.2238576,102.2949 10,102.518757 10,102.7949 L10,106.7869 C10,107.063042 10.2238576,107.2869 10.5,107.2869 C10.7761424,107.2869 11,107.063042 11,106.7869 Z M11,98.8028996 L11,94.8108995 C11,94.5347571 10.7761424,94.3108995 10.5,94.3108995 C10.2238576,94.3108995 10,94.5347571 10,94.8108995 L10,98.8028996 C10,99.079042 10.2238576,99.3028996 10.5,99.3028996 C10.7761424,99.3028996 11,99.079042 11,98.8028996 Z M11,90.8188994 L11,86.8268993 C11,86.5507569 10.7761424,86.3268993 10.5,86.3268993 C10.2238576,86.3268993 10,86.5507569 10,86.8268993 L10,90.8188994 C10,91.0950418 10.2238576,91.3188994 10.5,91.3188994 C10.7761424,91.3188994 11,91.0950418 11,90.8188994 Z M11,82.8348992 L11,78.8428991 C11,78.5667567 10.7761424,78.3428991 10.5,78.3428991 C10.2238576,78.3428991 10,78.5667567 10,78.8428991 L10,82.8348992 C10,83.1110416 10.2238576,83.3348992 10.5,83.3348992 C10.7761424,83.3348992 11,83.1110416 11,82.8348992 Z M11,74.850899 L11,70.8588989 C11,70.5827565 10.7761424,70.3588989 10.5,70.3588989 C10.2238576,70.3588989 10,70.5827565 10,70.8588989 L10,74.850899 C10,75.1270413 10.2238576,75.350899 10.5,75.350899 C10.7761424,75.350899 11,75.1270413 11,74.850899 Z M11,66.8668988 L11,62.8748987 C11,62.5987563 10.7761424,62.3748987 10.5,62.3748987 C10.2238576,62.3748987 10,62.5987563 10,62.8748987 L10,66.8668988 C10,67.1430411 10.2238576,67.3668988 10.5,67.3668988 C10.7761424,67.3668988 11,67.1430411 11,66.8668988 Z M11,58.8828986 L11,54.8908985 C11,54.6147561 10.7761424,54.3908985 10.5,54.3908985 C10.2238576,54.3908985 10,54.6147561 10,54.8908985 L10,58.8828986 C10,59.1590409 10.2238576,59.3828986 10.5,59.3828986 C10.7761424,59.3828986 11,59.1590409 11,58.8828986 Z M11,50.8988984 L11,46.9068982 C11,46.6307559 10.7761424,46.4068982 10.5,46.4068982 C10.2238576,46.4068982 10,46.6307559 10,46.9068982 L10,50.8988984 C10,51.1750407 10.2238576,51.3988984 10.5,51.3988984 C10.7761424,51.3988984 11,51.1750407 11,50.8988984 Z M11,42.9148981 L11,38.922898 C11,38.6467557 10.7761424,38.422898 10.5,38.422898 C10.2238576,38.422898 10,38.6467557 10,38.922898 L10,42.9148981 C10,43.1910405 10.2238576,43.4148981 10.5,43.4148981 C10.7761424,43.4148981 11,43.1910405 11,42.9148981 Z M11,34.9308979 L11,30.9388978 C11,30.6627555 10.7761424,30.4388978 10.5,30.4388978 C10.2238576,30.4388978 10,30.6627555 10,30.9388978 L10,34.9308979 C10,35.2070403 10.2238576,35.4308979 10.5,35.4308979 C10.7761424,35.4308979 11,35.2070403 11,34.9308979 Z M11,26.9468977 L11,22.9548976 C11,22.6787553 10.7761424,22.4548976 10.5,22.4548976 C10.2238576,22.4548976 10,22.6787553 10,22.9548976 L10,26.9468977 C10,27.2230401 10.2238576,27.4468977 10.5,27.4468977 C10.7761424,27.4468977 11,27.2230401 11,26.9468977 Z M11,18.9628975 L11,14.9708974 C11,14.6947551 10.7761424,14.4708974 10.5,14.4708974 C10.2238576,14.4708974 10,14.6947551 10,14.9708974 L10,18.9628975 C10,19.2390399 10.2238576,19.4628975 10.5,19.4628975 C10.7761424,19.4628975 11,19.2390399 11,18.9628975 Z M11,10.9788973 L11,6.98689722 C11,6.71075484 10.7761424,6.48689722 10.5,6.48689722 C10.2238576,6.48689722 10,6.71075484 10,6.98689722 L10,10.9788973 C10,11.2550397 10.2238576,11.4788973 10.5,11.4788973 C10.7761424,11.4788973 11,11.2550397 11,10.9788973 Z" id="Stroke-3" fill="#000000" fill-rule="nonzero"></path>
            <g id="Group-8" transform="translate(0.000000, 0.000000)">
                <line x1="10.5" y1="3" x2="10.5" y2="1" id="Stroke-4" stroke="#ffffff" stroke-linecap="round" stroke-linejoin="round"></line>
                <path d="M10.1464466,-0.353553391 C10.320013,-0.527119742 10.5894374,-0.546404893 10.7843055,-0.411408841 L10.8535534,-0.353553391 L21.3535534,10.1464466 C21.5488155,10.3417088 21.5488155,10.6582912 21.3535534,10.8535534 C21.179987,11.0271197 20.9105626,11.0464049 20.7156945,10.9114088 L20.6464466,10.8535534 L10.5,0.707 L0.353553391,10.8535534 C0.179987039,11.0271197 -0.0894373624,11.0464049 -0.284305503,10.9114088 L-0.353553391,10.8535534 C-0.527119742,10.679987 -0.546404893,10.4105626 -0.411408841,10.2156945 L-0.353553391,10.1464466 L10.1464466,-0.353553391 Z" id="Stroke-6" fill="#000000" fill-rule="nonzero"></path>
            </g>
        </g>
        <g id="Group-9-Copy" transform="translate(364.000000, 399.881350) rotate(-270.000000) translate(-364.000000, -399.881350) translate(353.500000, 339.500000)">
            <line x1="10.5" y1="120.7627" x2="10.5" y2="118.7627" id="Stroke-1" stroke="#10162F" stroke-linecap="round" stroke-linejoin="round"></line>
            <path d="M11,114.7709 L11,110.7789 C11,110.502758 10.7761424,110.2789 10.5,110.2789 C10.2238576,110.2789 10,110.502758 10,110.7789 L10,114.7709 C10,115.047042 10.2238576,115.2709 10.5,115.2709 C10.7761424,115.2709 11,115.047042 11,114.7709 Z M11,106.7869 L11,102.7949 C11,102.518757 10.7761424,102.2949 10.5,102.2949 C10.2238576,102.2949 10,102.518757 10,102.7949 L10,106.7869 C10,107.063042 10.2238576,107.2869 10.5,107.2869 C10.7761424,107.2869 11,107.063042 11,106.7869 Z M11,98.8028996 L11,94.8108995 C11,94.5347571 10.7761424,94.3108995 10.5,94.3108995 C10.2238576,94.3108995 10,94.5347571 10,94.8108995 L10,98.8028996 C10,99.079042 10.2238576,99.3028996 10.5,99.3028996 C10.7761424,99.3028996 11,99.079042 11,98.8028996 Z M11,90.8188994 L11,86.8268993 C11,86.5507569 10.7761424,86.3268993 10.5,86.3268993 C10.2238576,86.3268993 10,86.5507569 10,86.8268993 L10,90.8188994 C10,91.0950418 10.2238576,91.3188994 10.5,91.3188994 C10.7761424,91.3188994 11,91.0950418 11,90.8188994 Z M11,82.8348992 L11,78.8428991 C11,78.5667567 10.7761424,78.3428991 10.5,78.3428991 C10.2238576,78.3428991 10,78.5667567 10,78.8428991 L10,82.8348992 C10,83.1110416 10.2238576,83.3348992 10.5,83.3348992 C10.7761424,83.3348992 11,83.1110416 11,82.8348992 Z M11,74.850899 L11,70.8588989 C11,70.5827565 10.7761424,70.3588989 10.5,70.3588989 C10.2238576,70.3588989 10,70.5827565 10,70.8588989 L10,74.850899 C10,75.1270413 10.2238576,75.350899 10.5,75.350899 C10.7761424,75.350899 11,75.1270413 11,74.850899 Z M11,66.8668988 L11,62.8748987 C11,62.5987563 10.7761424,62.3748987 10.5,62.3748987 C10.2238576,62.3748987 10,62.5987563 10,62.8748987 L10,66.8668988 C10,67.1430411 10.2238576,67.3668988 10.5,67.3668988 C10.7761424,67.3668988 11,67.1430411 11,66.8668988 Z M11,58.8828986 L11,54.8908985 C11,54.6147561 10.7761424,54.3908985 10.5,54.3908985 C10.2238576,54.3908985 10,54.6147561 10,54.8908985 L10,58.8828986 C10,59.1590409 10.2238576,59.3828986 10.5,59.3828986 C10.7761424,59.3828986 11,59.1590409 11,58.8828986 Z M11,50.8988984 L11,46.9068982 C11,46.6307559 10.7761424,46.4068982 10.5,46.4068982 C10.2238576,46.4068982 10,46.6307559 10,46.9068982 L10,50.8988984 C10,51.1750407 10.2238576,51.3988984 10.5,51.3988984 C10.7761424,51.3988984 11,51.1750407 11,50.8988984 Z M11,42.9148981 L11,38.922898 C11,38.6467557 10.7761424,38.422898 10.5,38.422898 C10.2238576,38.422898 10,38.6467557 10,38.922898 L10,42.9148981 C10,43.1910405 10.2238576,43.4148981 10.5,43.4148981 C10.7761424,43.4148981 11,43.1910405 11,42.9148981 Z M11,34.9308979 L11,30.9388978 C11,30.6627555 10.7761424,30.4388978 10.5,30.4388978 C10.2238576,30.4388978 10,30.6627555 10,30.9388978 L10,34.9308979 C10,35.2070403 10.2238576,35.4308979 10.5,35.4308979 C10.7761424,35.4308979 11,35.2070403 11,34.9308979 Z M11,26.9468977 L11,22.9548976 C11,22.6787553 10.7761424,22.4548976 10.5,22.4548976 C10.2238576,22.4548976 10,22.6787553 10,22.9548976 L10,26.9468977 C10,27.2230401 10.2238576,27.4468977 10.5,27.4468977 C10.7761424,27.4468977 11,27.2230401 11,26.9468977 Z M11,18.9628975 L11,14.9708974 C11,14.6947551 10.7761424,14.4708974 10.5,14.4708974 C10.2238576,14.4708974 10,14.6947551 10,14.9708974 L10,18.9628975 C10,19.2390399 10.2238576,19.4628975 10.5,19.4628975 C10.7761424,19.4628975 11,19.2390399 11,18.9628975 Z M11,10.9788973 L11,6.98689722 C11,6.71075484 10.7761424,6.48689722 10.5,6.48689722 C10.2238576,6.48689722 10,6.71075484 10,6.98689722 L10,10.9788973 C10,11.2550397 10.2238576,11.4788973 10.5,11.4788973 C10.7761424,11.4788973 11,11.2550397 11,10.9788973 Z" id="Stroke-3" fill="#000000" fill-rule="nonzero"></path>
            <g id="Group-8" transform="translate(-0.000000, -0.000000)">
                <line x1="10.5" y1="3" x2="10.5" y2="1" id="Stroke-4" stroke="#000000" stroke-linecap="round" stroke-linejoin="round"></line>
                <path d="M10.1464466,-0.353553391 C10.320013,-0.527119742 10.5894374,-0.546404893 10.7843055,-0.411408841 L10.8535534,-0.353553391 L21.3535534,10.1464466 C21.5488155,10.3417088 21.5488155,10.6582912 21.3535534,10.8535534 C21.179987,11.0271197 20.9105626,11.0464049 20.7156945,10.9114088 L20.6464466,10.8535534 L10.5,0.707 L0.353553391,10.8535534 C0.179987039,11.0271197 -0.0894373624,11.0464049 -0.284305503,10.9114088 L-0.353553391,10.8535534 C-0.527119742,10.679987 -0.546404893,10.4105626 -0.411408841,10.2156945 L-0.353553391,10.1464466 L10.1464466,-0.353553391 Z" id="Stroke-6" fill="#000000" fill-rule="nonzero"></path>
            </g>
        </g>
        <g id="Group" transform="translate(171.639648, 468.000000)" fill="#FFD300">
            <rect id="Rectangle" x="4.36035156" y="6" width="99" height="28"></rect>
            <polygon id="Rectangle-Copy-15" points="19 -8.54871729e-15 122.360352 -1.44328993e-15 103.360352 7 -5.61784291e-15 7"></polygon>
            <polygon id="Path" points="102.910889 34 102.910889 6.69262695 116.96875 1.51123047 116.96875 25.7700195"></polygon>
        </g>
        <path d="M110,342 L162,342 L162,413 C162,418.522847 157.522847,423 152,423 L120,423 C114.477153,423 110,418.522847 110,413 L110,342 L110,342 Z" id="Rectangle" fill="#ffffff"></path>
        <path d="M110,372 C118.666667,370.666667 127.333333,370 136,370 C144.666667,370 153.333333,370.666667 162,372 L162,413 C162,418.522847 157.522847,423 152,423 L120,423 C114.477153,423 110,418.522847 110,413 L110,372 L110,372 Z" id="Rectangle" fill="#FFFFFF"></path>
        <polygon id="Rectangle-Copy-16" fill="#66C4FF" points="110 342 162 342 162 353 110 353"></polygon>
        <line x1="110.5" y1="352.5" x2="161.5" y2="352.5" id="Line"></line>
        <path d="M271,273 L268,285.095703 C272.666667,300.26237 275,315.429036 275,330.595703 C275,343.376068 273.106458,356.156433 269.319374,368.936798 C268.061171,373.18289 264.160042,376.095703 259.731456,376.095703 L207.268545,376.095703 C202.83996,376.095703 198.938831,373.182891 197.680627,368.9368 C193.893542,356.156434 192,343.376069 192,330.595703 C192,315.429036 194.333333,300.26237 199,285.095703 L196,273 L271,273 Z M269.721,274 L197.278,274 L200.037425,285.124438 L199.955779,285.389789 C195.318099,300.462249 193,315.529893 193,330.595703 C193,343.278828 194.879378,355.963589 198.639419,368.65269 C199.746066,372.38732 203.124455,374.975923 206.997549,375.091658 L207.268545,375.095703 L259.731456,375.095703 C263.717183,375.095703 267.2282,372.474171 268.360582,368.652688 C272.120623,355.963588 274,343.278827 274,330.595703 C274,315.926361 271.802301,301.255282 267.405535,286.57971 L266.962575,285.124438 L269.721,274 Z" id="Rectangle" fill="#0F1931" fill-rule="nonzero"></path>
        <polygon id="Line-2" fill="#0F1931" fill-rule="nonzero" points="234 319 234 357 233 357 233 319"></polygon>
        <path d="M239.2,312 C241.333333,315.566022 242.4,318.232689 242.4,320 C242.4,321.767311 241.333333,324.433978 239.2,328 C237.066667,324.433978 236,321.767311 236,320 C236,318.232689 237.066667,315.566022 239.2,312 Z M239.339492,314.260378 L239.199,314.005 L239.060508,314.260378 C237.682283,316.806306 237,318.737466 237,320 C237,321.262534 237.682283,323.193694 239.060508,325.739622 L239.2,325.994 L239.339492,325.739622 C240.657794,323.304387 241.339355,321.431623 241.39613,320.168466 L241.4,320 C241.4,318.737466 240.717717,316.806306 239.339492,314.260378 Z" id="Oval" fill="#0F1931" fill-rule="nonzero" transform="translate(239.200000, 320.000000) rotate(-315.000000) translate(-239.200000, -320.000000) "></path>
        <path d="M229.319596,314.505887 L229.646127,315.15991 C230.628439,317.18739 231.119596,318.800753 231.119596,320 C231.119596,321.199247 230.628439,322.81261 229.646127,324.84009 L229.319596,325.494113 C228.919596,326.273199 228.452929,327.108494 227.919596,328 C225.786263,324.433978 224.719596,321.767311 224.719596,320 C224.719596,318.358925 225.639324,315.942386 227.47878,312.750382 L227.919596,312 C228.452929,312.891506 228.919596,313.726801 229.319596,314.505887 Z M228.059088,314.260378 L227.919,314.005 L227.780104,314.260378 C226.401879,316.806306 225.719596,318.737466 225.719596,320 C225.719596,321.205146 226.341263,323.019516 227.596476,325.396266 L227.919,325.994 L228.059088,325.739622 C229.37739,323.304387 230.058951,321.431623 230.115726,320.168466 L230.119596,320 C230.119596,318.737466 229.437313,316.806306 228.059088,314.260378 Z" id="Oval-Copy-3" fill="#0F1931" fill-rule="nonzero" transform="translate(227.919596, 320.000000) scale(-1, 1) rotate(-315.000000) translate(-227.919596, -320.000000) "></path>
        <path d="M233.45,304 C235.583333,307.566022 236.65,310.232689 236.65,312 C236.65,313.767311 235.583333,316.433978 233.45,320 C231.316667,316.433978 230.25,313.767311 230.25,312 C230.25,310.232689 231.316667,307.566022 233.45,304 Z M233.589492,306.260378 L233.449,306.005 L233.310508,306.260378 C231.932283,308.806306 231.25,310.737466 231.25,312 C231.25,313.262534 231.932283,315.193694 233.310508,317.739622 L233.45,317.994 L233.589492,317.739622 C234.907794,315.304387 235.589355,313.431623 235.64613,312.168466 L235.65,312 C235.65,310.737466 234.967717,308.806306 233.589492,306.260378 Z" id="Oval" fill="#0F1931" fill-rule="nonzero" transform="translate(233.450000, 312.000000) rotate(-360.000000) translate(-233.450000, -312.000000) "></path>
        <path d="M239.2,321 C241.333333,324.566022 242.4,327.232689 242.4,329 C242.4,330.767311 241.333333,333.433978 239.2,337 C237.066667,333.433978 236,330.767311 236,329 C236,327.232689 237.066667,324.566022 239.2,321 Z M239.2,323.005 L239.060508,323.260378 C237.682283,325.806306 237,327.737466 237,329 C237,330.262534 237.682283,332.193694 239.060508,334.739622 L239.2,334.994 L239.339492,334.739622 C240.657794,332.304387 241.339355,330.431623 241.39613,329.168466 L241.4,329 C241.4,327.794854 240.778333,325.980484 239.52312,323.603734 L239.2,323.005 Z" id="Oval-Copy" fill="#0F1931" fill-rule="nonzero" transform="translate(239.200000, 329.000000) rotate(-315.000000) translate(-239.200000, -329.000000) "></path>
        <path d="M229.319596,323.505887 L229.646127,324.15991 C230.628439,326.18739 231.119596,327.800753 231.119596,329 C231.119596,330.199247 230.628439,331.81261 229.646127,333.84009 L229.319596,334.494113 C228.919596,335.273199 228.452929,336.108494 227.919596,337 C225.786263,333.433978 224.719596,330.767311 224.719596,329 C224.719596,327.358925 225.639324,324.942386 227.47878,321.750382 L227.919596,321 C228.452929,321.891506 228.919596,322.726801 229.319596,323.505887 Z M228.059088,323.260378 L227.919,323.005 L227.780104,323.260378 C226.401879,325.806306 225.719596,327.737466 225.719596,329 C225.719596,330.205146 226.341263,332.019516 227.596476,334.396266 L227.919,334.994 L228.059088,334.739622 C229.37739,332.304387 230.058951,330.431623 230.115726,329.168466 L230.119596,329 C230.119596,327.737466 229.437313,325.806306 228.059088,323.260378 Z" id="Oval-Copy-4" fill="#0F1931" fill-rule="nonzero" transform="translate(227.919596, 329.000000) scale(-1, 1) rotate(-315.000000) translate(-227.919596, -329.000000) "></path>
        <path d="M239.2,330 C241.333333,333.566022 242.4,336.232689 242.4,338 C242.4,339.767311 241.333333,342.433978 239.2,346 C237.066667,342.433978 236,339.767311 236,338 C236,336.232689 237.066667,333.566022 239.2,330 Z M239.2,332.005 L239.060508,332.260378 C237.682283,334.806306 237,336.737466 237,338 C237,339.262534 237.682283,341.193694 239.060508,343.739622 L239.2,343.994 L239.339492,343.739622 C240.657794,341.304387 241.339355,339.431623 241.39613,338.168466 L241.4,338 C241.4,336.794854 240.778333,334.980484 239.52312,332.603734 L239.2,332.005 Z" id="Oval-Copy-2" fill="#0F1931" fill-rule="nonzero" transform="translate(239.200000, 338.000000) rotate(-315.000000) translate(-239.200000, -338.000000) "></path>
        <path d="M229.319596,332.505887 L229.646127,333.15991 C230.628439,335.18739 231.119596,336.800753 231.119596,338 C231.119596,339.199247 230.628439,340.81261 229.646127,342.84009 L229.319596,343.494113 C228.919596,344.273199 228.452929,345.108494 227.919596,346 C225.786263,342.433978 224.719596,339.767311 224.719596,338 C224.719596,336.358925 225.639324,333.942386 227.47878,330.750382 L227.919596,330 C228.452929,330.891506 228.919596,331.726801 229.319596,332.505887 Z M228.059088,332.260378 L227.919,332.005 L227.780104,332.260378 C226.401879,334.806306 225.719596,336.737466 225.719596,338 C225.719596,339.205146 226.341263,341.019516 227.596476,343.396266 L227.919,343.994 L228.059088,343.739622 C229.37739,341.304387 230.058951,339.431623 230.115726,338.168466 L230.119596,338 C230.119596,336.737466 229.437313,334.806306 228.059088,332.260378 Z" id="Oval-Copy-5" fill="#0F1931" fill-rule="nonzero" transform="translate(227.919596, 338.000000) scale(-1, 1) rotate(-315.000000) translate(-227.919596, -338.000000) "></path>
        <polygon id="Line-3" fill="#0F1931" fill-rule="nonzero" points="268 285 268 286 199 286 199 285"></polygon>
        <path d="M275,474 L275,502 L176,502 L176,474 L275,474 Z M274,475 L177,475 L177,501 L274,501 L274,475 Z" id="Rectangle" fill="#0F1931" fill-rule="nonzero"></path>
        <path d="M294,468 L275,475 L171.639648,475 L190.639648,468 L294,468 Z M288.391,469 L190.817,469 L177.245,474 L274.82,474 L288.391,469 Z" id="Rectangle-Copy-15" fill="#0F1931" fill-rule="nonzero"></path>
        <path d="M289.108398,494.056684 L289.108398,468.794061 L274.050537,474.344034 L274.050537,502.8721 L289.108398,494.056684 Z M288.108,470.228 L288.108,493.483 L275.05,501.127 L275.05,475.04 L288.108,470.228 Z" id="Path" fill="#0F1931" fill-rule="nonzero"></path>
        <path d="M162,342 L162,413 C162,418.522847 157.522847,423 152,423 L120,423 C114.477153,423 110,418.522847 110,413 L110,342 L162,342 Z M161,343 L111,343 L111,413 C111,417.881803 114.886814,421.855791 119.734638,421.996163 L120,422 L152,422 C156.881803,422 160.855791,418.113186 160.996163,413.265362 L161,413 L161,343 Z" id="Rectangle" fill="#000000" fill-rule="nonzero"></path>
        <path d="M136,370 C144.666667,370 153.333333,370.666667 162,372 L162,413 C162,418.522847 157.522847,423 152,423 L120,423 C114.477153,423 110,418.522847 110,413 L110,372 C118.666667,370.666667 127.333333,370 136,370 Z M136,371 C127.891192,371 119.782182,371.587079 111.672609,372.76132 L111,372.861 L111,413 C111,417.881803 114.886814,421.855791 119.734638,421.996163 L120,422 L152,422 C156.881803,422 160.855791,418.113186 160.996163,413.265362 L161,413 L161,372.862 L160.327391,372.76132 C152.724666,371.660469 145.122436,371.075678 137.520404,371.00688 L136,371 Z" id="Rectangle" fill="#000000" fill-rule="nonzero"></path>
        <path d="M162,342 L162,353 L110,353 L110,342 L162,342 Z M161,343 L111,343 L111,352 L161,352 L161,343 Z" id="Rectangle-Copy-16" fill="#000000" fill-rule="nonzero"></path>
        <polygon id="Line" fill="#FFFFFF" fill-rule="nonzero" points="162 352 162 353 110 353 110 352"></polygon>
        <g id="Group-3" transform="translate(527.000000, 353.000000)">
            <path d="M45.260551,0 L45.9696229,8.50779421 C49.6070829,9.16286606 53.0309625,10.4326845 56.1298417,12.20583 L62.1418332,6.14428423 L69.8022776,12.5721603 L64.874035,19.5493504 C67.1739265,22.3143481 69.0167294,25.4730302 70.2864646,28.9094177 L78.7846202,28.1300341 L80.521102,37.9781117 L72.2601823,40.1552632 C72.2424383,43.8904182 71.5847598,47.4743318 70.3911551,50.8029954 L77.4015672,55.669873 L72.4015672,64.330127 L64.67469,60.6879732 C62.3350396,63.4462793 59.5363142,65.8029158 56.3965377,67.6398585 L58.6398198,75.8776041 L49.2428936,79.2978055 L45.665649,71.545431 C43.9085991,71.8443315 42.1027542,72 40.260551,72 C38.4183478,72 36.6125029,71.8443315 34.855453,71.545431 L31.2782084,79.2978055 L21.8812822,75.8776041 L24.124265,67.6396833 C20.9846099,65.802766 18.185988,63.4461916 15.846412,60.6879732 L8.11953486,64.330127 L3.11953486,55.669873 L10.1299469,50.8029954 C8.97868806,47.5924237 8.32600349,44.1443919 8.26521994,40.5522268 L-2.77000645e-14,37.9781117 L1.73648178,28.1300341 L10.2346374,28.9094177 C11.5043726,25.4730302 13.3471755,22.3143481 15.647067,19.5493504 L10.7188244,12.5721603 L18.3792688,6.14428423 L24.3912603,12.20583 C27.4901396,10.4326845 30.9140191,9.16286606 34.5514792,8.50779421 L35.260551,0 L45.260551,0 Z M40.260551,28 C33.633134,28 28.260551,33.372583 28.260551,40 C28.260551,46.627417 33.633134,52 40.260551,52 C46.887968,52 52.260551,46.627417 52.260551,40 C52.260551,33.372583 46.887968,28 40.260551,28 Z" id="Combined-Shape" fill="#FFFFFF"></path>
            <path d="M112.260551,40 L112.969623,48.5077942 C116.607083,49.1628661 120.030962,50.4326845 123.129842,52.20583 L129.141833,46.1442842 L136.802278,52.5721603 L131.874035,59.5493504 C134.173927,62.3143481 136.016729,65.4730302 137.286465,68.9094177 L145.78462,68.1300341 L147.521102,77.9781117 L139.260182,80.1552632 C139.242438,83.8904182 138.58476,87.4743318 137.391155,90.8029954 L144.401567,95.669873 L139.401567,104.330127 L131.67469,100.687973 C129.33504,103.446279 126.536314,105.802916 123.396538,107.639859 L125.63982,115.877604 L116.242894,119.297806 L112.665649,111.545431 C110.908599,111.844331 109.102754,112 107.260551,112 C105.418348,112 103.612503,111.844331 101.855453,111.545431 L98.2782084,119.297806 L88.8812822,115.877604 L91.124265,107.639683 C87.9846099,105.802766 85.185988,103.446192 82.846412,100.687973 L75.1195349,104.330127 L70.1195349,95.669873 L77.1299469,90.8029954 C75.9786881,87.5924237 75.3260035,84.1443919 75.2652199,80.5522268 L67,77.9781117 L68.7364818,68.1300341 L77.2346374,68.9094177 C78.5043726,65.4730302 80.3471755,62.3143481 82.647067,59.5493504 L77.7188244,52.5721603 L85.3792688,46.1442842 L91.3912603,52.20583 C94.4901396,50.4326845 97.9140191,49.1628661 101.551479,48.5077942 L102.260551,40 L112.260551,40 Z M107.260551,68 C100.633134,68 95.260551,73.372583 95.260551,80 C95.260551,86.627417 100.633134,92 107.260551,92 C113.887968,92 119.260551,86.627417 119.260551,80 C119.260551,73.372583 113.887968,68 107.260551,68 Z" id="Combined-Shape-Copy" fill="#FFFFFF"></path>
            <path d="M45.260551,0 L45.9696229,8.50779421 C49.6070829,9.16286606 53.0309625,10.4326845 56.1298417,12.20583 L62.1418332,6.14428423 L69.8022776,12.5721603 L64.874035,19.5493504 C67.1739265,22.3143481 69.0167294,25.4730302 70.2864646,28.9094177 L78.7846202,28.1300341 L80.521102,37.9781117 L72.2601823,40.1552632 C72.2424383,43.8904182 71.5847598,47.4743318 70.3911551,50.8029954 L77.4015672,55.669873 L72.4015672,64.330127 L64.67469,60.6879732 C62.3350396,63.4462793 59.5363142,65.8029158 56.3965377,67.6398585 L58.6398198,75.8776041 L49.2428936,79.2978055 L45.665649,71.545431 C44.1282303,71.8069689 42.553453,71.9588449 40.9496486,71.9927273 L40.260551,72 C38.6486232,72 37.0645323,71.8808163 35.5166097,71.6507804 L34.855453,71.545431 L31.2782084,79.2978055 L21.8812822,75.8776041 L24.124265,67.6396833 C21.1692955,65.9108199 18.5164177,63.7216376 16.2640195,61.1705243 L15.846412,60.6879732 L8.11953486,64.330127 L3.11953486,55.669873 L10.1299469,50.8029954 C8.97868806,47.5924237 8.32600349,44.1443919 8.26521994,40.5522268 L-2.8643754e-14,37.9781117 L1.73648178,28.1300341 L10.2346374,28.9094177 C11.5043726,25.4730302 13.3471755,22.3143481 15.647067,19.5493504 L10.7188244,12.5721603 L18.3792688,6.14428423 L24.3912603,12.20583 C27.4901396,10.4326845 30.9140191,9.16286606 34.5514792,8.50779421 L35.260551,0 L45.260551,0 Z M44.34,1 L36.181,1 L35.4842622,9.35589577 L34.7287184,9.49196201 C31.4690345,10.079 28.3466885,11.1830597 25.4617001,12.7534976 L24.8878969,13.0737885 L24.2217337,13.4549599 L18.317,7.501 L12.066,12.747 L16.9064604,19.5990338 L16.4158723,20.1888334 C14.3086919,22.722148 12.6159929,25.5739529 11.4078086,28.6399807 L11.1726527,29.2560116 L10.9068895,29.9752681 L2.561,29.209 L1.137,37.285 L9.25284501,39.8124372 L9.26507681,40.5353081 C9.31941518,43.746578 9.86265245,46.8848934 10.8647332,49.8704133 L11.0712584,50.4654563 L11.3300612,51.1871923 L4.445,55.966 L8.525,63.033 L16.1132762,59.4566604 L16.6090208,60.0411132 C18.7405193,62.5540209 21.2589352,64.7155145 24.0643696,66.4379504 L24.6292538,66.7765575 L25.2903625,67.1633522 L23.088,75.252 L30.755,78.043 L34.2682832,70.4311782 L35.0231587,70.5595939 C36.7415072,70.8519107 38.4914221,71 40.260551,71 C41.7769472,71 43.279227,70.8911997 44.7596116,70.676031 L45.4979433,70.5595939 L46.2528188,70.4311782 L49.765,78.043 L57.432,75.252 L55.230411,67.1635348 L55.8915581,66.7767272 C58.7349269,65.1131993 61.2979232,63.0047395 63.4806382,60.5389991 L63.9120812,60.0411132 L64.4078258,59.4566604 L71.995,63.033 L76.075,55.966 L69.1910408,51.1871923 L69.4498436,50.4654563 C70.5529266,47.3892348 71.1639954,44.1434511 71.2500027,40.8168782 L71.2601936,40.1505127 L71.2638363,39.3837026 L79.376,37.245 L77.959,29.209 L69.6142125,29.9752681 L69.3484493,29.2560116 C68.2051783,26.1618843 66.5727235,23.2750285 64.5211186,20.6997119 L64.1052297,20.1888334 L63.6146416,19.5990338 L68.454,12.747 L62.203,7.501 L56.2993683,13.4549599 L55.6332052,13.0737885 C52.780309,11.441392 49.6833872,10.2719973 46.4424596,9.61624822 L45.7923836,9.49196201 L45.0368398,9.35589577 L44.34,1 Z" id="Combined-Shape" fill="#0F1931" fill-rule="nonzero"></path>
            <path d="M112.260551,40 L112.969623,48.5077942 C116.607083,49.1628661 120.030962,50.4326845 123.129842,52.20583 L129.141833,46.1442842 L136.802278,52.5721603 L131.874035,59.5493504 C134.173927,62.3143481 136.016729,65.4730302 137.286465,68.9094177 L145.78462,68.1300341 L147.521102,77.9781117 L139.260182,80.1552632 C139.242438,83.8904182 138.58476,87.4743318 137.391155,90.8029954 L144.401567,95.669873 L139.401567,104.330127 L131.67469,100.687973 C129.33504,103.446279 126.536314,105.802916 123.396538,107.639859 L125.63982,115.877604 L116.242894,119.297806 L112.665649,111.545431 C111.12823,111.806969 109.553453,111.958845 107.949649,111.992727 L107.260551,112 C105.648623,112 104.064532,111.880816 102.51661,111.65078 L101.855453,111.545431 L98.2782084,119.297806 L88.8812822,115.877604 L91.124265,107.639683 C88.1692955,105.91082 85.5164177,103.721638 83.2640195,101.170524 L82.846412,100.687973 L75.1195349,104.330127 L70.1195349,95.669873 L77.1299469,90.8029954 C75.9786881,87.5924237 75.3260035,84.1443919 75.2652199,80.5522268 L67,77.9781117 L68.7364818,68.1300341 L77.2346374,68.9094177 C78.5043726,65.4730302 80.3471755,62.3143481 82.647067,59.5493504 L77.7188244,52.5721603 L85.3792688,46.1442842 L91.3912603,52.20583 C94.4901396,50.4326845 97.9140191,49.1628661 101.551479,48.5077942 L102.260551,40 L112.260551,40 Z M111.34,40.999 L103.181,40.999 L102.484262,49.3558958 L101.728718,49.491962 C98.4690345,50.079 95.3466885,51.1830597 92.4617001,52.7534976 L91.8878969,53.0737885 L91.2217337,53.4549599 L85.317,47.501 L79.066,52.747 L83.9064604,59.5990338 L83.4158723,60.1888334 C81.3086919,62.722148 79.6159929,65.5739529 78.4078086,68.6399807 L78.1726527,69.2560116 L77.9068895,69.9752681 L69.561,69.209 L68.137,77.285 L76.252845,79.8124372 L76.2650768,80.5353081 C76.3194152,83.746578 76.8626525,86.8848934 77.8647332,89.8704133 L78.0712584,90.4654563 L78.3300612,91.1871923 L71.445,95.966 L75.525,103.033 L83.1132762,99.4566604 L83.6090208,100.041113 C85.7405193,102.554021 88.2589352,104.715514 91.0643696,106.43795 L91.6292538,106.776557 L92.2903625,107.163352 L90.088,115.252 L97.755,118.043 L101.268283,110.431178 L102.023159,110.559594 C103.741507,110.851911 105.491422,111 107.260551,111 C108.776947,111 110.279227,110.8912 111.759612,110.676031 L112.497943,110.559594 L113.252819,110.431178 L116.765,118.043 L124.432,115.252 L122.230411,107.163535 L122.891558,106.776727 C125.734927,105.113199 128.297923,103.004739 130.480638,100.538999 L130.912081,100.041113 L131.407826,99.4566604 L138.995,103.033 L143.075,95.966 L136.191041,91.1871923 L136.449844,90.4654563 C137.552927,87.3892348 138.163995,84.1434511 138.250003,80.8168782 L138.260194,80.1505127 L138.263836,79.3837026 L146.376,77.245 L144.959,69.209 L136.614212,69.9752681 L136.348449,69.2560116 C135.205178,66.1618843 133.572724,63.2750285 131.521119,60.6997119 L131.10523,60.1888334 L130.614642,59.5990338 L135.454,52.747 L129.203,47.501 L123.299368,53.4549599 L122.633205,53.0737885 C119.780309,51.441392 116.683387,50.2719973 113.44246,49.6162482 L112.792384,49.491962 L112.03684,49.3558958 L111.34,40.999 Z" id="Combined-Shape-Copy" fill="#0F1931" fill-rule="nonzero"></path>
        </g>
    </g>
</svg>